<svg width="44" height="44" viewBox="0 0 44 44" fill="none" xmlns="http://www.w3.org/2000/svg">
<path d="M3.4375 29.9308L15.4688 17.8995L34.5348 36.9652C35.2058 37.6366 36.2942 37.6366 36.9652 36.9652C37.6366 36.2942 37.6366 35.2058 36.9652 34.5348L28.0401 25.6094L32.3125 21.337L40.5625 29.587V24.7255L33.5277 17.691C32.8567 17.0197 31.7683 17.0197 31.0973 17.691L25.6094 23.1786L16.684 14.2535C16.0129 13.5822 14.9246 13.5822 14.2535 14.2535L3.4375 25.0692V29.9308Z" fill="#337DBA"/>
<path fill-rule="evenodd" clip-rule="evenodd" d="M25.4375 15.9129C28.024 15.9129 30.1281 13.8084 30.1281 11.2222C30.1281 8.63538 28.024 6.53125 25.4375 6.53125C22.851 6.53125 20.7469 8.63538 20.7469 11.2219C20.7469 13.8084 22.851 15.9129 25.4375 15.9129ZM26.6906 11.2219C26.6906 10.531 26.1287 9.96875 25.4375 9.96875C24.7463 9.96875 24.1844 10.531 24.1844 11.2219C24.1844 11.9131 24.7466 12.475 25.4375 12.475C26.1284 12.475 26.6906 11.9131 26.6906 11.2219Z" fill="#337DBA"/>
<path fill-rule="evenodd" clip-rule="evenodd" d="M38.8438 0C41.6871 0 44 2.31293 44 5.15625V38.8438C44 41.6871 41.6871 44 38.8438 44H5.15625C2.31293 44 0 41.6871 0 38.8438V5.15625C0 2.31293 2.31293 0 5.15625 0H38.8438ZM40.5625 23.7188V5.15625C40.5625 4.20859 39.7914 3.4375 38.8438 3.4375H23.7188H5.15625C4.20859 3.4375 3.4375 4.20859 3.4375 5.15625V23.7188V38.8438C3.4375 39.7914 4.20859 40.5625 5.15625 40.5625H20.2812H38.8438C39.7914 40.5625 40.5625 39.7914 40.5625 38.8438V23.7188Z" fill="#337DBA"/>
</svg>
