<svg width="44" height="44" viewBox="0 0 44 44" fill="none" xmlns="http://www.w3.org/2000/svg">
<path d="M44 5.15625C44 2.31293 41.6871 0 38.8438 0C37.8014 0 8.96603 0 5.15625 0C2.31293 0 0 2.31293 0 5.15625V38.8438C0 41.6871 2.31293 44 5.15625 44H38.8438C41.6871 44 44 41.6871 44 38.8438C44 37.8014 44 8.96603 44 5.15625ZM40.5625 5.15625V20.2812H23.7188V3.4375H38.8438C39.7914 3.4375 40.5625 4.20859 40.5625 5.15625ZM5.15625 3.4375H20.2812V20.2812H3.4375V5.15625C3.4375 4.20859 4.20859 3.4375 5.15625 3.4375ZM3.4375 38.8438V23.7188H20.2812V40.5625H5.15625C4.20859 40.5625 3.4375 39.7914 3.4375 38.8438ZM38.8438 40.5625H23.7188V23.7188H40.5625V38.8438C40.5625 39.7914 39.7914 40.5625 38.8438 40.5625ZM6.76053 11.8594C6.76053 10.91 7.52994 10.1406 8.47928 10.1406H10.1406V8.47928C10.1406 7.52994 10.91 6.76053 11.8594 6.76053C12.8087 6.76053 13.5781 7.52994 13.5781 8.47928V10.1406H15.2395C16.1888 10.1406 16.9582 10.91 16.9582 11.8594C16.9582 12.8087 16.1888 13.5781 15.2395 13.5781H13.5781V15.2395C13.5781 16.1888 12.8087 16.9582 11.8594 16.9582C10.91 16.9582 10.1406 16.1888 10.1406 15.2395V13.5781H8.47928C7.52994 13.5781 6.76053 12.8087 6.76053 11.8594ZM28.5353 10.6844C27.8639 10.0134 27.8639 8.92508 28.5353 8.25403C29.2063 7.58264 30.2946 7.58264 30.9657 8.25403L32.1406 9.42862L33.3156 8.25403C33.9866 7.58264 35.0749 7.58264 35.746 8.25403C36.4174 8.92508 36.4174 10.0134 35.746 10.6844L34.5714 11.8594L35.746 13.0343C36.4174 13.7054 36.4174 14.7937 35.746 15.4647C35.0749 16.1361 33.9866 16.1361 33.3156 15.4647L32.1406 14.2901L30.9657 15.4647C30.2946 16.1361 29.2063 16.1361 28.5353 15.4647C27.8639 14.7937 27.8639 13.7054 28.5353 13.0343L29.7099 11.8594L28.5353 10.6844ZM16.9582 32.1406C16.9582 33.09 16.1888 33.8594 15.2395 33.8594H8.47928C7.52994 33.8594 6.76053 33.09 6.76053 32.1406C6.76053 31.1913 7.52994 30.4219 8.47928 30.4219H15.2398C16.1888 30.4219 16.9582 31.1913 16.9582 32.1406ZM37.2395 35.5207C37.2395 36.4701 36.4701 37.2395 35.5207 37.2395H28.7605C27.8112 37.2395 27.0418 36.4701 27.0418 35.5207C27.0418 34.5714 27.8112 33.802 28.7605 33.802H35.5207C36.4701 33.802 37.2395 34.5714 37.2395 35.5207ZM37.2395 28.7605C37.2395 29.7099 36.4701 30.4793 35.5207 30.4793H28.7605C27.8112 30.4793 27.0418 29.7099 27.0418 28.7605C27.0418 27.8112 27.8112 27.0418 28.7605 27.0418H35.5207C36.4701 27.0418 37.2395 27.8112 37.2395 28.7605Z" fill="#337DBA"/>
</svg>
