<svg width="44" height="44" viewBox="0 0 44 44" fill="none" xmlns="http://www.w3.org/2000/svg">
<path d="M35.5207 3.40863C40.1963 3.40863 44 7.21271 44 11.8879L44 32.1692C44 36.8447 40.1963 40.6484 35.5207 40.6484L1.71875 40.6484C0.769409 40.6484 0 39.879 0 38.9297L0 11.8879C0 10.9386 0.769409 10.1692 1.71875 10.1692L27.2167 10.1692C28.0136 6.31506 31.434 3.40863 35.5207 3.40863ZM40.5625 32.1692C40.5625 29.3893 38.3009 27.1274 35.5207 27.1274C32.7408 27.1274 30.4789 29.3893 30.4789 32.1692C30.4789 34.9494 32.7408 37.2109 35.5207 37.2109C38.3009 37.2109 40.5625 34.9494 40.5625 32.1692ZM3.4375 37.2109L28.7078 37.2109C27.6615 35.8007 27.0418 34.0561 27.0418 32.1695L27.0418 13.607L3.4375 13.607L3.4375 37.2109ZM30.4793 11.8879L30.4793 25.3563C33.4381 23.1608 37.5332 23.1085 40.5625 25.3563L40.5625 11.8879C40.5625 9.10803 38.3009 6.84613 35.5207 6.84613C32.7408 6.84613 30.4793 9.10803 30.4793 11.8879Z" fill="#337DBA"/>
</svg>
