<svg width="44" height="44" viewBox="0 0 44 44" fill="none" xmlns="http://www.w3.org/2000/svg">
<path d="M41.0501 10.957C39.0827 7.5866 36.4141 4.918 33.0436 2.95074C29.6722 0.983577 25.9921 0.000198364 22.0007 0.000198364C18.0092 0.000198364 14.3281 0.983577 10.9575 2.95074C7.5868 4.9177 4.9182 7.58629 2.95084 10.957C0.983379 14.328 0 18.0091 0 22.0003C0 25.9916 0.98368 29.6721 2.95054 33.0433C4.9178 36.4137 7.58639 39.0823 10.9571 41.0498C14.3281 43.0166 18.0089 43.9999 22.0003 43.9999C25.9916 43.9999 29.6728 43.0165 33.0436 41.0498C36.4141 39.0824 39.0826 36.4137 41.0498 33.0433C43.0166 29.6721 43.9999 25.9914 43.9999 22.0003C44 18.0087 43.0166 14.3275 41.0501 10.957ZM38.8729 29.1186C37.8988 31.3817 36.5957 33.3299 34.963 34.9626C33.3304 36.5949 31.3821 37.8984 29.119 38.8721C26.8559 39.8466 24.4833 40.3334 22.0007 40.3334C19.518 40.3334 17.1454 39.8459 14.8821 38.8721C12.6192 37.8984 10.671 36.5949 9.03813 34.9626C7.40579 33.3296 6.10245 31.3819 5.1281 29.1186C4.15415 26.8558 3.66703 24.4825 3.66703 22.0003C3.66703 19.5176 4.15405 17.145 5.1281 14.8817C6.10205 12.6188 7.40539 10.6709 9.03813 9.03773C10.671 7.40539 12.6192 6.10194 14.8821 5.1277C17.1451 4.15405 19.5181 3.66703 22.0007 3.66703C24.4829 3.66703 26.8563 4.15375 29.119 5.1277C31.3821 6.10164 33.33 7.40509 34.963 9.03773C36.5956 10.6706 37.8988 12.6185 38.8729 14.8817C39.8471 17.1447 40.3342 19.5173 40.3342 22.0003C40.3346 24.4829 39.8471 26.8561 38.8729 29.1186Z" fill="#337DBA"/>
<path d="M31.3103 24.8361C30.833 24.6824 30.3654 24.7221 29.9066 24.9509C29.4479 25.1796 29.1424 25.5428 28.9906 26.0394C28.5136 27.5674 27.6298 28.8041 26.3405 29.7491C25.0518 30.6943 23.6049 31.1672 22.0006 31.1672C20.3966 31.1672 18.9502 30.694 17.6609 29.7491C16.3719 28.8038 15.4887 27.5674 15.0112 26.0394C14.8586 25.5429 14.5575 25.1796 14.109 24.9509C13.6602 24.7222 13.1972 24.6824 12.7197 24.8361C12.2232 24.9886 11.8605 25.2894 11.6311 25.7378C11.4019 26.1862 11.3636 26.6504 11.5166 27.127C12.2229 29.4385 13.5407 31.3002 15.4695 32.7136C17.3985 34.1269 19.5756 34.8327 22.0009 34.8327C24.4259 34.8327 26.6035 34.1269 28.5324 32.7136C30.4601 31.2995 31.778 29.4385 32.4845 27.127C32.6383 26.6504 32.5999 26.1862 32.3705 25.7378C32.1405 25.2894 31.7869 24.9894 31.3103 24.8361Z" fill="#337DBA"/>
<path d="M14.6669 18.3338C15.6788 18.3338 16.5431 17.975 17.2593 17.2593C17.9756 16.5434 18.3337 15.6792 18.3337 14.667C18.3337 13.6547 17.9756 12.7908 17.2593 12.0746C16.543 11.3585 15.6788 11.0002 14.6669 11.0002C13.6548 11.0002 12.7905 11.3585 12.0743 12.0746C11.3584 12.7909 11 13.6548 11 14.667C11 15.6792 11.358 16.5434 12.0743 17.2593C12.7908 17.9753 13.6547 18.3338 14.6669 18.3338Z" fill="#337DBA"/>
<path d="M29.3338 11C28.3215 11 27.4569 11.3583 26.7406 12.0745C26.0251 12.7907 25.6663 13.6546 25.6663 14.6668C25.6663 15.679 26.0251 16.5432 26.7406 17.2591C27.4569 17.9752 28.3215 18.3336 29.3338 18.3336C30.3453 18.3336 31.2098 17.9748 31.9261 17.2591C32.6424 16.5432 33.0005 15.679 33.0005 14.6668C33.0005 13.6545 32.6424 12.7906 31.9261 12.0745C31.2098 11.3583 30.3453 11 29.3338 11Z" fill="#337DBA"/>
</svg>
