<svg width="15" height="13" viewBox="0 0 15 13" fill="none" xmlns="http://www.w3.org/2000/svg">
<path fill-rule="evenodd" clip-rule="evenodd" d="M14.5814 1.0491C14.3793 3.17317 13.5046 8.32751 13.0597 10.7066C12.8713 11.7135 12.5003 12.0509 12.1414 12.084C11.3617 12.1559 10.7693 11.5682 10.0137 11.0729C8.83146 10.2978 8.16349 9.81563 7.01592 9.0595C5.68942 8.18531 6.54944 7.70519 7.30504 6.92021C7.50286 6.71452 10.9398 3.58822 11.0064 3.30487C11.0148 3.26919 11.0227 3.13696 10.944 3.06718C10.8653 2.99739 10.7493 3.02153 10.6659 3.04042C10.5473 3.06718 8.6583 4.31549 4.99994 6.78536C4.46367 7.15371 3.97831 7.33264 3.54279 7.32372C3.06319 7.31322 2.14073 7.05244 1.45492 6.82943C0.613789 6.55605 -0.0547067 6.41123 0.00353745 5.94685C0.0334466 5.70495 0.366645 5.45781 1.00261 5.20489C4.91861 3.4985 7.52962 2.37402 8.83618 1.83041C12.5669 0.278856 13.342 0.00909645 13.8472 0.000176178C14.4801 -0.0110004 14.6329 0.511413 14.5814 1.0491Z" fill="white"/>
</svg>
