<svg width="56" height="56" viewBox="0 0 56 56" fill="none" xmlns="http://www.w3.org/2000/svg">
<g id="boxes (1) 1" clip-path="url(#clip0_119_581)">
<g id="Page-1">
<g id="012---Stacked-Boxes">
<path id="Shape" d="M53.2 23.7999H44.0664C44.5345 23.2905 44.796 22.625 44.8 21.9332V4.1999C44.8 2.65351 43.5464 1.3999 42 1.3999H24.2667C23.5537 1.40013 22.8679 1.6737 22.3505 2.1643L13.7527 8.20297C12.7678 8.66094 12.1367 9.64713 12.1333 10.7332V23.7999C11.4203 23.8001 10.7346 24.0737 10.2172 24.5643L1.61933 30.603C0.634499 31.0609 0.00335224 32.0471 0 33.1332V51.7999C0 53.3463 1.2536 54.5999 2.8 54.5999H22.4C23.091 54.5975 23.7564 54.338 24.2667 53.8719C24.7769 54.338 25.4423 54.5975 26.1333 54.5999H45.7333C46.4906 54.5995 47.2151 54.2908 47.74 53.745L55.1675 46.3175C55.6999 45.7945 55.9998 45.0796 56 44.3332V26.5999C55.9923 25.0567 54.7432 23.8076 53.2 23.7999ZM46.9784 30.6384C46.593 30.4406 46.1665 30.3361 45.7333 30.3332H37.5517L42.2184 25.6666H52.6605L46.9784 30.6384ZM22.4 30.3332H14.9333C14.4179 30.3332 14 29.9154 14 29.3999V10.7332C14 10.2178 14.4179 9.7999 14.9333 9.7999H34.5333C35.0488 9.7999 35.4667 10.2178 35.4667 10.7332V29.3999C35.4675 29.6442 35.3719 29.879 35.2007 30.0532L35.182 30.0719C35.0081 30.2403 34.7754 30.3341 34.5333 30.3332H22.4ZM37.0785 9.5815L42.9333 4.45844V21.9332C42.932 22.1799 42.831 22.4155 42.6533 22.5866L37.3333 27.915V10.7332C37.3322 10.3355 37.2453 9.94262 37.0785 9.5815ZM35.7784 8.23844C35.393 8.04062 34.9665 7.93608 34.5333 7.93324H27.9207L33.9201 3.26657H41.4605L35.7784 8.23844ZM23.4873 3.64737C23.5346 3.61419 23.5786 3.57669 23.6189 3.53537C23.79 3.36248 24.0234 3.26561 24.2667 3.26657L30.8793 3.26656L24.8799 7.93324H17.3852L23.4873 3.64737ZM11.354 26.0474C11.4012 26.0142 11.4453 25.9767 11.4856 25.9354C11.6567 25.7625 11.8901 25.6656 12.1333 25.6666V29.3999C12.1364 29.7186 12.1945 30.0343 12.3051 30.3332H5.25187L11.354 26.0474ZM2.8 52.7332C2.28453 52.7332 1.86667 52.3154 1.86667 51.7999V33.1332C1.86667 32.6178 2.28453 32.1999 2.8 32.1999H22.4C22.9155 32.1999 23.3333 32.6178 23.3333 33.1332V51.7999C23.3333 52.0442 23.2375 52.2788 23.0664 52.4532L23.0496 52.4691C22.876 52.6388 22.6428 52.7337 22.4 52.7332H2.8ZM26.1333 52.7332C25.6179 52.7332 25.2 52.3154 25.2 51.7999V33.1332C25.2 32.6178 25.6179 32.1999 26.1333 32.1999H45.7333C46.2488 32.1999 46.6667 32.6178 46.6667 33.1332V51.7999C46.665 52.0383 46.5722 52.2671 46.4072 52.4392L46.3867 52.4532L46.3736 52.4682C46.2021 52.6354 45.9729 52.7303 45.7333 52.7332H26.1333ZM53.8533 44.9866L48.5333 50.3066V33.1332C48.5322 32.7355 48.4453 32.3426 48.2785 31.9815L54.1333 26.8584V44.3332C54.132 44.5799 54.031 44.8155 53.8533 44.9866Z" fill="#4C699D"/>
<path id="Shape_2" d="M21.4667 22.8667H17.7334C16.7024 22.8667 15.8667 23.7024 15.8667 24.7334V26.6C15.8667 27.631 16.7024 28.4667 17.7334 28.4667H21.4667C22.4976 28.4667 23.3334 27.631 23.3334 26.6V24.7334C23.3334 23.7024 22.4976 22.8667 21.4667 22.8667ZM17.7334 26.6V24.7334H21.4667V26.6H17.7334Z" fill="#4C699D"/>
<path id="Shape_3" d="M32.6667 22.8667H29.8667C29.3512 22.8667 28.9333 23.2846 28.9333 23.8C28.9333 24.3155 29.3512 24.7334 29.8667 24.7334H32.6667C33.1821 24.7334 33.6 24.3155 33.6 23.8C33.6 23.2846 33.1821 22.8667 32.6667 22.8667Z" fill="#4C699D"/>
<path id="Shape_4" d="M32.6667 26.6001H29.8667C29.3512 26.6001 28.9333 27.018 28.9333 27.5334C28.9333 28.0489 29.3512 28.4668 29.8667 28.4668H32.6667C33.1821 28.4668 33.6 28.0489 33.6 27.5334C33.6 27.018 33.1821 26.6001 32.6667 26.6001Z" fill="#4C699D"/>
<path id="Shape_5" d="M9.3334 45.2666H5.60007C4.56913 45.2666 3.7334 46.1023 3.7334 47.1333V48.9999C3.7334 50.0309 4.56913 50.8666 5.60007 50.8666H9.3334C10.3643 50.8666 11.2001 50.0309 11.2001 48.9999V47.1333C11.2001 46.1023 10.3643 45.2666 9.3334 45.2666ZM5.60007 48.9999V47.1333H9.3334V48.9999H5.60007Z" fill="#4C699D"/>
<path id="Shape_6" d="M20.5334 45.2666H17.7334C17.2179 45.2666 16.8 45.6845 16.8 46.1999C16.8 46.7154 17.2179 47.1333 17.7334 47.1333H20.5334C21.0488 47.1333 21.4667 46.7154 21.4667 46.1999C21.4667 45.6845 21.0488 45.2666 20.5334 45.2666Z" fill="#4C699D"/>
<path id="Shape_7" d="M20.5334 49H17.7334C17.2179 49 16.8 49.4179 16.8 49.9333C16.8 50.4488 17.2179 50.8667 17.7334 50.8667H20.5334C21.0488 50.8667 21.4667 50.4488 21.4667 49.9333C21.4667 49.4179 21.0488 49 20.5334 49Z" fill="#4C699D"/>
<path id="Shape_8" d="M32.6667 45.2666H28.9333C27.9024 45.2666 27.0667 46.1023 27.0667 47.1333V48.9999C27.0667 50.0309 27.9024 50.8666 28.9333 50.8666H32.6667C33.6976 50.8666 34.5333 50.0309 34.5333 48.9999V47.1333C34.5333 46.1023 33.6976 45.2666 32.6667 45.2666ZM28.9333 48.9999V47.1333H32.6667V48.9999H28.9333Z" fill="#4C699D"/>
<path id="Shape_9" d="M43.8666 45.2666H41.0666C40.5512 45.2666 40.1333 45.6845 40.1333 46.1999C40.1333 46.7154 40.5512 47.1333 41.0666 47.1333H43.8666C44.3821 47.1333 44.8 46.7154 44.8 46.1999C44.8 45.6845 44.3821 45.2666 43.8666 45.2666Z" fill="#4C699D"/>
<path id="Shape_10" d="M43.8666 49H41.0666C40.5512 49 40.1333 49.4179 40.1333 49.9333C40.1333 50.4488 40.5512 50.8667 41.0666 50.8667H43.8666C44.3821 50.8667 44.8 50.4488 44.8 49.9333C44.8 49.4179 44.3821 49 43.8666 49Z" fill="#4C699D"/>
</g>
</g>
</g>
<defs>
<clipPath id="clip0_119_581">
<rect width="56" height="56" fill="white"/>
</clipPath>
</defs>
</svg>
