<svg width="56" height="56" viewBox="0 0 56 56" fill="none" xmlns="http://www.w3.org/2000/svg">
<g id="bricks" clip-path="url(#clip0_119_608)">
<path id="Vector" d="M53.2 28.9331H46.6667C45.123 28.9331 43.8667 30.1894 43.8667 31.7331V38.2664C43.8667 39.8102 45.123 41.0664 46.6667 41.0664H53.2C54.7438 41.0664 56 39.8102 56 38.2664V31.7331C56 30.1894 54.7438 28.9331 53.2 28.9331ZM54.1334 38.2664C54.1334 38.7807 53.7143 39.1998 53.2 39.1998H46.6667C46.1524 39.1998 45.7334 38.7807 45.7334 38.2664V31.7331C45.7334 31.2188 46.1524 30.7998 46.6667 30.7998H53.2C53.7143 30.7998 54.1334 31.2188 54.1334 31.7331V38.2664Z" fill="#4C699D"/>
<path id="Vector_2" d="M37.3334 0.933105H18.6667C17.123 0.933105 15.8667 2.18937 15.8667 3.73311V10.2664C15.8667 11.8102 17.123 13.0664 18.6667 13.0664H37.3334C38.8771 13.0664 40.1334 11.8102 40.1334 10.2664V3.73311C40.1334 2.18937 38.8771 0.933105 37.3334 0.933105ZM38.2667 10.2664C38.2667 10.7807 37.8476 11.1998 37.3334 11.1998H18.6667C18.1524 11.1998 17.7334 10.7807 17.7334 10.2664V3.73311C17.7334 3.21884 18.1524 2.79977 18.6667 2.79977H37.3334C37.8476 2.79977 38.2667 3.21884 38.2667 3.73311V10.2664Z" fill="#4C699D"/>
<path id="Vector_3" d="M12.1333 10.2664V3.73311C12.1333 2.18937 10.8771 0.933105 9.33333 0.933105H2.8C1.25627 0.933105 0 2.18937 0 3.73311V52.2664C0 53.8102 1.25627 55.0664 2.8 55.0664H51.3333C52.8771 55.0664 54.1333 53.8102 54.1333 52.2664V45.7331C54.1333 44.1894 52.8771 42.9331 51.3333 42.9331H34.2655C33.5524 42.3451 32.9821 41.7132 32.5295 41.0664H37.3333C38.8771 41.0664 40.1333 39.8102 40.1333 38.2664V31.7331C40.1333 30.1894 38.8771 28.9331 37.3333 28.9331H26.4861C25.7264 28.3722 24.8491 27.7907 23.7963 27.1896C23.7104 27.1402 23.6357 27.0926 23.5536 27.044C24.9937 26.9292 26.1333 25.7346 26.1333 24.2664V17.7331C26.1333 16.1894 24.8771 14.9331 23.3333 14.9331H16.0412C15.5185 14.7156 14.9884 14.5467 14.4629 14.3862C13.5128 14.0959 12.6149 13.8224 11.718 13.2232C11.3727 12.9927 11.1281 12.7706 10.9368 12.5438C11.6592 12.0286 12.1333 11.1923 12.1333 10.2664ZM2.8 2.79977H9.33333C9.8476 2.79977 10.2667 3.21884 10.2667 3.73311V10.2664C10.2667 10.3934 10.2349 10.5138 10.1873 10.6258C9.94933 9.56924 9.60213 8.28217 8.12653 6.80657C5.97333 4.65337 3.40387 4.83537 1.86667 5.22457V3.73311C1.86667 3.21884 2.28573 2.79977 2.8 2.79977ZM51.3333 44.7998C51.8476 44.7998 52.2667 45.2188 52.2667 45.7331V52.2664C52.2667 52.7807 51.8476 53.1998 51.3333 53.1998H44.8149C44.7048 51.2454 43.7164 47.1303 37.6609 44.8586C37.6115 44.8399 37.5695 44.8184 37.5209 44.7998H51.3333ZM38.2667 31.7331V38.2664C38.2667 38.7807 37.8476 39.1998 37.3333 39.1998H31.5187C30.9241 37.712 30.8 36.327 30.8 35.4664C30.8 34.7534 30.7907 33.0556 28.6431 30.7998H37.3333C37.8476 30.7998 38.2667 31.2188 38.2667 31.7331ZM24.2667 17.7331V24.2664C24.2667 24.7807 23.8476 25.1998 23.3333 25.1998H21.1223C19.9491 23.9248 19.9836 22.816 20.0275 21.5962C20.0639 20.5919 20.104 19.4551 19.502 18.2492C19.2127 17.6706 18.8972 17.2058 18.5687 16.7998H23.3333C23.8476 16.7998 24.2667 17.2188 24.2667 17.7331ZM13.9179 16.1707C15.6025 16.685 16.8187 17.0574 17.8323 19.0836C18.2215 19.863 18.1944 20.6348 18.1627 21.529C18.0908 23.5328 18.0021 26.0276 22.8713 28.8099C26.8949 31.1087 28.9343 33.3487 28.9343 35.4664C28.9343 37.3695 29.5167 43.7983 37.0067 46.6076C42.0784 48.5098 42.8811 51.7223 42.9669 53.1998H2.8C2.28573 53.1998 1.86667 52.7807 1.86667 52.2664V7.16311C2.856 6.82991 5.05867 6.38004 6.8068 8.12631C7.9828 9.30231 8.18813 10.23 8.40653 11.2138C8.65573 12.3394 8.93853 13.6143 10.682 14.7763C11.8076 15.5267 12.9295 15.8692 13.9179 16.1707Z" fill="#4C699D"/>
<path id="Vector_4" d="M53.2 0.933105H46.6667C45.123 0.933105 43.8667 2.18937 43.8667 3.73311V10.2664C43.8667 11.8102 45.123 13.0664 46.6667 13.0664H53.2C54.7438 13.0664 56 11.8102 56 10.2664V3.73311C56 2.18937 54.7438 0.933105 53.2 0.933105ZM54.1334 10.2664C54.1334 10.7807 53.7143 11.1998 53.2 11.1998H46.6667C46.1524 11.1998 45.7334 10.7807 45.7334 10.2664V3.73311C45.7334 3.21884 46.1524 2.79977 46.6667 2.79977H53.2C53.7143 2.79977 54.1334 3.21884 54.1334 3.73311V10.2664Z" fill="#4C699D"/>
<path id="Vector_5" d="M29.8667 17.7331V24.2664C29.8667 25.8102 31.123 27.0664 32.6667 27.0664H51.3334C52.8771 27.0664 54.1334 25.8102 54.1334 24.2664V17.7331C54.1334 16.1894 52.8771 14.9331 51.3334 14.9331H32.6667C31.123 14.9331 29.8667 16.1894 29.8667 17.7331ZM52.2667 17.7331V24.2664C52.2667 24.7807 51.8476 25.1998 51.3334 25.1998H32.6667C32.1524 25.1998 31.7334 24.7807 31.7334 24.2664V17.7331C31.7334 17.2188 32.1524 16.7998 32.6667 16.7998H51.3334C51.8476 16.7998 52.2667 17.2188 52.2667 17.7331Z" fill="#4C699D"/>
</g>
<defs>
<clipPath id="clip0_119_608">
<rect width="56" height="56" fill="white"/>
</clipPath>
</defs>
</svg>
