<svg width="56" height="56" viewBox="0 0 56 56" fill="none" xmlns="http://www.w3.org/2000/svg">
<g id="construction (3) 1" clip-path="url(#clip0_119_625)">
<g id="Group">
<path id="Vector" d="M53.2903 1.80645H44.8587C43.5517 1.80645 42.4308 2.73948 42.1942 4.02477L40.9785 10.6255C40.1637 9.56516 39.0537 8.73961 37.7621 8.30516C37.0458 6.1329 35.3324 4.44206 33.1466 3.75561L32.3265 2.11535C31.6734 0.810193 30.3619 0 28.9032 0C27.5086 0 26.2486 0.740645 25.5703 1.94645C23.3674 2.63652 21.6431 4.34632 20.935 6.54116C19.1746 7.28723 17.8685 8.80374 17.3988 10.6806L17.3139 11.0221C15.0414 11.7943 13.3108 13.7435 12.8357 16.1199L12.8077 16.2581H12.6452C11.6489 16.2581 10.8387 17.0683 10.8387 18.0645V19.871C10.8387 20.8672 11.6489 21.6774 12.6452 21.6774H12.731L13.4689 29.0559C12.5621 29.3142 11.807 29.9112 11.3409 30.7097H10.6246L5.79871 13.0137C5.45006 11.7329 4.27858 10.8387 2.95174 10.8387C1.32413 10.8387 0 12.1628 0 13.7905V14.187C0 14.4408 0.0325161 14.6946 0.0966452 14.9385L4.24697 30.7097H3.6129C2.61665 30.7097 1.80645 31.5199 1.80645 32.5161V34.3226C1.80645 35.3188 2.61665 36.129 3.6129 36.129H3.65265L4.43845 53.4141C4.50439 54.8637 5.69393 56 7.14542 56H23.4839H50.5806C51.5769 56 52.3871 55.1898 52.3871 54.1935V46.9677C52.3871 45.9715 51.5769 45.1613 50.5806 45.1613H45.1613V37.9355C45.1613 36.9392 44.3511 36.129 43.3548 36.129H41.7335L46.8142 9.03226H53.2903C54.7843 9.03226 56 7.81652 56 6.32258V4.51613C56 3.02219 54.7843 1.80645 53.2903 1.80645ZM18.2831 12.6181L18.8097 12.4862L19.1511 11.1187C19.5097 9.68439 20.561 8.54903 21.9628 8.08206L22.4334 7.92581L22.5535 7.44439C23.0295 5.54039 24.509 4.06181 26.4121 3.58581L26.815 3.48555L27.0968 2.92284C27.4409 2.23458 28.1328 1.80645 28.9032 1.80645C29.6737 1.80645 30.3655 2.23458 30.7097 2.92284L31.8947 5.2911L32.2975 5.39135C34.2015 5.86735 35.6801 7.34594 36.1561 9.24994L36.288 9.77652L36.8146 9.90748C38.6003 10.3537 40.0021 11.7826 40.4374 13.5646L39.9406 16.2581H14.6666C15.1074 14.4823 16.4992 13.0643 18.2831 12.6181ZM12.6452 18.0645H39.6083L39.2759 19.871H12.6452V18.0645ZM38.9426 21.6774L36.2808 36.129H30.7097C29.7134 36.129 28.9032 36.9392 28.9032 37.9355V45.1613H24.8396L25.2506 36.129H25.2903C26.2866 36.129 27.0968 35.3188 27.0968 34.3226V32.5161C27.0968 31.5199 26.2866 30.7097 25.2903 30.7097H17.5623C17.0701 29.8661 16.2554 29.2383 15.2799 29.008L14.5465 21.6774H38.9426ZM18.0645 32.5161H25.2903V34.3226H17.5623C17.873 33.7888 18.0645 33.1773 18.0645 32.5161ZM14.4516 30.7097C15.4479 30.7097 16.2581 31.5199 16.2581 32.5161C16.2581 33.5124 15.4479 34.3226 14.4516 34.3226C13.4554 34.3226 12.6452 33.5124 12.6452 32.5161C12.6452 31.5199 13.4554 30.7097 14.4516 30.7097ZM1.84439 14.4769C1.8191 14.3839 1.80645 14.2854 1.80645 14.187V13.7905C1.80645 13.1582 2.32039 12.6452 2.95174 12.6452C3.46658 12.6452 3.9209 12.992 4.05639 13.4888L8.75316 30.7097H6.11574L1.84439 14.4769ZM3.6129 32.5161H10.8387C10.8387 33.1773 11.0302 33.7888 11.3409 34.3226H3.6129V32.5161ZM13.4517 36.129C12.8448 41.3831 10.2001 46.0853 6.06065 49.3188L5.46181 36.129H13.4517ZM7.14542 54.1935C6.66129 54.1935 6.26477 53.8151 6.2431 53.3319L6.1591 51.4875C11.3183 47.9161 14.6088 42.3703 15.269 36.129H23.4423L23.0286 45.2263C22.2537 45.4295 21.6774 46.1305 21.6774 46.9677V54.1935H7.14542ZM23.4839 46.9677H36.129V54.1935H23.4839V46.9677ZM50.5815 54.1935H37.9355V46.9677H50.5806L50.5815 54.1935ZM43.3548 45.1613H30.7097V37.9355H43.3548V45.1613ZM39.8955 36.129H38.117L43.1083 9.03226H44.9761L39.8955 36.129ZM54.1935 6.32258C54.1935 6.82116 53.788 7.22581 53.2903 7.22581H43.4415L43.9708 4.35174C44.0494 3.92452 44.4234 3.6129 44.8587 3.6129H53.2903C53.788 3.6129 54.1935 4.01755 54.1935 4.51613V6.32258Z" fill="#4C699D"/>
<path id="Vector_2" d="M25.2903 9.03234H27.0967C27.0967 8.03608 27.9069 7.22589 28.9032 7.22589V5.41943C26.9107 5.41943 25.2903 7.03982 25.2903 9.03234Z" fill="#4C699D"/>
<path id="Vector_3" d="M19.8708 14.4518H21.6773C21.6773 13.4555 22.4875 12.6453 23.4838 12.6453V10.8389C21.4912 10.8389 19.8708 12.4593 19.8708 14.4518Z" fill="#4C699D"/>
<path id="Vector_4" d="M32.5161 10.8389V12.6453C33.5124 12.6453 34.3226 13.4555 34.3226 14.4518H36.129C36.129 12.4593 34.5086 10.8389 32.5161 10.8389Z" fill="#4C699D"/>
</g>
</g>
<defs>
<clipPath id="clip0_119_625">
<rect width="56" height="56" fill="white"/>
</clipPath>
</defs>
</svg>
