<svg width="56" height="56" viewBox="0 0 56 56" fill="none" xmlns="http://www.w3.org/2000/svg">
<g id="Group">
<path id="Vector" d="M44.3578 44.7257L44.3578 44.7257L45.4238 45.537L45.4967 45.5925L45.5583 45.5247L48.4456 42.3507C48.8126 41.9473 49.4391 41.9164 49.8444 42.2819L49.8444 42.2819C50.2495 42.6471 50.2803 43.2698 49.9135 43.6731L46.3531 47.587C46.3531 47.587 46.3531 47.587 46.3531 47.587C46.1586 47.8007 45.8898 47.911 45.6187 47.911C45.4081 47.911 45.1967 47.8445 45.0178 47.7084L43.155 46.291C42.7207 45.9605 42.6378 45.3424 42.9696 44.9103C43.3016 44.4779 43.923 44.3948 44.3578 44.7257Z" fill="#4C699D" stroke="white" stroke-width="0.2"/>
<path id="Vector_2" d="M53.9194 39.7386L53.9184 39.8224C53.8839 42.8671 53.2886 45.107 51.8429 47.788M53.9194 39.7386L51.7549 47.7405M53.9194 39.7386L53.837 39.723C51.2654 39.236 48.4555 37.7259 46.145 35.5799L46.077 35.5167L46.009 35.5798C44.7824 36.7179 43.4151 37.6753 42.0175 38.3985L42.0174 38.3983L42.0123 38.4014C41.9749 38.4237 41.9375 38.4432 41.8997 38.4596L41.8997 38.4594L41.8943 38.4622C40.6974 39.0687 39.4821 39.5021 38.3169 39.7229L38.2347 39.7385L38.2355 39.8222C38.2678 42.8665 38.8632 45.106 40.3111 47.7864M53.9194 39.7386L40.3992 47.739M51.8429 47.788L51.7549 47.7405M51.8429 47.788C51.8429 47.788 51.8429 47.7879 51.8429 47.7879L51.7549 47.7405M51.8429 47.788C51.1942 48.9933 50.1125 50.5218 49.021 51.7496C48.4753 52.3635 47.9247 52.905 47.4222 53.2939C47.171 53.4884 46.9298 53.6462 46.7056 53.7558C46.4824 53.865 46.2698 53.9294 46.0774 53.9294C45.8851 53.9294 45.6724 53.865 45.4492 53.7558C45.225 53.6462 44.9838 53.4883 44.7326 53.2939C44.2301 52.905 43.6795 52.3634 43.1337 51.7494C42.0421 50.5214 40.9602 48.9924 40.3111 47.7864M51.7549 47.7405C50.4658 50.1356 47.4469 53.8294 46.0774 53.8294C44.7079 53.8294 41.689 50.1356 40.3992 47.739M40.3111 47.7864C40.3112 47.7864 40.3112 47.7865 40.3112 47.7865L40.3992 47.739M40.3111 47.7864L40.3992 47.739M41.6773 36.2432L41.7318 36.3039L41.8022 36.2625C43.0712 35.5178 44.3007 34.5563 45.3601 33.4477C45.5469 33.2522 45.8066 33.1414 46.0778 33.1414C46.3492 33.1415 46.6086 33.2525 46.7955 33.4482C49.1527 35.9181 52.3649 37.668 54.9888 37.8963C55.492 37.9401 55.881 38.3536 55.8923 38.8556C55.9796 42.719 55.3339 45.481 53.588 48.719L53.588 48.719L53.5877 48.7195L53.5869 48.721L53.584 48.7262L53.5738 48.7444C53.5703 48.7507 53.5661 48.7581 53.5612 48.7666C53.5543 48.7788 53.5461 48.7932 53.5366 48.8097C53.5044 48.8657 53.4579 48.9459 53.3979 49.0468C53.2781 49.2486 53.1049 49.5333 52.887 49.8729C52.4511 50.5524 51.8371 51.4512 51.1142 52.3473C50.3909 53.2439 49.5612 54.1347 48.6944 54.8005C47.8257 55.4677 46.9316 55.9 46.0774 55.9C45.3699 55.9 44.6344 55.6034 43.9074 55.1207C43.1813 54.6385 42.4715 53.9758 41.8175 53.2562L41.7878 53.2235H41.7435H21.811L11.9426 53.2233H4.81214C4.11386 53.2233 3.34028 53.1848 2.62317 52.9994C1.90666 52.8143 1.25331 52.4843 0.786863 51.9061C0.309493 51.3143 0.125424 50.5763 0.102494 49.7999C0.0795531 49.0231 0.218176 48.216 0.378378 47.4946C1.27878 43.4564 2.87021 39.9869 5.10619 37.1791C7.4306 34.2605 10.3982 32.1473 13.9542 30.8702L13.9543 30.8704L13.9604 30.8677C14.0013 30.8499 14.0433 30.8348 14.0864 30.8226L14.0864 30.8228L14.0923 30.8207C14.3328 30.7363 14.5762 30.6558 14.8221 30.5788L14.9803 30.5293L14.8627 30.4125C12.175 27.7419 10.3762 24.2419 10.3762 21.1196V19.4152V19.3495L10.3159 19.3235C9.07288 18.7857 8.20187 17.5522 8.20187 16.1204C8.20187 14.6341 9.14213 13.3619 10.463 12.8607L10.5206 12.8389L10.527 12.7777C10.8092 10.0986 11.92 7.53184 13.7064 5.47657C15.4665 3.45156 17.8143 1.99495 20.3844 1.31261L20.4407 1.29768L20.4555 1.24143C20.6282 0.585693 21.2269 0.1 21.9388 0.1H25.8887C26.627 0.1 27.2451 0.621847 27.3911 1.31396L27.4035 1.3729L27.4614 1.38947C32.6866 2.88435 36.49 7.40275 37.0461 12.777L37.0524 12.8383L37.1101 12.8602C38.4303 13.361 39.3703 14.6335 39.3703 16.1203C39.3703 17.5516 38.5005 18.7848 37.2593 19.3228L37.199 19.3489V19.4146V21.1195C37.199 24.2447 35.4005 27.7435 32.7128 30.4121L32.5951 30.5289L32.7533 30.5785C33.0065 30.6578 33.257 30.7411 33.5045 30.8284L33.5045 30.8285L33.5082 30.8296C33.5344 30.8377 33.5599 30.8468 33.5851 30.8569L33.5851 30.857L33.5888 30.8583C36.766 31.9935 39.4757 33.7964 41.6773 36.2432ZM40.0123 51.2531H40.2063L40.0938 51.0951C39.6327 50.4472 39.2541 49.8592 38.989 49.4297C38.8565 49.215 38.7523 49.04 38.6805 48.9171C38.6446 48.8556 38.6167 48.8072 38.5974 48.7734L38.575 48.7338L38.5688 48.7227L38.567 48.7195L38.5664 48.7183L38.5663 48.7182C36.8176 45.4807 36.1718 42.7183 36.2626 38.8549C36.2744 38.3533 36.6632 37.9401 37.1661 37.8964C37.9827 37.8254 38.8557 37.6064 39.741 37.2653L39.8818 37.211L39.777 37.1025C38.2974 35.5703 36.5767 34.3403 34.6297 33.4209L34.4778 33.3492L34.4872 33.5168C34.6882 37.1328 32.7212 39.5034 31.4547 41.0256C31.2785 41.2374 31.0214 41.3663 30.7455 41.3811L30.7454 41.3811C30.7274 41.3821 30.7098 41.3826 30.6921 41.3826C30.4348 41.3826 30.1871 41.2828 30.0019 41.1037L23.8557 35.1558L23.7862 35.0885L23.7166 35.1558L17.5734 41.1035C17.3754 41.2951 17.1059 41.3963 16.8305 41.3811L16.8303 41.3811C16.5544 41.3664 16.2974 41.2378 16.1211 41.0263L16.0456 41.0893L16.1211 41.0263C14.8528 39.5054 12.883 37.1362 13.0858 33.5127L13.0952 33.3452L12.9434 33.4166C6.22927 36.5742 3.44755 42.8265 2.31156 47.9205L2.31154 47.9206C2.15674 48.618 2.07807 49.1974 2.078 49.6533C2.07793 50.1052 2.15491 50.4542 2.331 50.6725L2.40883 50.6098L2.331 50.6725C2.49794 50.8795 2.80031 51.0218 3.20846 51.114C3.62009 51.207 4.15646 51.2529 4.81214 51.2529H11.9426L21.811 51.2531H40.0123ZM28.8257 12.5683L28.8504 12.6324H28.9191H34.9206H35.0362L35.0195 12.518C34.4156 8.36912 31.5318 4.88483 27.5654 3.48821L27.4307 3.44077L27.4322 3.58361C27.4707 7.15747 27.6855 9.60304 28.8257 12.5683ZM25.4442 2.17022L25.444 2.07038H25.3442H22.4833H22.3834L22.3833 2.17022C22.3765 6.36958 22.2693 9.20023 21.1348 12.4999L21.0893 12.6324H21.2294H26.6002H26.7404L26.6948 12.4999C25.5584 9.20031 25.451 6.37001 25.4442 2.17022ZM18.9111 12.6325H18.9798L19.0045 12.5684C20.1517 9.57921 20.3603 7.11856 20.3963 3.49791L20.3977 3.3582L20.265 3.40194C16.2166 4.73662 13.1826 8.31479 12.5552 12.5178L12.538 12.6325H12.6541H18.9111ZM19.0639 14.625L19.0364 14.6028H19.001H11.7089C10.8674 14.6028 10.1819 15.2829 10.1819 16.1204C10.1819 16.9594 10.8673 17.6411 11.7089 17.6411H35.8663C36.7066 17.6411 37.3902 16.9592 37.3902 16.1204C37.3902 15.283 36.7062 14.6028 35.8663 14.6028H19.1795H19.1346L19.1048 14.6363C19.1007 14.6409 19.0978 14.6431 19.0964 14.644C19.093 14.6433 19.0823 14.6399 19.0639 14.625ZM12.4562 19.6114H12.3562V19.7114V21.1196C12.3562 23.214 13.3738 25.5465 14.9594 27.5652C16.5458 29.585 18.7099 31.3025 21.0206 32.1616L21.0207 32.1617C22.0346 32.5368 22.9064 32.7266 23.7808 32.727C24.6553 32.7274 25.5259 32.5383 26.5375 32.1641C28.8527 31.3084 31.0211 29.5924 32.6106 27.5722C34.1993 25.5531 35.2188 23.2183 35.2188 21.1196V19.7114V19.6114H35.1188H12.4562ZM15.2571 32.5084L15.2004 32.5267L15.1894 32.5853C14.6598 35.4198 15.7646 37.3738 16.9008 38.8505L16.9692 38.9393L17.0497 38.8614L21.5124 34.5407L21.639 34.4181L21.4688 34.3723C21.0995 34.2728 20.7218 34.1532 20.3291 34.008C19.1097 33.5546 17.9322 32.9008 16.8395 32.1027L16.8021 32.0754L16.757 32.0863C16.2394 32.2116 15.7402 32.3532 15.2571 32.5084ZM26.1025 34.371L25.9325 34.417L26.059 34.5394L30.5245 38.8608L30.605 38.9387L30.6733 38.8498C31.8092 37.3708 32.9136 35.4149 32.3827 32.5842L32.3717 32.5257L32.3151 32.5075C31.8271 32.3502 31.3272 32.2099 30.816 32.0861L30.771 32.0751L30.7336 32.1024C29.6358 32.9031 28.4526 33.5582 27.2271 34.0111L27.2271 34.0111C26.8399 34.1544 26.4671 34.2725 26.1025 34.371Z" fill="#4C699D" stroke="white" stroke-width="0.2"/>
</g>
</svg>
