<svg width="1123" height="1217" viewBox="0 0 1123 1217" fill="none" xmlns="http://www.w3.org/2000/svg">
<path fill-rule="evenodd" clip-rule="evenodd" d="M5.29212 1042.22C-1.10016 1036.12 -1.10435 1025.95 5.15307 1019.71L72.4203 952.642C78.6784 946.402 88.8181 946.463 95.2492 952.524C293.034 1138.93 604.695 1135.49 798.761 942.005C992.829 748.519 997.253 436.876 811.471 238.504C805.433 232.057 805.402 221.921 811.655 215.682L878.9 148.589C885.158 142.346 895.341 142.379 901.423 148.793C1136.62 396.814 1132.04 788.832 888.306 1031.83C644.572 1274.84 252.567 1278.21 5.29212 1042.22Z" fill="#F4F4F4"/>
<path fill-rule="evenodd" clip-rule="evenodd" d="M983.084 67.381C976.98 60.9928 976.944 50.836 983.202 44.5973C1006.14 21.7271 1029.08 -1.14573 1052.02 -24.0159C1058.28 -30.2553 1068.46 -30.2071 1074.59 -23.8372C1401.25 315.871 1400.09 854.205 1071.95 1193.3C1065.81 1199.65 1055.63 1199.67 1049.39 1193.41C1026.55 1170.5 1003.72 1147.6 980.887 1124.69C974.649 1118.44 974.716 1108.28 980.841 1101.91C1258.48 813.214 1259.48 356.603 983.084 67.381Z" fill="#F4F4F4"/>
</svg>
