<svg width="56" height="56" viewBox="0 0 56 56" fill="none" xmlns="http://www.w3.org/2000/svg">
<g id="Group">
<path id="Vector" d="M45.9486 7.3765C44.7246 7.04683 43.4448 7.21588 42.3454 7.85244C40.0793 9.16466 39.2941 12.0804 40.5949 14.3524C41.2257 15.4542 42.2468 16.2423 43.4703 16.5719C43.8793 16.6821 44.2944 16.7366 44.707 16.7366C45.5294 16.7366 46.3417 16.52 47.0738 16.0961C49.3398 14.7839 50.125 11.8681 48.8242 9.59611C48.1933 8.49425 47.172 7.70606 45.9486 7.3765ZM46.2508 14.6736C45.5321 15.0895 44.6964 15.2001 43.8973 14.985C43.0988 14.7699 42.4322 14.2552 42.0201 13.5356C41.1675 12.0464 41.6825 10.135 43.168 9.27477C43.6467 8.99769 44.1774 8.85613 44.7147 8.85613C44.9839 8.85613 45.2548 8.89163 45.5214 8.96339C46.3199 9.17846 46.9866 9.69318 47.3987 10.4128C48.2514 11.9022 47.7364 13.8135 46.2508 14.6736Z" fill="#4C699D"/>
<path id="Vector_2" d="M55.3948 14.4813L53.8674 13.1647C53.9877 12.2586 53.9741 11.35 53.8271 10.4527L55.2662 9.21732C55.9029 8.67072 56.0627 7.74558 55.646 7.01754L54.3247 4.71006C53.906 3.97906 53.0261 3.65224 52.2325 3.93305L50.3337 4.60455C49.6161 4.05335 48.827 3.61499 47.9778 3.29595L47.6351 1.43011C47.4831 0.601275 46.7624 0 45.9218 0C45.9216 0 45.9214 0 45.9213 0L43.2676 0.000328685C42.4288 0.000547809 41.7068 0.600508 41.5509 1.42671L41.1752 3.41811C40.3483 3.76498 39.5531 4.24453 38.8594 4.81491L37.0805 4.18515C36.289 3.90511 35.4086 4.23051 34.9874 4.95975L33.6548 7.26745C33.2344 7.99549 33.3905 8.92129 34.0259 9.46887L35.5533 10.7855C35.433 11.6914 35.4465 12.6 35.5937 13.4975L34.1545 14.7329C33.5178 15.2795 33.358 16.2046 33.7747 16.9327L35.0958 19.24C35.5144 19.971 36.394 20.2981 37.1881 20.0172L39.087 19.3456C39.8046 19.8969 40.5938 20.3352 41.4428 20.6543L41.7855 22.5203C41.9377 23.3489 42.6586 23.9502 43.4993 23.9502L46.153 23.9499C46.9918 23.9497 47.7137 23.3497 47.8697 22.5234L48.2453 20.532C49.0718 20.185 49.8677 19.7056 50.5611 19.1352L52.3403 19.7649C53.1319 20.0452 54.0122 19.7193 54.4331 18.9903L55.7658 16.6825C56.1861 15.9546 56.0299 15.0289 55.3948 14.4813ZM54.3434 15.8605L53.0107 18.1683C52.9855 18.212 52.934 18.2317 52.8882 18.2157L50.6584 17.4263C50.372 17.3249 50.0531 17.39 49.8293 17.5953C49.082 18.2807 48.1983 18.8154 47.2447 19.1588C46.9708 19.2573 46.7696 19.4936 46.7156 19.7796L46.2556 22.2187C46.2459 22.2695 46.2028 22.3064 46.1528 22.3064L43.4993 22.3068C43.4513 22.3068 43.4102 22.2716 43.4012 22.2232L42.972 19.8859C42.917 19.5868 42.7013 19.3424 42.4114 19.2508C41.4381 18.9434 40.5527 18.4528 39.7799 17.7926C39.5241 17.5974 39.2552 17.5474 38.9727 17.6428L36.6405 18.4675C36.5948 18.4838 36.5457 18.4655 36.5214 18.4231L35.2003 16.1158C35.1747 16.0711 35.1846 16.0139 35.2243 15.9799L37.0245 14.4344C37.254 14.2374 37.3566 13.9302 37.2919 13.6347C37.0734 12.6386 37.0572 11.6212 37.2436 10.6107C37.2966 10.3235 37.1932 10.0296 36.9721 9.83908L35.0981 8.22381C35.06 8.19095 35.0512 8.13452 35.0773 8.08949L36.4099 5.78179C36.4351 5.73819 36.4866 5.71836 36.5325 5.73424L38.7624 6.52364C39.0485 6.62487 39.3675 6.5599 39.5915 6.35458C40.3385 5.66927 41.2223 5.13417 42.1758 4.79114C42.4497 4.69264 42.651 4.45642 42.705 4.17036L43.1652 1.73119C43.1747 1.68035 43.218 1.64343 43.2679 1.64343H45.9216C45.9695 1.64343 46.0106 1.67849 46.0194 1.72702L46.4487 4.0643C46.5037 4.36341 46.7195 4.60784 47.0093 4.69943C47.9828 5.00686 48.8682 5.49737 49.6409 6.15759C49.8638 6.3479 50.1714 6.40509 50.448 6.30736L52.7802 5.48258C52.8264 5.46636 52.875 5.48477 52.8994 5.52706L54.2204 7.83443C54.2461 7.87913 54.2361 7.93633 54.1964 7.97029L52.3962 9.51577C52.1667 9.71276 52.0641 10.02 52.1288 10.3155C52.3472 11.3114 52.3635 12.3288 52.177 13.3395C52.124 13.6267 52.2274 13.9206 52.4485 14.1111L54.3225 15.7264C54.3605 15.7591 54.3693 15.8157 54.3434 15.8605Z" fill="#4C699D"/>
<g id="Vector_3">
<path d="M11.8822 33.1354C11.8818 31.6759 10.6711 30.3858 9.19016 30.3925L8.72779 30.3913L8.72439 26.2815C8.72337 25.219 7.31285 25.2744 7.0815 26.0325C7.04113 26.1648 7.03667 26.3186 7.08189 26.4915L7.08507 30.387C6.29865 30.385 5.51212 30.3829 4.72569 30.3808L4.71397 16.2973C4.71386 16.1517 4.6751 16.0087 4.60172 15.8832L2.64579 12.537L2.6447 8.12334L9.13847 8.15357L9.13956 12.5144L7.18484 15.8759C7.11168 16.0016 7.07324 16.1444 7.07335 16.2897L7.07784 21.7073C7.04004 21.8646 7.04373 22.004 7.0782 22.1246C7.29437 22.8808 8.72141 22.8943 8.72067 21.9007L8.71629 16.5105L10.6709 13.1492C10.7439 13.0236 10.7824 12.8809 10.7824 12.7358L10.7802 4.36153C10.7802 3.93775 10.389 3.54004 9.95643 3.54004L1.81995 3.56381C1.37455 3.56502 1.00176 3.93786 1.001 4.38366L1.00319 12.76C1.00319 12.9057 1.04195 13.0488 1.11544 13.1746L3.07148 16.5209L3.08298 30.3764L2.61995 30.3752C-0.577983 30.3844 -0.985486 35.32 2.15933 35.8686L2.13261 52.2498C2.12549 57.2675 9.6591 57.2292 9.66589 52.2692L9.69272 35.8398C10.938 35.5958 11.8827 34.4751 11.8822 33.1354ZM2.64426 6.47991L2.64393 5.20483L9.13759 5.18577L9.13792 6.51015L2.64426 6.47991ZM5.90921 54.4688C4.73883 54.4688 3.77368 53.3996 3.77533 52.2525L3.80205 35.9057L8.04989 35.8933L8.02317 52.2669C8.02153 53.4775 7.07313 54.4654 5.90921 54.4688ZM9.18665 34.2465L2.62082 34.2656C1.29252 34.2656 1.30402 32.0225 2.62017 32.0188L9.19038 32.036C10.5084 32.036 10.5178 34.2425 9.18665 34.2465Z" fill="#4C699D"/>
<path d="M7.0815 26.0325C7.31285 25.2744 8.72337 25.219 8.72439 26.2815L8.72067 21.9007C8.72141 22.8943 7.29437 22.8808 7.0782 22.1246L7.0815 26.0325Z" fill="#4C699D"/>
</g>
<path id="Vector_4" d="M25.9878 31.4773L26.0683 19.7595C29.4149 18.9292 31.1823 16.766 31.1918 13.4692C31.2025 9.81746 29.0357 5.61259 26.1519 3.68847C25.4547 3.40612 25.029 3.63314 24.8748 4.36972L24.8549 11.1994C24.8249 11.5667 24.6297 11.769 24.2694 11.8062L20.8054 11.7889C20.4817 11.7873 20.2191 11.511 20.2201 11.1727L20.24 4.34299C20.0907 3.60684 19.6671 3.37687 18.9689 3.65308C16.0728 5.54915 13.8808 9.73342 13.8702 13.386C13.8606 16.6799 15.6135 18.8593 18.9511 19.7233L18.9446 36.6901C19.3483 36.2766 20.2442 35.3744 20.5982 35.0736V19.0737C20.6007 18.6787 20.3221 18.3375 19.9344 18.2618C16.9513 17.6781 15.5051 16.0848 15.513 13.3908C15.5203 10.8618 16.7981 7.94768 18.5922 6.09674L18.5775 11.168C18.5739 12.4106 19.5697 13.4263 20.7974 13.4324L24.2614 13.4498C25.4589 13.4498 26.4943 12.3993 26.4977 11.2042L26.5125 6.13892C28.2959 8.00838 29.5567 10.9353 29.5492 13.4646C29.5415 16.1567 28.087 17.7344 25.1028 18.2876C24.716 18.3592 24.4344 18.6951 24.4311 19.0887L24.3382 32.2912C24.7498 32.0778 25.656 31.6162 25.9878 31.4773Z" fill="#4C699D"/>
<path id="Vector_5" fill-rule="evenodd" clip-rule="evenodd" d="M52.623 55.6423L52.6534 55.6291C54.2466 54.9359 55.3599 53.3481 55.3599 51.509C55.3599 49.5993 54.1569 47.9607 52.4626 47.3157L52.0014 47.1401L51.9507 46.6489C51.1618 38.9951 45.7639 32.5578 38.3476 30.4282L37.8839 30.295L37.7847 29.8227C37.6326 29.0987 36.9867 28.5532 36.219 28.5532H30.4192C29.6804 28.5532 29.0545 29.0597 28.874 29.7474L28.7557 30.1982L28.3055 30.3182C24.6583 31.2901 21.3247 33.3658 18.8262 36.251C16.291 39.1785 14.7141 42.8356 14.3138 46.6512L14.2624 47.1412L13.8021 47.3165C12.1065 47.9621 10.9033 49.6004 10.9033 51.5092C10.9033 53.3486 12.0181 54.9369 13.6138 55.6298L13.6451 55.6434L13.6751 55.6596C13.7313 55.6899 13.8706 55.741 14.1155 55.793C14.3464 55.842 14.6221 55.882 14.9163 55.9133C15.504 55.9758 16.1173 55.9985 16.4975 56H49.7678C50.1528 55.9962 50.7703 55.9707 51.3593 55.9073C51.6549 55.8754 51.9312 55.8353 52.1617 55.7868C52.4072 55.7351 52.5429 55.6854 52.5937 55.6581L52.623 55.6423ZM50.4062 47.0228H40.1176L39.9205 46.5082C38.2052 42.0307 37.888 38.3354 37.8311 33.0402L37.8188 31.8943L38.8989 32.276C44.951 34.4149 49.3515 39.7505 50.2733 46.1064L50.4062 47.0228ZM30.419 30.1491H36.2191L36.2204 30.9491C36.2305 37.1337 36.3908 41.2095 38.0213 45.9612L38.3856 47.0228H28.2564L28.6199 45.9616C30.2476 41.2095 30.4078 37.1331 30.4177 30.9492L30.419 30.1491ZM28.8197 31.7926L28.8086 32.9134C28.7554 38.2763 28.4476 41.9945 26.7218 46.5079L26.5248 47.023H15.8574L15.9941 46.1037C16.9517 39.6643 21.5783 34.1888 27.756 32.1446L28.8197 31.7926ZM15.3986 48.6186C13.8033 48.6186 12.5023 49.9121 12.5023 51.5092C12.5023 53.1071 13.8018 54.4043 15.3986 54.4043H50.8692C52.4654 54.4043 53.7609 53.1055 53.7609 51.5092C53.7609 49.9135 52.4635 48.6186 50.8692 48.6186H15.3986Z" fill="#4C699D"/>
</g>
</svg>
