<svg width="312" height="101" viewBox="0 0 312 101" fill="none" xmlns="http://www.w3.org/2000/svg">
<path d="M98.7816 72.1469H85.2841V70.5099C85.6507 70.4792 86.1778 70.4331 86.8653 70.3716C87.568 70.3101 88.0493 70.2179 88.309 70.0949C88.7673 69.9104 89.1034 69.6338 89.3173 69.2649C89.5312 68.8806 89.6381 68.3888 89.6381 67.7893V41.5054H74.6739V67.5357C74.6739 68.0737 74.7579 68.5271 74.926 68.896C75.1093 69.2649 75.4607 69.5877 75.9801 69.8643C76.2398 70.0027 76.6982 70.141 77.3551 70.2793C78.0273 70.4177 78.5544 70.4945 78.9363 70.5099V72.1469H65.4387V70.5099C65.8054 70.4792 66.3324 70.4331 67.0199 70.3716C67.7227 70.3101 68.2039 70.2179 68.4636 70.0949C68.922 69.9104 69.2581 69.6338 69.472 69.2649C69.6858 68.8806 69.7928 68.3888 69.7928 67.7893V44.1799C69.7928 43.6881 69.6935 43.2423 69.4949 42.8427C69.2963 42.4277 68.9525 42.1049 68.4636 41.8743C68.0512 41.6745 67.547 41.4977 66.9512 41.344C66.3706 41.1903 65.8665 41.0981 65.4387 41.0674V39.4304H98.7816V41.0674C98.3539 41.0827 97.8268 41.1519 97.2004 41.2749C96.5893 41.3978 96.131 41.5131 95.8255 41.6207C95.306 41.8052 94.9546 42.1126 94.7713 42.543C94.6033 42.9733 94.5192 43.4421 94.5192 43.9494V67.5357C94.5192 68.0737 94.6033 68.5271 94.7713 68.896C94.9546 69.2649 95.306 69.5877 95.8255 69.8643C96.0852 70.0027 96.5435 70.141 97.2004 70.2793C97.8726 70.4177 98.3997 70.4945 98.7816 70.5099V72.1469Z" fill="white"/>
<path d="M128.275 47.5C128.275 49.2061 127.939 50.7202 127.266 52.042C126.609 53.3485 125.693 54.4322 124.516 55.2929C123.355 56.1537 122.08 56.7839 120.689 57.1835C119.299 57.5832 117.825 57.783 116.267 57.783H112.623V67.6971C112.623 68.235 112.707 68.7115 112.875 69.1265C113.058 69.5262 113.425 69.8336 113.975 70.0488C114.25 70.1564 114.731 70.2563 115.419 70.3485C116.121 70.4407 116.763 70.4945 117.344 70.5099V72.1469H103.388V70.5099C103.754 70.4792 104.281 70.4254 104.969 70.3485C105.672 70.2717 106.161 70.1717 106.436 70.0488C106.894 69.849 107.222 69.5569 107.421 69.1727C107.635 68.7884 107.742 68.2965 107.742 67.6971V44.0877C107.742 43.5497 107.665 43.0656 107.513 42.6352C107.36 42.2048 107.001 41.882 106.436 41.6668C105.855 41.467 105.275 41.3287 104.694 41.2518C104.129 41.1596 103.64 41.0981 103.227 41.0674V39.4304H118.077C121.102 39.4304 123.554 40.1682 125.433 41.6438C127.327 43.104 128.275 45.0561 128.275 47.5ZM121.308 53.0796C121.828 52.3418 122.171 51.5809 122.339 50.797C122.507 49.9977 122.591 49.283 122.591 48.6528C122.591 47.7767 122.485 46.8852 122.271 45.9783C122.072 45.0714 121.721 44.2798 121.216 43.6035C120.682 42.8811 119.979 42.3201 119.108 41.9204C118.237 41.5208 117.153 41.321 115.854 41.321H112.623V55.7771H114.96C116.61 55.7771 117.947 55.5235 118.971 55.0163C120.01 54.4937 120.789 53.8481 121.308 53.0796Z" fill="white"/>
<path d="M158.295 43.3038C159.731 44.8101 160.854 46.6316 161.663 48.7681C162.473 50.8892 162.878 53.2409 162.878 55.8232C162.878 58.4209 162.465 60.7803 161.64 62.9014C160.815 65.0226 159.67 66.8286 158.203 68.3196C156.782 69.7952 155.132 70.9326 153.253 71.7319C151.374 72.5311 149.373 72.9308 147.249 72.9308C144.988 72.9308 142.895 72.5081 140.97 71.6627C139.06 70.8019 137.418 69.6107 136.043 68.089C134.668 66.5981 133.584 64.792 132.789 62.6709C132.01 60.5343 131.62 58.2518 131.62 55.8232C131.62 53.1641 132.033 50.797 132.858 48.722C133.683 46.6316 134.821 44.8255 136.272 43.3038C137.708 41.7975 139.374 40.6447 141.268 39.8454C143.178 39.0461 145.171 38.6465 147.249 38.6465C149.403 38.6465 151.435 39.0538 153.345 39.8685C155.255 40.6831 156.904 41.8282 158.295 43.3038ZM154.88 66.4982C155.736 65.0994 156.354 63.5162 156.736 61.7486C157.134 59.981 157.332 58.0059 157.332 55.8232C157.332 53.5791 157.111 51.5194 156.668 49.6442C156.24 47.769 155.606 46.1704 154.766 44.8486C153.925 43.542 152.871 42.5276 151.603 41.8052C150.335 41.0674 148.884 40.6985 147.249 40.6985C145.416 40.6985 143.858 41.1212 142.574 41.9666C141.291 42.8119 140.244 43.9417 139.435 45.3558C138.671 46.7084 138.098 48.2916 137.716 50.1053C137.349 51.9191 137.166 53.825 137.166 55.8232C137.166 58.0366 137.365 60.0348 137.762 61.8178C138.159 63.6008 138.785 65.184 139.641 66.5673C140.466 67.9199 141.505 68.9805 142.758 69.7491C144.01 70.5022 145.508 70.8788 147.249 70.8788C148.884 70.8788 150.358 70.4945 151.672 69.726C152.986 68.9575 154.055 67.8815 154.88 66.4982Z" fill="white"/>
<path d="M191.729 48.5836H190.011C189.858 47.9842 189.652 47.3463 189.392 46.67C189.132 45.9937 188.743 45.2251 188.223 44.3644C187.734 43.5651 187.23 42.9042 186.711 42.3816C186.207 41.859 185.618 41.5515 184.946 41.4593C184.427 41.3825 183.785 41.3287 183.021 41.2979C182.273 41.2672 181.555 41.2518 180.867 41.2518H176.192V67.4896C176.192 68.0122 176.314 68.4733 176.559 68.8729C176.803 69.2572 177.17 69.5723 177.659 69.8182C177.964 69.9566 178.514 70.1026 179.309 70.2563C180.118 70.41 180.775 70.4945 181.28 70.5099V72.1469H166.682V70.5099C167.14 70.4792 167.751 70.4331 168.515 70.3716C169.279 70.2947 169.776 70.2025 170.005 70.0949C170.463 69.8951 170.792 69.603 170.99 69.2188C171.204 68.8191 171.311 68.3426 171.311 67.7893V44.1799C171.311 43.6727 171.227 43.2269 171.059 42.8427C170.891 42.443 170.54 42.1203 170.005 41.8743C169.592 41.6745 169.035 41.4977 168.332 41.344C167.644 41.1903 167.094 41.0981 166.682 41.0674V39.4304H191.729V48.5836Z" fill="white"/>
<path d="M219.252 47.5C219.252 49.2061 218.915 50.7202 218.243 52.042C217.586 53.3485 216.67 54.4322 215.493 55.2929C214.332 56.1537 213.057 56.7839 211.666 57.1835C210.276 57.5832 208.802 57.783 207.243 57.783H203.6V67.6971C203.6 68.235 203.684 68.7115 203.852 69.1265C204.035 69.5262 204.402 69.8336 204.952 70.0488C205.227 70.1564 205.708 70.2563 206.396 70.3485C207.098 70.4407 207.74 70.4945 208.321 70.5099V72.1469H194.365V70.5099C194.731 70.4792 195.258 70.4254 195.946 70.3485C196.649 70.2717 197.137 70.1717 197.412 70.0488C197.871 69.849 198.199 69.5569 198.398 69.1727C198.612 68.7884 198.719 68.2965 198.719 67.6971V44.0877C198.719 43.5497 198.642 43.0656 198.49 42.6352C198.337 42.2048 197.978 41.882 197.412 41.6668C196.832 41.467 196.251 41.3287 195.671 41.2518C195.106 41.1596 194.617 41.0981 194.204 41.0674V39.4304H209.054C212.079 39.4304 214.531 40.1682 216.41 41.6438C218.304 43.104 219.252 45.0561 219.252 47.5ZM212.285 53.0796C212.804 52.3418 213.148 51.5809 213.316 50.797C213.484 49.9977 213.568 49.283 213.568 48.6528C213.568 47.7767 213.461 46.8852 213.247 45.9783C213.049 45.0714 212.698 44.2798 212.193 43.6035C211.659 42.8811 210.956 42.3201 210.085 41.9204C209.214 41.5208 208.13 41.321 206.831 41.321H203.6V55.7771H205.937C207.587 55.7771 208.924 55.5235 209.948 55.0163C210.986 54.4937 211.766 53.8481 212.285 53.0796Z" fill="white"/>
<path d="M250.349 62.5095L249.73 72.1469H222.735V70.5099C223.193 70.4792 223.804 70.4177 224.568 70.3255C225.332 70.2179 225.828 70.1103 226.058 70.0027C226.546 69.7721 226.883 69.4724 227.066 69.1035C227.265 68.7346 227.364 68.2658 227.364 67.6971V44.1799C227.364 43.6727 227.28 43.2269 227.112 42.8427C226.944 42.443 226.592 42.1203 226.058 41.8743C225.645 41.6745 225.087 41.4977 224.385 41.344C223.697 41.1903 223.147 41.0981 222.735 41.0674V39.4304H247.897V47.3155H246.178C245.872 46.1474 245.208 44.91 244.184 43.6035C243.176 42.2817 242.213 41.5592 241.297 41.4363C240.823 41.3748 240.258 41.3287 239.601 41.2979C238.944 41.2672 238.195 41.2518 237.355 41.2518H232.245V54.2554H235.912C237.088 54.2554 237.943 54.1478 238.478 53.9326C239.028 53.7021 239.509 53.3255 239.922 52.8029C240.258 52.3571 240.541 51.7654 240.77 51.0276C241.014 50.2744 241.175 49.5674 241.251 48.9064H242.97V61.7025H241.251C241.19 60.9647 241.022 60.1885 240.747 59.3738C240.487 58.5438 240.212 57.9444 239.922 57.5755C239.448 56.976 238.906 56.5841 238.295 56.3996C237.699 56.2152 236.905 56.1229 235.912 56.1229H232.245V65.9448C232.245 66.9285 232.314 67.7048 232.451 68.2735C232.589 68.8422 232.856 69.2726 233.253 69.5646C233.65 69.8566 234.193 70.0488 234.88 70.141C235.568 70.2179 236.546 70.2563 237.814 70.2563C238.318 70.2563 238.982 70.2563 239.807 70.2563C240.632 70.2563 241.327 70.2255 241.893 70.1641C242.473 70.1026 243.069 69.995 243.68 69.8413C244.306 69.6722 244.749 69.4493 245.009 69.1727C245.712 68.4349 246.445 67.3205 247.209 65.8295C247.988 64.3232 248.485 63.2165 248.699 62.5095H250.349Z" fill="white"/>
<path d="M267.994 72.9077C266.054 72.9077 264.19 72.5235 262.403 71.7549C260.63 70.9864 259.057 69.8797 257.682 68.4349C256.322 66.99 255.237 65.2301 254.428 63.155C253.618 61.0646 253.213 58.7129 253.213 56.0999C253.213 53.4869 253.61 51.1198 254.405 48.9986C255.199 46.8621 256.299 45.0253 257.705 43.4882C259.095 41.9666 260.737 40.7907 262.632 39.9607C264.526 39.1307 266.55 38.7157 268.704 38.7157C270.309 38.7157 271.76 38.9155 273.059 39.3151C274.357 39.7147 275.595 40.2758 276.771 40.9982L277.71 39.4304H279.544L279.75 51.0967H277.871C277.626 49.9593 277.26 48.7297 276.771 47.4078C276.282 46.0705 275.709 44.9408 275.052 44.0185C274.319 42.9733 273.448 42.1587 272.44 41.5746C271.431 40.9751 270.278 40.6754 268.979 40.6754C267.498 40.6754 266.115 41.0059 264.832 41.6668C263.564 42.3278 262.464 43.3038 261.532 44.5949C260.646 45.84 259.95 47.4231 259.446 49.3445C258.942 51.2658 258.69 53.41 258.69 55.7771C258.69 57.8675 258.95 59.7889 259.469 61.5411C260.004 63.278 260.76 64.8074 261.738 66.1293C262.716 67.4358 263.869 68.4579 265.198 69.1957C266.543 69.9335 268.04 70.3024 269.69 70.3024C270.927 70.3024 272.065 70.1103 273.104 69.726C274.143 69.3264 275.045 68.8038 275.808 68.1582C276.572 67.4819 277.244 66.7133 277.825 65.8526C278.406 64.9918 278.879 64.0542 279.246 63.0398L280.965 63.8698C279.651 67.113 277.909 69.434 275.74 70.8327C273.57 72.216 270.988 72.9077 267.994 72.9077Z" fill="white"/>
<path d="M298.152 72.9077C296.211 72.9077 294.348 72.5235 292.56 71.7549C290.788 70.9864 289.214 69.8797 287.839 68.4349C286.48 66.99 285.395 65.2301 284.585 63.155C283.776 61.0646 283.371 58.7129 283.371 56.0999C283.371 53.4869 283.768 51.1198 284.562 48.9986C285.357 46.8621 286.457 45.0253 287.862 43.4882C289.253 41.9666 290.895 40.7907 292.789 39.9607C294.684 39.1307 296.708 38.7157 298.862 38.7157C300.466 38.7157 301.917 38.9155 303.216 39.3151C304.515 39.7147 305.752 40.2758 306.928 40.9982L307.868 39.4304H309.701L309.908 51.0967H308.028C307.784 49.9593 307.417 48.7297 306.928 47.4078C306.44 46.0705 305.867 44.9408 305.21 44.0185C304.476 42.9733 303.606 42.1587 302.597 41.5746C301.589 40.9751 300.436 40.6754 299.137 40.6754C297.655 40.6754 296.272 41.0059 294.989 41.6668C293.721 42.3278 292.621 43.3038 291.689 44.5949C290.803 45.84 290.108 47.4231 289.604 49.3445C289.1 51.2658 288.848 53.41 288.848 55.7771C288.848 57.8675 289.107 59.7889 289.627 61.5411C290.162 63.278 290.918 64.8074 291.896 66.1293C292.873 67.4358 294.027 68.4579 295.356 69.1957C296.7 69.9335 298.197 70.3024 299.847 70.3024C301.085 70.3024 302.223 70.1103 303.262 69.726C304.301 69.3264 305.202 68.8038 305.966 68.1582C306.73 67.4819 307.402 66.7133 307.983 65.8526C308.563 64.9918 309.037 64.0542 309.403 63.0398L311.122 63.8698C309.808 67.113 308.067 69.434 305.897 70.8327C303.728 72.216 301.146 72.9077 298.152 72.9077Z" fill="white"/>
<path d="M226.325 81.77C226.19 81.5204 225.994 81.2501 225.736 80.959C225.488 80.6574 225.183 80.4079 224.821 80.2104C224.542 80.0648 224.216 79.9452 223.844 79.8517C223.483 79.7477 223.157 79.6853 222.868 79.6645V78.5572H232.138V79.6645C231.487 79.6957 230.872 79.7685 230.293 79.8829C229.714 79.9972 229.425 80.1844 229.425 80.4443C229.425 80.5587 229.466 80.7094 229.549 80.8966C229.632 81.0837 229.694 81.2137 229.735 81.2865C230.148 82.0871 230.794 83.3555 231.673 85.0919C232.561 86.8282 233.786 89.1728 235.346 92.1256C235.935 90.8468 236.576 89.4067 237.268 87.8056C237.961 86.2044 238.514 84.8995 238.927 83.891C239.361 82.7993 239.625 82.0767 239.718 81.7232C239.811 81.3593 239.857 81.0941 239.857 80.9278C239.857 80.7198 239.759 80.5431 239.563 80.3975C239.366 80.2416 239.113 80.1116 238.803 80.0076C238.493 79.914 238.173 79.8413 237.842 79.7893C237.511 79.7373 237.165 79.6957 236.803 79.6645V78.5572H245.019V79.6645C244.75 79.6749 244.409 79.7373 243.996 79.8517C243.593 79.966 243.247 80.1064 242.957 80.2728C242.606 80.4807 242.322 80.7406 242.105 81.0525C241.898 81.3541 241.666 81.77 241.407 82.3002C240.601 83.9326 239.609 86.0744 238.431 88.7257C237.263 91.377 236.364 93.3473 235.734 94.6366C235.103 95.9258 234.494 96.9915 233.905 97.8337C233.316 98.6759 232.721 99.3309 232.122 99.7988C231.512 100.287 230.949 100.61 230.432 100.766C229.926 100.922 229.373 101 228.774 101C227.947 101 227.25 100.771 226.681 100.313C226.113 99.856 225.829 99.3205 225.829 98.7071C225.829 98.1872 225.984 97.7349 226.294 97.3502C226.614 96.9655 227.022 96.7732 227.518 96.7732C227.88 96.7732 228.195 96.8564 228.464 97.0227C228.743 97.1891 228.97 97.3866 229.146 97.6154C229.322 97.8337 229.497 98.104 229.673 98.4264C229.849 98.7383 229.993 98.9826 230.107 99.1594C230.882 98.941 231.528 98.5199 232.045 97.8961C232.561 97.2619 233.068 96.5029 233.564 95.6191C232.251 93.0718 230.83 90.3373 229.301 87.4157C227.782 84.494 226.79 82.6121 226.325 81.77Z" fill="white"/>
<path d="M268.348 100.688H259.218V99.5805C259.466 99.5597 259.823 99.5285 260.288 99.4869C260.763 99.4453 261.089 99.3829 261.264 99.2997C261.574 99.175 261.802 98.9878 261.946 98.7383C262.091 98.4783 262.163 98.1456 262.163 97.7401V79.9608H252.041V97.5686C252.041 97.9325 252.098 98.2392 252.212 98.4887C252.336 98.7383 252.573 98.9566 252.925 99.1438C253.1 99.2373 253.41 99.3309 253.855 99.4245C254.309 99.5181 254.666 99.5701 254.924 99.5805V100.688H245.794V99.5805C246.042 99.5597 246.399 99.5285 246.864 99.4869C247.339 99.4453 247.665 99.3829 247.84 99.2997C248.15 99.175 248.378 98.9878 248.522 98.7383C248.667 98.4783 248.739 98.1456 248.739 97.7401V81.77C248.739 81.4372 248.672 81.1357 248.538 80.8654C248.404 80.5847 248.171 80.3663 247.84 80.2104C247.561 80.0752 247.22 79.9556 246.817 79.8517C246.425 79.7477 246.083 79.6853 245.794 79.6645V78.5572H268.348V79.6645C268.059 79.6749 267.703 79.7217 267.279 79.8049C266.865 79.8881 266.555 79.966 266.349 80.0388C265.997 80.1636 265.76 80.3715 265.636 80.6626C265.522 80.9538 265.465 81.2709 265.465 81.614V97.5686C265.465 97.9325 265.522 98.2392 265.636 98.4887C265.76 98.7383 265.997 98.9566 266.349 99.1438C266.524 99.2373 266.834 99.3309 267.279 99.4245C267.734 99.5181 268.09 99.5701 268.348 99.5805V100.688Z" fill="white"/>
<path d="M289.337 84.5616H288.268C288.174 84.1873 288.004 83.7454 287.756 83.236C287.518 82.7161 287.25 82.2274 286.95 81.77C286.64 81.2917 286.299 80.8758 285.927 80.5223C285.565 80.1584 285.214 79.9504 284.873 79.8984C284.552 79.8569 284.149 79.8257 283.664 79.8049C283.178 79.7841 282.728 79.7737 282.315 79.7737H281.416V97.475C281.416 97.8181 281.488 98.1352 281.633 98.4264C281.778 98.7071 282.031 98.9254 282.393 99.0814C282.579 99.1542 282.966 99.2529 283.555 99.3777C284.155 99.5025 284.62 99.5701 284.95 99.5805V100.688H274.564V99.5805C274.854 99.5597 275.293 99.5181 275.882 99.4557C276.481 99.3933 276.895 99.3153 277.122 99.2217C277.463 99.0866 277.711 98.8942 277.866 98.6447C278.032 98.3848 278.114 98.0417 278.114 97.6154V79.7737H277.215C276.895 79.7737 276.497 79.7841 276.022 79.8049C275.546 79.8153 275.091 79.8465 274.657 79.8984C274.316 79.94 273.96 80.148 273.588 80.5223C273.226 80.8862 272.89 81.3021 272.58 81.77C272.27 82.2378 271.996 82.7369 271.759 83.2672C271.521 83.787 271.356 84.2185 271.263 84.5616H270.178V78.5572H289.337V84.5616Z" fill="white"/>
<path d="M312 100.688H305.939C305.515 99.4817 305.102 98.3848 304.699 97.397C304.296 96.3989 303.882 95.4319 303.459 94.4962C302.766 92.9262 302.064 91.8657 301.351 91.3146C300.648 90.7636 299.697 90.4881 298.498 90.4881H297.367V97.5686C297.367 97.9117 297.429 98.2184 297.553 98.4887C297.687 98.7591 297.925 98.9774 298.266 99.1438C298.431 99.2165 298.736 99.3049 299.18 99.4089C299.635 99.5129 300.012 99.5701 300.312 99.5805V100.688H291.182V99.5805C291.419 99.5597 291.766 99.5285 292.22 99.4869C292.675 99.4453 292.995 99.3829 293.181 99.2997C293.491 99.1646 293.714 98.967 293.848 98.7071C293.993 98.4367 294.065 98.1144 294.065 97.7401V81.77C294.065 81.4164 294.003 81.1097 293.879 80.8498C293.765 80.5899 293.533 80.3767 293.181 80.2104C292.902 80.0752 292.572 79.9556 292.189 79.8517C291.807 79.7477 291.471 79.6853 291.182 79.6645V78.5572H300.312V79.6645C300.023 79.6749 299.661 79.7217 299.227 79.8049C298.793 79.8881 298.472 79.966 298.266 80.0388C297.914 80.1636 297.677 80.3715 297.553 80.6626C297.429 80.9538 297.367 81.2709 297.367 81.614V89.1936H298.808C299.191 89.1936 299.563 89.1104 299.924 88.9441C300.296 88.7777 300.637 88.5334 300.947 88.2111C301.392 87.7536 301.748 87.1973 302.017 86.5423C302.286 85.8769 302.575 85.0763 302.885 84.1405C303.175 83.2776 303.474 82.477 303.784 81.7388C304.094 81.0006 304.549 80.3195 305.148 79.6957C305.551 79.2798 306.027 78.9523 306.574 78.7132C307.122 78.474 307.716 78.3545 308.357 78.3545C308.801 78.3545 309.189 78.4116 309.52 78.526C309.85 78.63 310.129 78.7807 310.357 78.9783C310.563 79.155 310.718 79.363 310.822 79.6021C310.925 79.8413 310.977 80.1012 310.977 80.3819C310.977 80.6107 310.941 80.8342 310.868 81.0525C310.806 81.2709 310.713 81.4528 310.589 81.5984C310.445 81.7752 310.284 81.9155 310.109 82.0195C309.933 82.1131 309.685 82.1599 309.365 82.1599C309.024 82.1599 308.724 82.1027 308.466 81.9883C308.218 81.8739 308.001 81.718 307.815 81.5204C307.629 81.3229 307.458 81.0941 307.303 80.8342C307.158 80.5639 307.019 80.2935 306.884 80.0232C306.595 80.2208 306.347 80.4651 306.14 80.7562C305.944 81.0473 305.768 81.3593 305.613 81.692C305.458 82.0247 305.319 82.3782 305.195 82.7525C305.081 83.1268 304.947 83.5427 304.792 84.0002C304.668 84.3849 304.523 84.8164 304.358 85.2946C304.192 85.7625 304.001 86.1992 303.784 86.6047C303.557 87.0414 303.288 87.478 302.978 87.9147C302.678 88.3514 302.317 88.7621 301.893 89.1468V89.3651C303.04 89.6875 303.991 90.2021 304.745 90.9091C305.51 91.6162 306.151 92.5259 306.667 93.6384C306.957 94.2727 307.272 94.9589 307.613 95.6971C307.964 96.4249 308.254 97.0435 308.481 97.553C308.801 98.2496 309.111 98.7175 309.411 98.9566C309.711 99.1854 310.016 99.3257 310.326 99.3777C310.594 99.4193 310.884 99.4609 311.194 99.5025C311.504 99.5337 311.773 99.5597 312 99.5805V100.688Z" fill="white"/>
<path fill-rule="evenodd" clip-rule="evenodd" d="M56.0788 40.7005V64.8567C42.8184 64.8567 32.0688 54.0415 32.0688 40.7005C32.0688 27.3591 42.8184 16.5439 56.0788 16.5439C69.3388 16.5439 80.0884 27.3591 80.0884 40.7005H56.0788Z" fill="white"/>
<path fill-rule="evenodd" clip-rule="evenodd" d="M56.0785 0V8.16623C38.2194 8.16623 23.7419 22.7324 23.7419 40.7005C23.7419 58.6687 38.2164 73.2346 56.0755 73.2346L56.0785 81.401C33.7366 81.401 15.625 63.1789 15.625 40.7005C15.625 18.2222 33.7366 0 56.0785 0Z" fill="white"/>
<path fill-rule="evenodd" clip-rule="evenodd" d="M56.078 88.8134C56.078 91.5823 56.078 94.3517 56.078 97.1206C25.1071 97.1206 0 71.8602 0 40.7002C2.75262 40.7002 5.5047 40.7002 8.25704 40.7002C8.25704 67.2722 29.6667 88.8134 56.078 88.8134Z" fill="white"/>
</svg>
