<svg width="174" height="56" viewBox="0 0 174 56" fill="none" xmlns="http://www.w3.org/2000/svg">
<g id="&#208;&#155;&#208;&#190;&#208;&#179;&#208;&#190;&#209;&#130;&#208;&#184;&#208;&#191;">
<g id="Vector">
<path d="M55.0902 40.0022H47.5627V39.0946C47.7672 39.0775 48.0611 39.052 48.4445 39.0179C48.8365 38.9838 49.1048 38.9327 49.2497 38.8645C49.5053 38.7622 49.6927 38.6088 49.812 38.4043C49.9313 38.1912 49.9909 37.9185 49.9909 37.5861V23.0129H41.6455V37.4455C41.6455 37.7438 41.6924 37.9952 41.7861 38.1997C41.8883 38.4043 42.0843 38.5832 42.374 38.7366C42.5188 38.8133 42.7744 38.89 43.1408 38.9667C43.5157 39.0434 43.8096 39.0861 44.0226 39.0946V40.0022H36.4951V39.0946C36.6996 39.0775 36.9935 39.052 37.3769 39.0179C37.7689 38.9838 38.0373 38.9327 38.1821 38.8645C38.4377 38.7622 38.6251 38.6088 38.7444 38.4043C38.8637 38.1912 38.9233 37.9185 38.9233 37.5861V24.4958C38.9233 24.2231 38.868 23.9759 38.7572 23.7543C38.6464 23.5242 38.4547 23.3453 38.1821 23.2174C37.9521 23.1066 37.6709 23.0086 37.3386 22.9234C37.0148 22.8382 36.7337 22.7871 36.4951 22.77V21.8624H55.0902V22.77C54.8516 22.7785 54.5577 22.8169 54.2084 22.8851C53.8676 22.9532 53.612 23.0172 53.4416 23.0768C53.1519 23.1791 52.9559 23.3495 52.8537 23.5882C52.76 23.8268 52.7131 24.0867 52.7131 24.3679V37.4455C52.7131 37.7438 52.76 37.9952 52.8537 38.1997C52.9559 38.4043 53.1519 38.5832 53.4416 38.7366C53.5864 38.8133 53.842 38.89 54.2084 38.9667C54.5833 39.0434 54.8772 39.0861 55.0902 39.0946V40.0022Z" fill="#2B2B2A"/>
<path d="M71.5382 26.3366C71.5382 27.2826 71.3508 28.122 70.9759 28.855C70.6095 29.5794 70.0983 30.1802 69.4423 30.6574C68.7948 31.1347 68.0833 31.4841 67.308 31.7057C66.5327 31.9273 65.7105 32.0381 64.8414 32.0381H62.8094V37.535C62.8094 37.8333 62.8563 38.0975 62.95 38.3276C63.0522 38.5491 63.2567 38.7196 63.5634 38.8389C63.7168 38.8986 63.9852 38.954 64.3686 39.0051C64.7605 39.0562 65.1183 39.0861 65.4421 39.0946V40.0022H57.659V39.0946C57.8635 39.0775 58.1574 39.0477 58.5408 39.0051C58.9328 38.9625 59.2054 38.9071 59.3588 38.8389C59.6144 38.7281 59.7976 38.5662 59.9083 38.3531C60.0276 38.1401 60.0872 37.8674 60.0872 37.535V24.4446C60.0872 24.1464 60.0446 23.8779 59.9594 23.6393C59.8742 23.4007 59.674 23.2217 59.3588 23.1024C59.035 22.9916 58.7112 22.9149 58.3875 22.8723C58.0722 22.8211 57.7996 22.7871 57.5695 22.77V21.8624H65.8511C67.538 21.8624 68.9055 22.2714 69.9535 23.0896C71.01 23.8992 71.5382 24.9816 71.5382 26.3366ZM67.6531 29.4302C67.9427 29.0212 68.1345 28.5993 68.2282 28.1647C68.3219 27.7215 68.3688 27.3252 68.3688 26.9758C68.3688 26.49 68.3091 25.9957 68.1898 25.4929C68.0791 24.9901 67.8831 24.5512 67.6019 24.1762C67.3037 23.7756 66.9118 23.4646 66.4262 23.243C65.9405 23.0214 65.3356 22.9106 64.6114 22.9106H62.8094V30.9259H64.113C65.0331 30.9259 65.7787 30.7853 66.3495 30.504C66.9289 30.2143 67.3634 29.8563 67.6531 29.4302Z" fill="#2B2B2A"/>
<path d="M88.2802 24.01C89.0811 24.8452 89.7073 25.8551 90.1589 27.0397C90.6104 28.2158 90.8362 29.5197 90.8362 30.9515C90.8362 32.3917 90.6062 33.6999 90.1461 34.876C89.686 36.0521 89.047 37.0535 88.2291 37.8801C87.4367 38.6983 86.5165 39.3289 85.4686 39.7721C84.4206 40.2153 83.3045 40.4368 82.1202 40.4368C80.8592 40.4368 79.6919 40.2025 78.6184 39.7338C77.5534 39.2565 76.6375 38.596 75.8707 37.7523C75.1039 36.9256 74.499 35.9243 74.0559 34.7482C73.6214 33.5636 73.4041 32.298 73.4041 30.9515C73.4041 29.4771 73.6342 28.1647 74.0942 27.0141C74.5543 25.8551 75.1891 24.8537 75.9985 24.01C76.7994 23.1748 77.7281 22.5356 78.7846 22.0925C79.8496 21.6493 80.9614 21.4277 82.1202 21.4277C83.3215 21.4277 84.4547 21.6536 85.5197 22.1053C86.5847 22.5569 87.5049 23.1919 88.2802 24.01ZM86.376 36.8702C86.8531 36.0947 87.1981 35.2169 87.4111 34.2368C87.6327 33.2568 87.7434 32.1616 87.7434 30.9515C87.7434 29.7072 87.6199 28.5652 87.3728 27.5255C87.1342 26.4858 86.7807 25.5994 86.3121 24.8665C85.8434 24.1421 85.2556 23.5796 84.5484 23.1791C83.8412 22.77 83.0318 22.5655 82.1202 22.5655C81.0978 22.5655 80.2287 22.7998 79.513 23.2686C78.7973 23.7373 78.2137 24.3637 77.7621 25.1477C77.3361 25.8977 77.0166 26.7755 76.8036 27.7812C76.5992 28.7868 76.4969 29.8436 76.4969 30.9515C76.4969 32.1787 76.6077 33.2866 76.8292 34.2752C77.0507 35.2638 77.4 36.1416 77.8772 36.9086C78.3373 37.6586 78.9166 38.2466 79.6153 38.6727C80.3139 39.0903 81.1489 39.2991 82.1202 39.2991C83.0318 39.2991 83.854 39.0861 84.5867 38.6599C85.3195 38.2338 85.9159 37.6373 86.376 36.8702Z" fill="#2B2B2A"/>
<path d="M106.926 26.9374H105.968C105.883 26.6051 105.768 26.2514 105.623 25.8764C105.478 25.5014 105.261 25.0753 104.971 24.5981C104.698 24.1549 104.417 23.7884 104.128 23.4987C103.846 23.2089 103.518 23.0385 103.143 22.9873C102.854 22.9447 102.496 22.9149 102.07 22.8978C101.652 22.8808 101.252 22.8723 100.869 22.8723H98.2615V37.4199C98.2615 37.7097 98.3296 37.9654 98.466 38.1869C98.6023 38.4 98.8068 38.5747 99.0794 38.7111C99.2498 38.7878 99.5565 38.8687 99.9996 38.954C100.451 39.0392 100.817 39.0861 101.099 39.0946V40.0022H92.9577V39.0946C93.2133 39.0775 93.5541 39.052 93.9801 39.0179C94.4061 38.9753 94.683 38.9241 94.8108 38.8645C95.0664 38.7537 95.2496 38.5918 95.3604 38.3787C95.4797 38.1571 95.5393 37.8929 95.5393 37.5861V24.4958C95.5393 24.2145 95.4924 23.9674 95.3987 23.7543C95.305 23.5328 95.109 23.3538 94.8108 23.2174C94.5808 23.1066 94.2698 23.0086 93.8779 22.9234C93.4945 22.8382 93.1878 22.7871 92.9577 22.77V21.8624H106.926V26.9374Z" fill="#2B2B2A"/>
<path d="M122.275 26.3366C122.275 27.2826 122.088 28.122 121.713 28.855C121.347 29.5794 120.835 30.1802 120.179 30.6574C119.532 31.1347 118.82 31.4841 118.045 31.7057C117.27 31.9273 116.448 32.0381 115.579 32.0381H113.547V37.535C113.547 37.8333 113.593 38.0975 113.687 38.3276C113.789 38.5491 113.994 38.7196 114.301 38.8389C114.454 38.8986 114.722 38.954 115.106 39.0051C115.498 39.0562 115.855 39.0861 116.179 39.0946V40.0022H108.396V39.0946C108.601 39.0775 108.895 39.0477 109.278 39.0051C109.67 38.9625 109.943 38.9071 110.096 38.8389C110.351 38.7281 110.535 38.5662 110.645 38.3531C110.765 38.1401 110.824 37.8674 110.824 37.535V24.4446C110.824 24.1464 110.782 23.8779 110.697 23.6393C110.611 23.4007 110.411 23.2217 110.096 23.1024C109.772 22.9916 109.448 22.9149 109.125 22.8723C108.809 22.8211 108.537 22.7871 108.307 22.77V21.8624H116.588C118.275 21.8624 119.643 22.2714 120.691 23.0896C121.747 23.8992 122.275 24.9816 122.275 26.3366ZM118.39 29.4302C118.68 29.0212 118.872 28.5993 118.965 28.1647C119.059 27.7215 119.106 27.3252 119.106 26.9758C119.106 26.49 119.046 25.9957 118.927 25.4929C118.816 24.9901 118.62 24.5512 118.339 24.1762C118.041 23.7756 117.649 23.4646 117.163 23.243C116.678 23.0214 116.073 22.9106 115.349 22.9106H113.547V30.9259H114.85C115.77 30.9259 116.516 30.7853 117.087 30.504C117.666 30.2143 118.1 29.8563 118.39 29.4302Z" fill="#2B2B2A"/>
<path d="M139.618 34.6587L139.273 40.0022H124.218V39.0946C124.474 39.0775 124.814 39.0434 125.24 38.9923C125.666 38.9327 125.943 38.873 126.071 38.8133C126.344 38.6855 126.531 38.5193 126.633 38.3148C126.744 38.1102 126.799 37.8503 126.799 37.535V24.4958C126.799 24.2145 126.753 23.9674 126.659 23.7543C126.565 23.5328 126.369 23.3538 126.071 23.2174C125.841 23.1066 125.53 23.0086 125.138 22.9234C124.755 22.8382 124.448 22.7871 124.218 22.77V21.8624H138.251V26.2343H137.292C137.122 25.5866 136.751 24.9006 136.18 24.1762C135.618 23.4433 135.081 23.0427 134.57 22.9745C134.306 22.9405 133.99 22.9149 133.624 22.8978C133.258 22.8808 132.84 22.8723 132.372 22.8723H129.522V30.0822H131.566C132.223 30.0822 132.7 30.0225 132.998 29.9032C133.305 29.7754 133.573 29.5666 133.803 29.2768C133.99 29.0297 134.148 28.7016 134.276 28.2925C134.412 27.8749 134.502 27.4829 134.544 27.1164H135.503V34.2113H134.544C134.51 33.8022 134.416 33.3718 134.263 32.9201C134.118 32.4599 133.965 32.1276 133.803 31.923C133.539 31.5906 133.236 31.3733 132.896 31.2711C132.563 31.1688 132.12 31.1177 131.566 31.1177H129.522V36.5634C129.522 37.1089 129.56 37.5392 129.637 37.8546C129.713 38.1699 129.862 38.4085 130.084 38.5705C130.306 38.7324 130.608 38.8389 130.991 38.89C131.375 38.9327 131.92 38.954 132.627 38.954C132.908 38.954 133.279 38.954 133.739 38.954C134.199 38.954 134.587 38.9369 134.902 38.9028C135.226 38.8687 135.558 38.8091 135.899 38.7239C136.248 38.6301 136.495 38.5065 136.64 38.3531C137.032 37.9441 137.441 37.3262 137.867 36.4995C138.302 35.6643 138.579 35.0507 138.698 34.6587H139.618Z" fill="#2B2B2A"/>
<path d="M149.459 40.4241C148.377 40.4241 147.337 40.211 146.34 39.7849C145.352 39.3588 144.474 38.7452 143.708 37.9441C142.949 37.143 142.344 36.1671 141.893 35.0166C141.441 33.8576 141.215 32.5537 141.215 31.1049C141.215 29.6561 141.437 28.3436 141.88 27.1675C142.323 25.9829 142.937 24.9645 143.72 24.1123C144.496 23.2686 145.412 22.6166 146.468 22.1564C147.525 21.6962 148.654 21.4661 149.855 21.4661C150.749 21.4661 151.559 21.5769 152.283 21.7985C153.007 22.02 153.697 22.3311 154.353 22.7317L154.877 21.8624H155.9L156.015 28.3308H154.967C154.831 27.7002 154.626 27.0184 154.353 26.2855C154.081 25.544 153.761 24.9176 153.395 24.4063C152.986 23.8268 152.5 23.3751 151.938 23.0512C151.376 22.7189 150.732 22.5527 150.008 22.5527C149.182 22.5527 148.411 22.7359 147.695 23.1024C146.988 23.4688 146.374 24.01 145.855 24.7259C145.361 25.4162 144.973 26.294 144.692 27.3593C144.411 28.4246 144.27 29.6135 144.27 30.9259C144.27 32.0849 144.415 33.1502 144.704 34.1218C145.003 35.0848 145.424 35.9328 145.97 36.6657C146.515 37.3901 147.158 37.9568 147.899 38.3659C148.649 38.775 149.484 38.9795 150.404 38.9795C151.095 38.9795 151.729 38.873 152.309 38.6599C152.888 38.4384 153.391 38.1486 153.817 37.7907C154.243 37.4157 154.618 36.9896 154.941 36.5123C155.265 36.0351 155.529 35.5152 155.734 34.9527L156.692 35.4129C155.959 37.2111 154.988 38.498 153.778 39.2735C152.568 40.0406 151.129 40.4241 149.459 40.4241Z" fill="#2B2B2A"/>
<path d="M166.277 40.4241C165.195 40.4241 164.156 40.211 163.159 39.7849C162.171 39.3588 161.293 38.7452 160.526 37.9441C159.768 37.143 159.163 36.1671 158.711 35.0166C158.26 33.8576 158.034 32.5537 158.034 31.1049C158.034 29.6561 158.256 28.3436 158.699 27.1675C159.142 25.9829 159.755 24.9645 160.539 24.1123C161.314 23.2686 162.23 22.6166 163.287 22.1564C164.343 21.6962 165.472 21.4661 166.673 21.4661C167.568 21.4661 168.378 21.5769 169.102 21.7985C169.826 22.02 170.516 22.3311 171.172 22.7317L171.696 21.8624H172.718L172.834 28.3308H171.786C171.649 27.7002 171.445 27.0184 171.172 26.2855C170.899 25.544 170.58 24.9176 170.214 24.4063C169.805 23.8268 169.319 23.3751 168.757 23.0512C168.194 22.7189 167.551 22.5527 166.827 22.5527C166 22.5527 165.229 22.7359 164.514 23.1024C163.806 23.4688 163.193 24.01 162.673 24.7259C162.179 25.4162 161.791 26.294 161.51 27.3593C161.229 28.4246 161.089 29.6135 161.089 30.9259C161.089 32.0849 161.233 33.1502 161.523 34.1218C161.821 35.0848 162.243 35.9328 162.788 36.6657C163.334 37.3901 163.977 37.9568 164.718 38.3659C165.468 38.775 166.303 38.9795 167.223 38.9795C167.913 38.9795 168.548 38.873 169.127 38.6599C169.707 38.4384 170.209 38.1486 170.635 37.7907C171.061 37.4157 171.436 36.9896 171.76 36.5123C172.084 36.0351 172.348 35.5152 172.552 34.9527L173.511 35.4129C172.778 37.2111 171.807 38.498 170.597 39.2735C169.387 40.0406 167.947 40.4241 166.277 40.4241Z" fill="#2B2B2A"/>
<path d="M126.22 45.3378C126.145 45.1994 126.036 45.0495 125.891 44.8881C125.753 44.7209 125.583 44.5826 125.381 44.4731C125.226 44.3923 125.044 44.326 124.837 44.2742C124.635 44.2165 124.453 44.1819 124.292 44.1704V43.5564H129.462V44.1704C129.099 44.1877 128.756 44.228 128.433 44.2915C128.11 44.3549 127.949 44.4586 127.949 44.6028C127.949 44.6662 127.972 44.7498 128.018 44.8535C128.064 44.9573 128.099 45.0294 128.122 45.0697C128.352 45.5136 128.713 46.2169 129.202 47.1796C129.698 48.1424 130.381 49.4423 131.251 51.0795C131.58 50.3705 131.937 49.572 132.323 48.6842C132.709 47.7965 133.018 47.073 133.248 46.5138C133.49 45.9085 133.637 45.5078 133.689 45.3118C133.741 45.1101 133.767 44.9631 133.767 44.8708C133.767 44.7555 133.712 44.6575 133.603 44.5768C133.493 44.4903 133.352 44.4183 133.179 44.3606C133.006 44.3088 132.828 44.2684 132.643 44.2396C132.459 44.2108 132.266 44.1877 132.064 44.1704V43.5564H136.646V44.1704C136.496 44.1762 136.306 44.2108 136.075 44.2742C135.85 44.3376 135.657 44.4154 135.496 44.5076C135.3 44.6229 135.141 44.7671 135.02 44.94C134.905 45.1072 134.776 45.3378 134.631 45.6318C134.182 46.5369 133.629 47.7244 132.972 49.1944C132.32 50.6645 131.819 51.7569 131.467 52.4717C131.116 53.1866 130.776 53.7775 130.447 54.2444C130.119 54.7114 129.787 55.0745 129.453 55.334C129.113 55.6049 128.799 55.7836 128.511 55.8701C128.228 55.9566 127.92 55.9998 127.586 55.9998C127.125 55.9998 126.736 55.873 126.419 55.6193C126.102 55.3657 125.943 55.0688 125.943 54.7286C125.943 54.4404 126.03 54.1896 126.203 53.9763C126.381 53.763 126.609 53.6564 126.886 53.6564C127.087 53.6564 127.263 53.7025 127.413 53.7948C127.569 53.887 127.695 53.9965 127.793 54.1233C127.891 54.2444 127.989 54.3943 128.087 54.573C128.185 54.7459 128.266 54.8814 128.329 54.9794C128.762 54.8584 129.122 54.6249 129.41 54.279C129.698 53.9273 129.98 53.5065 130.257 53.0165C129.525 51.6041 128.733 50.088 127.88 48.4681C127.033 46.8482 126.479 45.8047 126.22 45.3378Z" fill="#2B2B2A"/>
<path d="M149.656 55.8268H144.564V55.2129C144.703 55.2014 144.902 55.1841 145.161 55.161C145.426 55.138 145.608 55.1034 145.706 55.0572C145.878 54.9881 146.005 54.8843 146.086 54.7459C146.167 54.6018 146.207 54.4174 146.207 54.1925V44.3347H140.562V54.0974C140.562 54.2992 140.594 54.4692 140.657 54.6076C140.726 54.7459 140.859 54.867 141.055 54.9708C141.153 55.0227 141.325 55.0745 141.573 55.1264C141.827 55.1783 142.026 55.2071 142.17 55.2129V55.8268H137.078V55.2129C137.216 55.2014 137.415 55.1841 137.674 55.161C137.94 55.138 138.121 55.1034 138.219 55.0572C138.392 54.9881 138.519 54.8843 138.599 54.7459C138.68 54.6018 138.72 54.4174 138.72 54.1925V45.3378C138.72 45.1533 138.683 44.9861 138.608 44.8362C138.533 44.6806 138.404 44.5595 138.219 44.4731C138.063 44.3981 137.873 44.3318 137.649 44.2742C137.43 44.2165 137.239 44.1819 137.078 44.1704V43.5564H149.656V44.1704C149.495 44.1762 149.296 44.2021 149.06 44.2482C148.829 44.2943 148.656 44.3376 148.541 44.3779C148.345 44.4471 148.213 44.5624 148.143 44.7238C148.08 44.8852 148.048 45.0611 148.048 45.2513V54.0974C148.048 54.2992 148.08 54.4692 148.143 54.6076C148.213 54.7459 148.345 54.867 148.541 54.9708C148.639 55.0227 148.812 55.0745 149.06 55.1264C149.313 55.1783 149.512 55.2071 149.656 55.2129V55.8268Z" fill="#2B2B2A"/>
<path d="M161.362 46.8856H160.765C160.713 46.6781 160.618 46.4331 160.48 46.1506C160.347 45.8624 160.197 45.5914 160.03 45.3378C159.857 45.0726 159.667 44.842 159.46 44.646C159.258 44.4442 159.062 44.3289 158.872 44.3001C158.693 44.277 158.468 44.2598 158.197 44.2482C157.927 44.2367 157.676 44.2309 157.445 44.2309H156.944V54.0455C156.944 54.2358 156.984 54.4116 157.065 54.573C157.146 54.7287 157.287 54.8497 157.489 54.9362C157.592 54.9765 157.808 55.0313 158.137 55.1005C158.471 55.1697 158.731 55.2071 158.915 55.2129V55.8268H153.123V55.2129C153.284 55.2014 153.529 55.1783 153.858 55.1437C154.192 55.1091 154.423 55.0659 154.549 55.014C154.74 54.9391 154.878 54.8324 154.964 54.6941C155.056 54.5499 155.103 54.3597 155.103 54.1233V44.2309H154.601C154.423 44.2309 154.201 44.2367 153.936 44.2482C153.67 44.254 153.417 44.2713 153.175 44.3001C152.985 44.3232 152.786 44.4385 152.578 44.646C152.377 44.8478 152.189 45.0784 152.016 45.3378C151.843 45.5972 151.691 45.8739 151.558 46.1679C151.426 46.4561 151.333 46.6954 151.282 46.8856H150.676V43.5564H161.362V46.8856Z" fill="#2B2B2A"/>
<path d="M174 55.8268H170.62C170.384 55.1581 170.153 54.5499 169.929 54.0023C169.704 53.4489 169.473 52.9127 169.237 52.3939C168.851 51.5234 168.459 50.9354 168.061 50.6299C167.669 50.3243 167.139 50.1716 166.471 50.1716H165.84V54.0974C165.84 54.2876 165.874 54.4577 165.943 54.6076C166.018 54.7575 166.151 54.8785 166.341 54.9708C166.433 55.0111 166.603 55.0601 166.851 55.1178C167.105 55.1754 167.315 55.2071 167.482 55.2129V55.8268H162.39V55.2129C162.523 55.2014 162.716 55.1841 162.969 55.161C163.223 55.138 163.402 55.1034 163.505 55.0572C163.678 54.9823 163.802 54.8728 163.877 54.7286C163.958 54.5788 163.998 54.4001 163.998 54.1925V45.3378C163.998 45.1418 163.964 44.9717 163.894 44.8276C163.831 44.6835 163.701 44.5653 163.505 44.4731C163.35 44.3981 163.165 44.3318 162.952 44.2742C162.739 44.2165 162.552 44.1819 162.39 44.1704V43.5564H167.482V44.1704C167.321 44.1762 167.119 44.2021 166.877 44.2482C166.635 44.2943 166.456 44.3376 166.341 44.3779C166.145 44.4471 166.012 44.5624 165.943 44.7238C165.874 44.8852 165.84 45.0611 165.84 45.2513V49.4538H166.644C166.857 49.4538 167.064 49.4077 167.266 49.3155C167.473 49.2233 167.664 49.0878 167.837 48.9091C168.084 48.6554 168.283 48.347 168.433 47.9838C168.583 47.6149 168.744 47.171 168.917 46.6521C169.079 46.1737 169.246 45.7298 169.419 45.3205C169.591 44.9112 169.845 44.5336 170.179 44.1877C170.404 43.9571 170.669 43.7755 170.975 43.6429C171.28 43.5103 171.612 43.444 171.969 43.444C172.217 43.444 172.433 43.4757 172.617 43.5392C172.802 43.5968 172.957 43.6804 173.084 43.7899C173.199 43.8879 173.286 44.0032 173.343 44.1358C173.401 44.2684 173.43 44.4125 173.43 44.5682C173.43 44.695 173.41 44.8189 173.369 44.94C173.335 45.0611 173.283 45.1619 173.214 45.2427C173.133 45.3407 173.044 45.4185 172.946 45.4761C172.848 45.528 172.709 45.554 172.531 45.554C172.341 45.554 172.173 45.5222 172.029 45.4588C171.891 45.3954 171.77 45.3089 171.666 45.1994C171.563 45.0899 171.467 44.9631 171.381 44.8189C171.3 44.6691 171.222 44.5192 171.148 44.3693C170.986 44.4788 170.848 44.6143 170.733 44.7757C170.623 44.9371 170.525 45.1101 170.439 45.2945C170.352 45.479 170.274 45.675 170.205 45.8825C170.142 46.0901 170.067 46.3207 169.98 46.5743C169.911 46.7876 169.831 47.0269 169.738 47.292C169.646 47.5515 169.54 47.7936 169.419 48.0184C169.292 48.2605 169.142 48.5027 168.969 48.7448C168.802 48.9869 168.6 49.2146 168.364 49.4279V49.549C169.004 49.7277 169.534 50.013 169.955 50.405C170.381 50.7971 170.738 51.3015 171.027 51.9183C171.188 52.27 171.364 52.6504 171.554 53.0597C171.75 53.4633 171.911 53.8063 172.038 54.0888C172.217 54.475 172.39 54.7344 172.557 54.867C172.724 54.9938 172.894 55.0717 173.067 55.1005C173.217 55.1235 173.378 55.1466 173.551 55.1697C173.724 55.187 173.874 55.2014 174 55.2129V55.8268Z" fill="#2B2B2A"/>
</g>
<path id="Vector_2" fill-rule="evenodd" clip-rule="evenodd" d="M31.2751 22.5666V35.9601C23.88 35.9601 17.885 29.9636 17.885 22.5666C17.885 15.1694 23.88 9.17285 31.2751 9.17285C38.6702 9.17285 44.6651 15.1694 44.6651 22.5666H31.2751Z" fill="#2B2B2A"/>
<path id="Vector_3" fill-rule="evenodd" clip-rule="evenodd" d="M31.275 0V4.52781C21.3151 4.52781 13.2411 12.6041 13.2411 22.5666C13.2411 32.5292 21.3134 40.6053 31.2733 40.6053L31.275 45.1333C18.815 45.1333 8.71436 35.0299 8.71436 22.5666C8.71436 10.1034 18.815 0 31.275 0Z" fill="#2B2B2A"/>
<path id="Vector_4" fill-rule="evenodd" clip-rule="evenodd" d="M31.2748 49.243C31.2748 50.7783 31.2748 52.3138 31.2748 53.849C14.0025 53.849 0.000488281 39.8432 0.000488281 22.5664C1.5356 22.5664 3.07042 22.5664 4.60538 22.5664C4.60538 37.2994 16.5454 49.243 31.2748 49.243Z" fill="#2B2B2A"/>
</g>
</svg>
