<svg width="648" height="375" viewBox="0 0 648 375" fill="none" xmlns="http://www.w3.org/2000/svg">
<path fill-rule="evenodd" clip-rule="evenodd" d="M647.547 358.983C648.057 367.811 640.827 374.986 631.985 374.968L609.499 374.922C600.669 374.905 593.584 367.711 592.946 358.904C584.841 247.101 491.153 158.762 376.674 158.531C262.203 158.301 168.335 246.231 159.98 357.987C159.321 366.802 152.206 373.985 143.366 373.97L120.879 373.933C112.046 373.919 104.846 366.732 105.373 357.915C113.844 216.192 232.152 104.041 376.731 104.332C521.303 104.623 639.367 217.237 647.547 358.983Z" fill="#F4F4F4"/>
<path fill-rule="evenodd" clip-rule="evenodd" d="M55.8397 357.793C55.3918 366.625 48.2534 373.791 39.4109 373.773C31.6023 373.758 23.7934 373.742 15.9848 373.726C7.15419 373.708 -0.0278301 366.52 0.354377 357.697C8.76283 163.608 165.684 8.0237 360.84 0.300617C369.664 -0.0485716 376.831 7.15498 376.821 15.9856C376.813 23.6975 376.805 31.409 376.797 39.1206C376.787 47.963 369.598 55.08 360.766 55.4939C196.24 63.2022 64.1386 194.17 55.8397 357.793Z" fill="#F4F4F4"/>
</svg>
