<svg width="320" height="439" viewBox="0 0 320 439" fill="none" xmlns="http://www.w3.org/2000/svg">
<path opacity="0.3" d="M-9.53674e-07 255.689C-9.53674e-07 255.689 19.7747 238.886 45.3333 242.513C72.9167 246.426 76.7406 261.017 104.5 261.168C114.274 261.221 148.492 236.594 167.583 244.861C187.167 253.34 226.667 255.689 226.667 255.689C226.667 255.689 219.917 263.125 230.167 263.125C242.149 263.125 266.775 240.398 285.25 242.513C297.343 243.897 320 258.037 320 258.037V309H-9.53674e-07V255.689Z" fill="#649FCF"/>
<path opacity="0.345889" fill-rule="evenodd" clip-rule="evenodd" d="M193.557 205.612C194.991 190.416 271.92 161.086 286.202 175.48C300.484 189.873 296.869 220.147 266.94 227.065C237.01 233.982 192.123 220.808 193.557 205.612Z" fill="#ABD5FF"/>
<path opacity="0.5" d="M-9.53674e-07 259.52C-9.53674e-07 259.52 24.2747 247.069 49.8333 249.865C77.4167 252.882 79.4073 261.516 107.167 261.632C116.941 261.673 140.75 242.423 166.083 251.374C189.241 259.556 220.167 251.374 220.167 251.374C220.167 251.374 210.906 261.769 231.667 261.632C250.191 261.509 268.275 248.235 286.75 249.865C298.843 250.932 320 259.52 320 259.52V309H-9.53674e-07V259.52Z" fill="#649FCF"/>
<path d="M217.431 234.149C221.31 236.027 224.982 231.055 224.982 231.055C224.317 231.653 223.912 231.469 221.712 230.726C219.512 229.984 217.091 231.036 217.091 231.036C216.222 221.073 206.799 224.33 206.799 224.33C206.72 226.038 207.203 227.725 208.174 229.133C207.586 229.493 206.838 230.046 206.908 230.5C206.986 231.03 208.486 230.7 209.335 230.469C209.456 230.583 209.58 230.692 209.704 230.798C209.584 231.494 209.231 233.296 208.646 234.09C208.646 234.09 210.18 235.043 211.937 232.261C212.962 232.784 214.049 233.174 215.173 233.422C215.173 233.422 211.99 237.436 213.04 238.542C214.089 239.647 214.186 241.967 214.186 241.967C218.531 239.789 217.431 234.149 217.431 234.149Z" fill="#649FCF"/>
<path opacity="0.8" d="M0.414584 268.053C0.414584 268.053 17.5004 252.84 43.026 255.153C70.5736 257.65 77.8048 267.957 105.528 268.053C115.289 268.087 132.596 254.688 151.635 260.064C179.932 268.053 207.23 253.905 207.23 253.905C207.23 253.905 199.563 268.167 220.296 268.053C238.796 267.952 285.985 253.804 304.437 255.153C316.514 256.036 320 260.064 320 260.064V309H0.414584V268.053Z" fill="#649FCF"/>
<path opacity="0.345889" fill-rule="evenodd" clip-rule="evenodd" d="M154.897 277.036C153.112 259.167 66.8785 225.53 51.1104 242.636C35.3423 259.742 50.9973 291.379 84.4917 299.176C117.986 306.973 156.682 294.906 154.897 277.036Z" fill="#ABD5FF"/>
<path d="M72.7346 213.032C67.5396 214.29 64.393 207.302 64.393 207.302C65.0507 208.208 65.5856 208.085 68.4435 207.771C71.3015 207.456 73.9644 209.367 73.9644 209.367C77.6291 197.512 88.1939 203.919 88.1939 203.919C87.8418 206.01 86.815 207.927 85.2706 209.379C85.8883 209.969 86.6501 210.836 86.448 211.369C86.2146 211.979 84.481 211.197 83.513 210.696C83.3368 210.8 83.1596 210.901 82.9797 210.997C82.9427 211.872 82.8986 214.147 83.3993 215.262C83.3993 215.262 81.2918 216.016 79.8893 212.185C78.5032 212.551 77.0759 212.739 75.6421 212.743C75.6421 212.743 78.4423 218.445 76.8904 219.503C75.3385 220.561 74.6027 223.355 74.6027 223.355C69.9127 219.585 72.7346 213.032 72.7346 213.032Z" fill="#9BC7E7"/>
<path fill-rule="evenodd" clip-rule="evenodd" d="M139.775 220.919C140.245 220.459 140.852 220.092 141.413 219.755C144.413 217.934 148.216 217.515 151.526 218.576C154.343 219.479 156.278 221.582 158.105 223.79C158.286 224.009 158.448 224.239 158.616 224.467C158.652 224.516 158.687 224.558 158.72 224.598C158.916 224.631 159.064 224.721 159.079 224.912C159.736 225.345 160.359 225.82 160.961 226.335C162.734 227.852 164.539 229.398 165.41 231.615C164.64 230.577 163.759 229.574 162.869 228.636C162.818 228.582 162.766 228.53 162.714 228.478C162.708 228.472 162.703 228.467 162.698 228.461C162.415 228.18 162.115 227.924 161.796 227.686C161.793 227.684 161.789 227.681 161.786 227.679C161.744 227.647 161.701 227.617 161.659 227.586C161.57 227.523 161.481 227.461 161.39 227.4C161.36 227.379 161.329 227.358 161.299 227.336C160.849 227.012 160.467 226.568 160.026 226.218C159.924 226.139 159.821 226.062 159.715 225.987C159.709 225.982 159.703 225.978 159.697 225.973C159.413 225.771 159.12 225.579 158.821 225.394C158.716 225.385 158.595 225.276 158.457 225.193C158.429 225.178 158.23 225.081 158.143 225.007C157.972 224.906 157.8 224.804 157.629 224.704C157.632 224.703 157.635 224.702 157.637 224.702C157.469 224.607 157.301 224.513 157.135 224.419C157.098 224.398 157.061 224.378 157.024 224.357C156.965 224.325 156.906 224.292 156.847 224.26C156.294 223.956 155.732 223.672 155.163 223.4C154.96 223.304 154.57 223.226 154.41 223.074C154.404 223.068 154.4 223.062 154.395 223.057C153.225 222.572 152.004 222.214 150.744 222.112C150.918 222.16 151.378 222.403 151.483 222.442C151.807 222.561 152.135 222.655 152.466 222.75C153.059 222.922 153.651 223.112 154.22 223.348C155.26 223.78 156.25 224.3 157.224 224.853C157.231 224.855 157.239 224.857 157.246 224.859C157.648 224.997 158.055 225.33 158.418 225.548C157.585 225.653 156.748 225.905 155.919 226.054C155.092 226.203 154.264 226.31 153.427 226.353C152.313 226.409 151.132 226.425 149.984 226.324C148.744 226.329 147.515 226.036 146.351 225.65C144.974 225.193 143.658 224.688 142.494 223.815C141.922 223.387 141.381 222.905 140.906 222.372C140.885 222.349 140.862 222.324 140.837 222.299C140.604 222.158 140.38 222.006 140.167 221.84C139.829 221.576 139.3 221.383 139.775 220.919Z" fill="#9BC7E7"/>
<path fill-rule="evenodd" clip-rule="evenodd" d="M145.221 232.111C145.584 231.29 146.351 230.654 147.105 230.182C150.048 228.341 153.498 227.702 156.907 227.833C158.774 227.906 160.656 228.308 162.43 228.843C163.454 229.152 164.448 229.557 165.339 230.142C165.94 230.537 166.476 231.005 166.967 231.527C167.565 232.163 168.143 232.831 168.656 233.537C168.859 233.815 169.992 235.251 169.525 235.579C169.552 235.616 169.575 235.651 169.593 235.686C171.668 236.67 173.519 238.186 175.26 239.633C176.776 240.892 178.242 242.2 179.571 243.651C181.321 245.562 182.954 247.712 182.954 247.712L182.194 247.603C182.194 247.603 178.096 242.71 174.071 239.544C172.442 238.262 170.781 237.123 168.949 236.142C167.338 235.279 165.597 234.556 163.892 233.936C162.235 233.333 160.558 232.78 158.806 232.487C157.385 232.249 155.937 232.173 154.492 232.163C152.657 232.151 150.836 232.158 149.013 232.408C148.065 232.538 147.125 232.711 146.18 232.859C146.01 232.885 145.831 232.919 145.661 232.933C145.091 232.981 145.024 232.558 145.221 232.111Z" fill="#649FCF"/>
<path fill-rule="evenodd" clip-rule="evenodd" d="M166.298 240.46C165.105 241.207 164.139 242.027 163.336 243.19C162.643 244.193 162.117 245.277 161.646 246.393C160.984 247.962 160.657 249.51 160.806 251.198C160.896 252.206 161.287 253.467 162.07 254.137C162.993 254.927 164.351 255.217 165.356 254.347C165.978 253.809 166.324 252.959 166.579 252.202C166.884 251.297 166.999 250.367 166.984 249.422C166.959 247.882 166.565 246.37 166.408 244.843C166.333 244.118 166.246 243.395 166.243 242.664C166.241 242.302 166.251 241.936 166.374 241.589C166.44 241.403 166.88 240.878 166.523 240.778C169.644 238.881 173.875 239.543 176.31 242.114C176.537 242.354 176.753 242.603 176.972 242.851C177.11 243.007 177.5 243.657 177.726 243.671C178.223 243.701 177.612 243.046 177.53 242.947C177.318 242.694 177.104 242.442 176.888 242.191C175.713 240.83 174.167 239.85 172.376 239.475C170.329 239.047 168.105 239.33 166.298 240.46Z" fill="white"/>
<path d="M97.0987 268.515C92.2358 266.296 94.0752 258.857 94.0752 258.857C94.0332 259.976 94.5295 260.21 96.972 261.727C99.4144 263.244 100.329 266.391 100.329 266.391C110.532 259.329 114.886 270.892 114.886 270.892C113.318 272.319 111.326 273.193 109.215 273.382C109.337 274.227 109.401 275.379 108.913 275.674C108.352 276.01 107.472 274.324 107.02 273.332C106.817 273.305 106.615 273.276 106.414 273.24C105.845 273.905 104.406 275.667 104.111 276.854C104.111 276.854 101.988 276.146 103.25 272.266C101.933 271.699 100.695 270.965 99.5641 270.083C99.5641 270.083 98.2459 276.297 96.3721 276.171C94.4983 276.045 92.1944 277.788 92.1944 277.788C90.8327 271.927 97.0987 268.515 97.0987 268.515Z" fill="white"/>
<path d="M60.7171 254.513C60.7171 254.513 60.553 251.701 66.9637 251.783C66.9637 251.783 67.2337 253.576 65.1401 254.722C63.0466 255.869 61.9413 255.286 60.7171 254.513Z" fill="#649FCF"/>
<path d="M60.3272 254.546C60.3272 254.546 57.7821 255.755 60.9426 261.336C60.9426 261.336 62.637 260.714 62.641 258.323C62.645 255.932 61.595 255.247 60.3272 254.546Z" fill="#649FCF"/>
<path d="M56.2453 251.069C56.2453 251.069 55.2717 246.534 61.76 246.146C61.76 246.146 62.7713 250.232 57.5265 252.019L56.2453 251.069Z" fill="#649FCF"/>
<path d="M51.2952 246.471C51.2952 246.471 51.4829 241.16 58.1088 241.843C58.1088 241.843 58.7345 246.33 52.5062 247.563L51.2952 246.471Z" fill="#649FCF"/>
<path d="M47.4815 241.536C47.4815 241.536 48.2792 236.269 54.8466 236.943C54.8466 236.943 53.9412 241.694 48.0356 242.409L47.4815 241.536Z" fill="#649FCF"/>
<path d="M43.8385 236.714C43.8385 236.714 44.5791 231.271 50.932 232.025C50.932 232.025 49.5494 237.286 44.362 237.554L43.8385 236.714Z" fill="#649FCF"/>
<path d="M41.2706 232.002C41.2706 232.002 41.5246 225.429 47.4398 226.086C47.4398 226.086 46.5578 232.149 41.8179 232.88L41.2706 232.002Z" fill="#649FCF"/>
<path d="M38.683 226.248C38.683 226.248 39.1484 219.598 45.1911 220.705C45.1911 220.705 43.7359 227.124 39.2065 227.087L38.683 226.248Z" fill="#649FCF"/>
<path d="M36.8384 220.814C36.8384 220.814 38.0854 214.061 42.582 213.636C42.582 213.636 41.3354 220.759 37.378 222.061L36.8384 220.814Z" fill="#649FCF"/>
<path d="M35.4143 215.471C35.4143 215.471 36.6701 207.373 40.3981 207.487C40.3981 207.487 39.6064 213.659 35.708 216.658L35.4143 215.471Z" fill="#649FCF"/>
<path d="M34.1414 209.014C34.1414 209.014 35.427 202.236 38.9972 201.502C38.9972 201.502 38.3864 208.085 34.4516 210.698L34.1414 209.014Z" fill="#649FCF"/>
<path d="M32.9007 203.016C32.9007 203.016 34.7186 196.159 37.0784 195.694C37.0784 195.694 36.767 202.248 33.281 204.051L32.9007 203.016Z" fill="#649FCF"/>
<path d="M31.8425 197.423C31.8425 197.423 32.5502 190.145 34.8484 189.242C34.8484 189.242 35.2956 195.057 32.1552 197.924L31.8425 197.423Z" fill="#649FCF"/>
<path d="M29.9624 190.166C29.9624 190.166 30.9468 184.309 32.7556 183.194C32.7556 183.194 33.2646 189.88 30.5921 191.482L29.9624 190.166Z" fill="#649FCF"/>
<path d="M28.57 185.42L26.8931 175.551C26.8931 175.551 31.4862 182.555 29.0709 187.137L28.57 185.42Z" fill="#649FCF"/>
<path d="M24.473 175.935C24.473 175.935 20.9144 169.039 20.2379 168.719C20.2379 168.719 25.9427 172.732 26.2582 178.849L24.473 175.935Z" fill="#649FCF"/>
<path d="M56.0538 251.066C56.0538 251.066 51.4173 251.079 52.4143 257.5C52.4143 257.5 56.6217 257.618 57.2527 252.114L56.0538 251.066Z" fill="#649FCF"/>
<path d="M51.0622 246.324C51.0622 246.324 45.793 247.01 47.1046 253.547C47.1046 253.547 51.6295 253.744 52.2692 247.428L51.0622 246.324Z" fill="#649FCF"/>
<path d="M47.487 241.97C47.487 241.97 42.4076 240.368 40.1288 246.559C40.1288 246.559 44.7938 247.836 48.0343 242.847L47.487 241.97Z" fill="#649FCF"/>
<path d="M43.7364 236.778C43.7364 236.778 38.5236 235.048 36.4049 241.085C36.4049 241.085 41.7388 242.157 44.2598 237.617L43.7364 236.778Z" fill="#649FCF"/>
<path d="M41.3513 232.131C41.3513 232.131 36.0344 228.255 32.888 233.316C32.888 233.316 38.2012 236.373 41.7027 233.105L41.3513 232.131Z" fill="#649FCF"/>
<path d="M38.9394 226.052C38.9394 226.052 33.5843 222.084 30.5033 227.395C30.5033 227.395 36.3279 230.459 39.2423 226.993L38.9394 226.052Z" fill="#649FCF"/>
<path d="M37.297 220.565C37.297 220.565 32.8821 215.307 28.7514 217.166C28.7514 217.166 33.3531 222.745 37.4371 221.922L37.297 220.565Z" fill="#649FCF"/>
<path d="M35.5179 215.407C35.5179 215.407 30.865 208.656 27.56 210.382C27.56 210.382 30.956 215.591 35.7767 216.614L35.5179 215.407Z" fill="#649FCF"/>
<path d="M34.3452 208.613C34.3452 208.613 29.7995 203.421 26.3483 204.591C26.3483 204.591 30.2128 209.956 34.9319 210.215L34.3452 208.613Z" fill="#649FCF"/>
<path d="M33.2786 202.839C33.2786 202.839 29.4914 196.839 27.1016 197.101C27.1016 197.101 29.359 203.264 33.2251 203.94L33.2786 202.839Z" fill="#649FCF"/>
<path d="M31.9412 197.269C31.9412 197.269 27.8197 191.227 25.3673 191.544C25.3673 191.544 27.7739 196.856 31.9083 197.853L31.9412 197.269Z" fill="#649FCF"/>
<path d="M30.54 190.5C30.54 190.5 27.3833 185.466 25.288 185.132C25.288 185.132 27.3792 191.498 30.4623 191.957L30.54 190.5Z" fill="#649FCF"/>
<path d="M28.2537 185.271L21.6988 177.704C21.6988 177.704 24.1856 185.704 29.2662 186.752L28.2537 185.271Z" fill="#649FCF"/>
<path d="M23.3117 176.77C23.3117 176.77 16.3977 173.247 16.0763 172.577C16.0763 172.577 20.1248 178.264 26.2332 178.544L23.3117 176.77Z" fill="#649FCF"/>
<path d="M22.6703 174.856C22.6703 174.856 14.4684 168.842 12.6131 169.096C12.6131 169.096 18.644 168.57 22.7946 174.46L22.6703 174.856Z" fill="#649FCF"/>
<path d="M73.1389 261.129C73.0647 261.108 65.6017 258.907 57.2896 252.383C52.4211 248.566 48.1884 244.002 44.7492 238.86C40.4505 232.432 37.2576 224.25 35.4684 216.128L35.9115 216.268C39.9297 234.498 50.0112 245.981 57.6063 251.947C65.8386 258.413 73.2189 260.593 73.2909 260.614L73.1389 261.129Z" fill="white"/>
<path opacity="0.7" d="M265.167 129.643L272.566 122.239C273.811 120.993 275.829 120.993 277.074 122.238C277.075 122.238 277.075 122.238 277.075 122.239L296.774 141.947C297.969 143.143 298.64 144.764 298.64 146.454V276.99" stroke="#5293A0" stroke-width="3"/>
<path opacity="0.7" d="M309.001 276.591H287.881C287.221 276.591 286.685 277.126 286.685 277.787V278.185C286.685 278.845 287.221 279.38 287.881 279.38H309.001C309.661 279.38 310.196 278.845 310.196 278.185V277.787C310.196 277.126 309.661 276.591 309.001 276.591Z" fill="#5293A0"/>
<path fill-rule="evenodd" clip-rule="evenodd" d="M269.617 125.299C274.753 130.434 274.753 138.76 269.617 143.896L261.728 151.785L243.131 133.188L251.02 125.299C256.156 120.163 264.482 120.163 269.617 125.299Z" fill="#5293A0"/>
<path d="M250.565 144.451C255.701 149.587 260.684 152.93 261.695 151.918C262.707 150.907 259.364 145.924 254.228 140.788C249.093 135.653 244.11 132.31 243.098 133.321C242.087 134.333 245.43 139.316 250.565 144.451Z" fill="#5293A0"/>
<path d="M250.88 144.072C255.898 149.09 260.786 152.337 261.797 151.326C262.809 150.314 259.561 145.427 254.543 140.409C249.525 135.39 244.637 132.143 243.625 133.154C242.614 134.166 245.862 139.054 250.88 144.072Z" fill="white"/>
<path d="M182.096 205.908V238.077C182.095 238.624 182.169 239.168 182.316 239.694C182.669 240.973 183.432 242.101 184.488 242.906C185.544 243.71 186.835 244.145 188.162 244.145H215.354C216.151 244.146 216.94 243.989 217.676 243.684C218.413 243.379 219.082 242.932 219.645 242.369C220.209 241.805 220.656 241.136 220.961 240.4C221.265 239.664 221.422 238.874 221.422 238.077V205.908C221.422 205.111 221.265 204.321 220.961 203.585C220.656 202.849 220.209 202.18 219.645 201.616C219.082 201.053 218.413 200.606 217.676 200.301C216.94 199.996 216.151 199.839 215.354 199.84H188.162C186.835 199.84 185.544 200.275 184.488 201.08C183.432 201.884 182.669 203.012 182.316 204.291C182.169 204.818 182.095 205.361 182.096 205.908Z" fill="white"/>
<path opacity="0.1" d="M220.983 205.908V238.077C220.983 238.624 221.057 239.169 221.203 239.696C221.348 239.169 221.422 238.624 221.422 238.077V205.908C221.422 205.361 221.348 204.816 221.203 204.289C221.057 204.816 220.983 205.361 220.983 205.908Z" fill="black"/>
<path d="M227.49 199.84H263.013C266.364 199.84 269.08 202.556 269.08 205.908V238.069C269.08 241.42 266.364 244.136 263.013 244.136H227.49C224.139 244.136 221.422 241.42 221.422 238.069V205.908C221.422 202.556 224.139 199.84 227.49 199.84Z" fill="white"/>
<path opacity="0.1" d="M182.096 205.908V238.077C182.095 238.624 182.169 239.168 182.316 239.694C182.461 239.167 182.535 238.624 182.535 238.077V205.908C182.535 205.361 182.461 204.818 182.316 204.291C182.169 204.818 182.095 205.361 182.096 205.908Z" fill="black"/>
<path d="M140.504 199.84H176.029C179.38 199.84 182.097 202.556 182.097 205.908V238.069C182.097 241.42 179.38 244.136 176.029 244.136H140.504C137.153 244.136 134.436 241.42 134.436 238.069V205.908C134.436 202.556 137.153 199.84 140.504 199.84Z" fill="white"/>
<path opacity="0.1" d="M223.834 247.426H267.37L267.589 243.621C267.83 239.349 262.309 235.803 255.412 235.803H225.781C223.468 235.803 221.683 237.062 221.979 238.483L223.834 247.426Z" fill="black"/>
<path d="M223.834 247.864H267.37L267.589 244.06C267.83 239.788 262.309 236.242 255.412 236.242H225.781C223.468 236.242 221.683 237.501 221.979 238.922L223.834 247.864Z" fill="#5293A0"/>
<path opacity="0.1" d="M180.208 247.678H136.673L136.453 243.873C136.212 239.602 141.734 236.056 148.631 236.056H178.261C180.572 236.056 182.36 237.314 182.064 238.735L180.208 247.678Z" fill="black"/>
<path d="M180.208 248.117H136.673L136.453 244.312C136.212 240.04 141.734 236.494 148.631 236.494H178.261C180.572 236.494 182.36 237.753 182.064 239.174L180.208 248.117Z" fill="#5293A0"/>
<path opacity="0.1" d="M216.295 236.056H186.796C185.973 236.056 185.157 236.218 184.397 236.533C183.636 236.848 182.945 237.31 182.363 237.892C181.781 238.474 181.319 239.165 181.004 239.926C180.689 240.687 180.526 241.502 180.526 242.325V246.22H223.176V242.93C223.175 241.106 222.449 239.357 221.159 238.068C219.869 236.779 218.119 236.055 216.295 236.056Z" fill="black"/>
<path d="M216.295 236.494H186.796C185.973 236.494 185.157 236.656 184.397 236.971C183.636 237.287 182.945 237.748 182.363 238.331C181.781 238.913 181.319 239.604 181.004 240.364C180.689 241.125 180.526 241.94 180.526 242.764V246.658H223.176V243.369C223.175 241.545 222.449 239.796 221.159 238.507C219.869 237.218 218.119 236.494 216.295 236.494Z" fill="#5293A0"/>
<path d="M264.396 240.409H229.09C227.52 240.409 226.014 241.032 224.904 242.143C223.793 243.253 223.17 244.759 223.17 246.329V254.333H267.021V243.033C267.019 242.338 266.742 241.671 266.25 241.179C265.759 240.687 265.092 240.41 264.396 240.409Z" fill="white"/>
<path d="M218.352 240.409H184.8C183.23 240.409 181.724 241.032 180.614 242.143C179.503 243.253 178.88 244.759 178.88 246.329V254.333H223.942V246C223.942 244.518 223.353 243.096 222.305 242.047C221.256 240.999 219.835 240.409 218.352 240.409Z" fill="white"/>
<path d="M177.064 240.409H141.216C139.719 240.409 138.282 241.003 137.224 242.062C136.165 243.121 135.57 244.558 135.57 246.055V254.333H179.415V242.759C179.415 242.451 179.354 242.145 179.236 241.86C179.118 241.574 178.944 241.315 178.726 241.097C178.508 240.879 178.249 240.706 177.963 240.587C177.678 240.469 177.373 240.409 177.064 240.409Z" fill="white"/>
<path opacity="0.7" d="M266.377 272.864V278.839C266.377 279.639 266.695 280.405 267.26 280.971C267.826 281.536 268.592 281.854 269.392 281.854H271.475C272.275 281.854 273.041 281.536 273.606 280.971C274.172 280.405 274.49 279.639 274.49 278.839V272.864H266.377Z" fill="#5293A0"/>
<path opacity="0.7" d="M128.34 272.864V278.839C128.34 279.639 128.658 280.405 129.223 280.971C129.789 281.536 130.555 281.854 131.355 281.854H133.438C134.238 281.854 135.004 281.536 135.57 280.971C136.135 280.405 136.453 279.639 136.453 278.839V272.864H128.34Z" fill="#5293A0"/>
<path opacity="0.4" d="M264.164 233.643C264.164 232.127 264.595 230.641 265.406 229.36C266.218 228.078 267.377 227.054 268.749 226.406C270.12 225.758 271.647 225.513 273.153 225.7C274.658 225.887 276.079 226.497 277.251 227.46C278.423 228.424 279.296 229.7 279.771 231.141C280.245 232.581 280.3 234.127 279.93 235.598C279.559 237.069 278.779 238.404 277.678 239.448C276.578 240.493 275.204 241.203 273.716 241.496V273.85H264.725V236.597C264.353 235.657 264.163 234.655 264.164 233.643Z" fill="white"/>
<path opacity="0.4" d="M138.988 233.643C138.988 232.127 138.557 230.641 137.746 229.36C136.934 228.078 135.775 227.054 134.404 226.406C133.032 225.758 131.505 225.513 130 225.7C128.494 225.887 127.073 226.497 125.901 227.46C124.73 228.424 123.856 229.7 123.382 231.141C122.907 232.581 122.852 234.127 123.223 235.598C123.593 237.069 124.374 238.404 125.474 239.448C126.574 240.493 127.948 241.203 129.436 241.496V273.85H138.427V236.597C138.799 235.657 138.989 234.655 138.988 233.643Z" fill="white"/>
<path opacity="0.7" d="M134.436 253.895H267.585V268.258H134.436V253.895Z" fill="#5293A0"/>
<path opacity="0.1" d="M128.342 272.864H136.442V274.947H128.342V272.864Z" fill="black"/>
<path d="M137.008 234.301C137.008 232.784 136.578 231.298 135.766 230.017C134.954 228.735 133.794 227.71 132.423 227.062C131.051 226.415 129.523 226.17 128.018 226.357C126.512 226.544 125.091 227.155 123.919 228.119C122.747 229.082 121.874 230.359 121.4 231.801C120.926 233.242 120.872 234.788 121.243 236.259C121.615 237.73 122.397 239.065 123.498 240.109C124.599 241.153 125.974 241.862 127.462 242.154V274.508H136.453V237.255C136.824 236.315 137.012 235.312 137.008 234.301Z" fill="white"/>
<path opacity="0.1" d="M266.491 272.864H274.49V274.947H266.491V272.864Z" fill="black"/>
<path d="M265.925 234.301C265.925 232.785 266.356 231.3 267.167 230.019C267.979 228.738 269.138 227.714 270.509 227.066C271.88 226.418 273.407 226.173 274.912 226.359C276.417 226.545 277.838 227.155 279.01 228.118C280.181 229.08 281.056 230.356 281.53 231.796C282.005 233.236 282.061 234.782 281.692 236.253C281.322 237.723 280.543 239.059 279.443 240.104C278.344 241.148 276.971 241.86 275.484 242.154V274.508H266.493V237.255C266.117 236.316 265.925 235.313 265.925 234.301Z" fill="white"/>
<path opacity="0.4" d="M274.49 237.667C272.492 237.667 270.872 236.047 270.872 234.049C270.872 232.051 272.492 230.431 274.49 230.431C276.488 230.431 278.108 232.051 278.108 234.049C278.108 236.047 276.488 237.667 274.49 237.667Z" fill="white"/>
<path opacity="0.4" d="M128.342 237.667C126.343 237.667 124.724 236.047 124.724 234.049C124.724 232.051 126.343 230.431 128.342 230.431C130.34 230.431 131.96 232.051 131.96 234.049C131.96 236.047 130.34 237.667 128.342 237.667Z" fill="white"/>
<path d="M236.22 227.933C239.667 227.071 246.945 217.984 246.945 217.984C249.682 216.072 255.263 204.489 255.263 204.489C255.263 204.489 257.381 203.491 259.247 207.978C261.114 212.464 271.966 216.052 275.216 216.554C277.047 216.837 276.87 217.651 276.365 218.308C276.025 218.731 275.574 219.05 275.063 219.229C273.681 219.754 269.394 224.9 269.394 224.9C265.396 227.602 260.962 240.082 259.489 243.343C258.671 245.156 257.761 244.288 257.111 243.158C255.858 240.978 254.142 239.099 252.083 237.654C246.504 233.731 240.524 232.104 240.116 232.097C239.601 232.084 232.772 228.795 236.22 227.933Z" fill="#3C6E75"/>
<path d="M279.668 216.973C280.19 216.79 280.653 216.468 281.005 216.041C281.538 215.383 281.755 214.541 279.951 214.225C276.751 213.664 266.135 209.839 264.504 205.188C262.872 200.537 260.714 201.544 260.714 201.544C260.714 201.544 254.609 213.385 251.798 215.328C251.798 215.328 244.123 224.587 240.66 225.431C237.198 226.275 243.816 229.744 244.327 229.764C244.733 229.777 250.592 231.518 255.949 235.639C257.934 237.168 259.548 239.126 260.671 241.367C261.26 242.538 262.124 243.443 263.026 241.586C264.646 238.246 269.659 225.455 273.76 222.727C273.76 222.727 278.271 217.493 279.668 216.973Z" fill="#5293A0"/>
<path opacity="0.1" d="M267.37 221.159C267.37 221.159 268.519 222.24 263.024 220.168C257.528 218.096 267.37 221.159 267.37 221.159Z" fill="black"/>
<path opacity="0.1" d="M262.859 226.433C262.859 226.433 262.021 226.554 258.87 225.267C255.719 223.979 262.859 226.433 262.859 226.433Z" fill="black"/>
<path opacity="0.1" d="M263.135 236.117C263.135 236.117 262.353 236.117 259.208 234.814C256.063 233.512 263.135 236.117 263.135 236.117Z" fill="black"/>
<path opacity="0.1" d="M134.874 214.438V218.622C135.778 220.49 136.662 222.876 136.662 222.876C139.293 226.302 138.877 237.713 139.05 240.794C139.146 242.505 140.267 242.097 141.243 241.395C143.171 240.021 145.361 239.056 147.677 238.56C154.036 237.167 159.957 237.746 160.334 237.869C160.799 238.023 168.062 237.534 165.281 235.755C162.501 233.977 159.176 224.396 159.176 224.396C157.398 222.001 156.47 210.949 156.47 210.949C156.47 210.949 154.935 209.482 151.679 212.484C148.589 215.363 138.493 215.013 134.874 214.438Z" fill="#5293A0"/>
<path d="M134.217 217.273C133.831 216.98 133.538 216.581 133.375 216.124C133.156 215.44 133.279 214.732 135.018 215.08C138.099 215.699 149.072 216.24 152.317 213.227C155.563 210.214 157.109 211.681 157.109 211.681C157.109 211.681 158.036 222.731 159.815 225.128C159.815 225.128 163.137 234.709 165.92 236.487C168.703 238.266 161.438 238.755 160.973 238.599C160.604 238.476 154.684 237.9 148.315 239.292C146 239.788 143.811 240.752 141.881 242.125C140.905 242.827 139.785 243.237 139.688 241.525C139.515 238.455 139.927 227.034 137.3 223.609C137.3 223.609 135.27 218.128 134.217 217.273Z" fill="#3B6E75"/>
<path opacity="0.1" d="M132.482 215.885C132.096 215.592 131.803 215.193 131.64 214.736C131.421 214.052 131.544 213.344 133.283 213.692C136.364 214.311 147.337 214.852 150.582 211.839C153.828 208.826 155.374 210.293 155.374 210.293C155.374 210.293 156.301 221.343 158.08 223.74C158.08 223.74 161.402 233.321 164.185 235.1C166.968 236.878 159.703 237.367 159.238 237.211C158.869 237.088 152.949 236.512 146.58 237.904C144.265 238.4 142.076 239.365 140.146 240.737C139.171 241.439 138.05 241.849 137.953 240.137C137.78 237.067 138.192 225.646 135.565 222.221C135.565 222.221 133.535 216.741 132.482 215.885Z" fill="#666666"/>
<path d="M133.276 216.379C132.909 216.098 132.632 215.717 132.478 215.282C132.258 214.624 132.386 213.966 134.035 214.293C136.962 214.879 147.381 215.39 150.462 212.539C153.543 209.688 155.012 211.072 155.012 211.072C155.012 211.072 155.889 221.563 157.58 223.837C157.58 223.837 160.733 232.935 163.376 234.624C166.018 236.312 159.119 236.775 158.681 236.628C158.33 236.512 152.707 235.97 146.661 237.286C144.463 237.756 142.385 238.671 140.554 239.977C139.627 240.634 138.563 241.031 138.471 239.406C138.307 236.481 138.69 225.648 136.204 222.394C136.204 222.392 134.276 217.19 133.276 216.379Z" fill="#5293A0"/>
<path opacity="0.1" d="M140.997 222.427C140.997 222.427 141.765 222.865 145.438 224.126C149.111 225.387 141.6 223.633 140.997 222.427Z" fill="black"/>
<path opacity="0.1" d="M141.381 226.297C141.381 226.297 143.683 228.183 144.835 228.348C145.986 228.512 142.039 228.139 141.381 226.297Z" fill="black"/>
<path opacity="0.1" d="M139.55 235.007C139.55 235.007 141.852 236.893 143.004 237.058C144.155 237.222 140.208 236.854 139.55 235.007Z" fill="black"/>
<path d="M247.325 211.741L247.599 215.223L245.908 218.89L243.518 220.995L240.917 222.53L238.505 224.21L236.093 222.043C236.093 222.043 239.625 219.775 239.941 219.006C240.257 218.236 241.845 216.677 241.845 216.677L244.086 214.51L245.906 212.85L247.325 211.741Z" fill="#FD6F8D"/>
<path opacity="0.1" d="M247.325 211.741L247.599 215.223L245.908 218.89L243.518 220.995L240.917 222.53L238.505 224.21L236.093 222.043C236.093 222.043 239.625 219.775 239.941 219.006C240.257 218.236 241.845 216.677 241.845 216.677L244.086 214.51L245.906 212.85L247.325 211.741Z" fill="black"/>
<path d="M258.272 198.221C259.149 199.941 259.89 202.467 259.044 205.315C257.478 210.578 268.956 203.215 268.956 203.215C268.956 203.215 266.482 199.522 265.758 196.333C265.524 195.3 265.473 194.318 265.758 193.533C266.896 190.329 256.717 195.882 256.717 195.882C257.334 196.591 257.856 197.378 258.272 198.221Z" fill="#FFE0D9"/>
<path opacity="0.1" d="M259.73 203.072C259.73 203.072 255.412 203.232 254.824 204.46C254.237 205.688 253.011 207.611 252.476 207.879C251.941 208.147 246.283 212.791 245.803 213.004C245.322 213.217 240.463 218.289 240.463 218.824C240.463 219.359 235.443 222.455 232.24 222.935C229.036 223.416 224.126 229.183 222.683 228.968C221.24 228.753 218.297 229.823 218.297 229.823C218.297 229.823 214.986 229.663 214.185 229.128C213.385 228.593 210.396 229.663 211.089 230.944C211.782 232.225 214.293 231.799 214.881 232.547C215.468 233.295 216.909 234.095 218.297 234.255C219.685 234.415 220.753 234.521 221.821 234.788C222.889 235.056 222.621 235.589 224.233 235.323C225.845 235.058 232.082 223.949 232.082 223.949L239.022 220.8C239.022 220.8 241.638 218.664 241.853 217.969C242.068 217.273 247.086 212.524 247.086 212.524L253.653 207.717L259.73 203.072Z" fill="black"/>
<path d="M259.41 203.072C259.41 203.072 255.092 203.232 254.504 204.46C253.916 205.688 252.688 207.611 252.156 207.879C251.623 208.147 245.963 212.791 245.48 213.004C244.998 213.217 240.143 218.289 240.143 218.824C240.143 219.359 235.123 222.455 231.919 222.935C228.716 223.416 223.806 229.183 222.363 228.968C220.92 228.753 217.977 229.823 217.977 229.823C217.977 229.823 214.666 229.663 213.865 229.128C213.065 228.593 210.074 229.663 210.769 230.944C211.464 232.225 213.973 231.799 214.56 232.547C215.148 233.295 216.589 234.095 217.977 234.255C219.365 234.415 220.442 234.521 221.507 234.788C222.573 235.056 222.308 235.589 223.92 235.323C225.531 235.058 231.768 223.949 231.768 223.949L238.709 220.8C238.709 220.8 241.325 218.664 241.54 217.969C241.755 217.273 246.757 212.524 246.757 212.524L253.335 207.717L259.41 203.072Z" fill="#FD6F8D"/>
<path d="M236.921 226.922C236.921 226.922 230.441 221.19 230.123 220.764C229.966 220.545 227.915 218.999 225.885 217.475C223.361 215.593 220.996 213.507 218.812 211.238C217.35 209.721 215.784 208.206 215.245 208.085C214.148 207.835 211.365 207.943 210.795 208.903C210.225 209.864 207.769 211.609 207.769 211.609L205.668 213.955C205.668 213.955 200.719 217.8 197.515 221.324C194.311 224.848 190.539 228.657 189.182 228.799C187.825 228.942 185.765 230.685 185.765 230.685C185.765 230.685 182.847 232.111 181.818 233.249C180.79 234.387 179.077 235.492 177.334 235.562C175.59 235.632 178.259 236.988 181.143 236.808C184.026 236.628 187.548 235.74 188.796 235.955C190.044 236.17 193.528 236.203 193.528 235.562C193.528 234.922 193.173 233.426 193.173 233.426C193.173 233.426 197.017 230.231 200.925 229.556C204.833 228.88 213.392 222.508 213.321 219.554C213.321 219.554 214.53 219.447 215.92 221.582C215.92 221.582 216.916 222.438 218.589 224.821C220.262 227.205 222.255 230.622 222.255 230.622C222.255 230.622 225.352 236.882 227.843 236.832C230.334 236.781 233.005 236.494 233.005 236.494L236.316 234.146L236.536 231.295L236.921 226.922Z" fill="#FFD3CA"/>
<path d="M235.426 227.242C235.426 227.242 228.948 221.512 228.628 221.085C228.308 220.657 220.264 214.747 220.264 214.747C220.264 214.747 214.854 208.662 213.749 208.412C212.644 208.162 209.87 208.269 209.3 209.23C208.729 210.19 206.276 211.936 206.276 211.936L204.175 214.284C204.175 214.284 199.228 218.129 196.024 221.653C192.82 225.177 189.046 228.986 187.691 229.128C186.336 229.271 184.274 231.016 184.274 231.016C184.274 231.016 181.355 232.44 180.327 233.578C179.298 234.716 177.586 235.821 175.842 235.891C174.099 235.961 176.768 237.317 179.652 237.137C182.535 236.957 186.059 236.071 187.305 236.284C188.55 236.496 192.035 236.542 192.035 235.885C192.035 235.227 191.677 233.749 191.677 233.749C191.677 233.749 195.522 230.547 199.438 229.869C203.355 229.192 211.889 222.828 211.826 219.876C211.826 219.876 213.036 219.769 214.424 221.905C214.424 221.905 215.42 222.76 217.093 225.144C218.766 227.527 220.76 230.946 220.76 230.946C220.76 230.946 223.856 237.2 226.349 237.154C228.843 237.108 231.509 236.817 231.509 236.817L234.821 234.468L235.04 231.617L235.426 227.242Z" fill="#FFE0D9"/>
<path opacity="0.1" d="M214.576 230.578C214.751 230.652 214.922 230.742 215.091 230.832L216.188 231.418C215.232 231.575 214.26 231.604 213.297 231.503C212.762 231.446 212.01 230.992 212.62 230.455C213.104 230.034 214.082 230.363 214.576 230.578Z" fill="black"/>
<path opacity="0.1" d="M219.587 231.336C218.992 231.218 218.352 231.102 217.797 231.336C217.607 231.428 217.427 231.539 217.26 231.668L216.308 232.354C217.128 232.596 217.971 232.75 218.823 232.815C218.937 232.83 219.052 232.826 219.163 232.801C219.31 232.75 219.442 232.666 219.551 232.556C220.295 231.937 220.797 231.578 219.587 231.336Z" fill="black"/>
<path d="M260.847 195.983C260.847 195.983 268.181 194.781 268.181 190.456C268.181 186.131 264.675 182.625 260.35 182.625C256.026 182.625 252.692 184.718 252.692 189.043C252.692 189.563 252.619 189.737 252.692 190.084C252.765 190.431 252.345 191.819 251.478 193.033C251.062 193.615 251.825 194.248 252.866 194.248C253.039 194.942 252.766 195.226 252.866 195.462C252.899 195.542 252.977 195.597 253.052 195.648L253.213 195.809C253.273 195.993 253.308 196.233 253.386 196.33C253.583 196.573 253.771 196.473 253.907 196.677C254.254 197.197 253.56 197.718 254.254 198.238C256.336 198.759 260.847 195.983 260.847 195.983Z" fill="#FFE0D9"/>
<path d="M259.408 203.072L259.826 203.748L254.741 209.267L252.351 210.938L250.969 209.085L259.408 203.072Z" fill="#504F88"/>
<path d="M251.581 208.995C251.581 208.995 249.075 208.679 247.917 210.6C247.234 211.71 246.803 212.955 246.654 214.249C246.654 214.249 245.498 215.175 245.603 215.692C245.69 216.024 245.892 216.314 246.173 216.51C246.173 216.51 248.417 215.23 248.434 215.175C248.452 215.12 250.16 213.234 250.16 213.234L251.581 211.741V208.995Z" fill="#504F88"/>
<path opacity="0.1" d="M266.679 201.364C266.679 201.364 270.594 201.675 270.986 204.408C271.379 207.14 271.519 208.697 270.131 210.583C268.743 212.469 265.896 213.254 265.896 213.254C265.896 213.254 261.589 216.635 261.552 218.699C261.515 220.762 257.886 225.392 257.886 225.392C257.886 225.392 250.976 230.516 251.476 232.154C251.976 233.793 252.12 238.455 250.305 238.882C248.489 239.31 245.535 238.952 245.108 239.487C244.68 240.023 237.632 239.202 237.632 239.202C237.632 239.202 233.718 238.312 231.119 239.095C229.501 239.546 227.776 239.419 226.242 238.735C226.242 238.735 223.216 238.45 223.038 237.24C222.861 236.029 221.503 236.067 222.788 235.852C224.073 235.637 224.889 236.314 225.814 235.994C226.74 235.674 227.523 234.606 229.659 234.641C231.794 234.676 232.29 234.714 232.509 234.676C232.729 234.639 231.156 233.431 232.012 231.475C232.867 229.519 234.5 227.99 234.428 226.894C234.356 225.797 237.632 222.052 237.632 222.052C237.632 222.052 239.198 219.775 241.228 219.028C243.259 218.28 247.066 213.686 247.066 213.686C247.066 213.686 250.327 208.609 252.096 208.337C253.866 208.065 259.666 202.855 259.666 202.855C259.666 202.855 264.585 200.827 266.679 201.364Z" fill="black"/>
<path d="M266.785 201.577C266.785 201.577 270.701 201.895 271.098 204.62C271.495 207.346 271.631 208.91 270.243 210.798C268.855 212.686 266.006 213.467 266.006 213.467C266.006 213.467 261.699 216.848 261.664 218.914C261.629 220.979 257.998 225.604 257.998 225.604C257.998 225.604 251.083 230.731 251.581 232.376C252.079 234.021 252.224 238.676 250.41 239.104C248.597 239.531 245.638 239.176 245.213 239.709C244.787 240.242 237.737 239.424 237.737 239.424C237.737 239.424 233.821 238.536 231.222 239.319C229.605 239.768 227.882 239.64 226.35 238.955C226.35 238.955 223.323 238.67 223.146 237.461C222.968 236.253 221.611 236.286 222.896 236.073C224.181 235.86 224.996 236.536 225.922 236.214C226.847 235.891 227.63 234.825 229.766 234.863C231.902 234.9 232.398 234.933 232.617 234.898C232.836 234.863 231.266 233.652 232.119 231.694C232.972 229.736 234.61 228.205 234.531 227.102C234.452 225.999 237.735 222.26 237.735 222.26C237.735 222.26 239.301 219.984 241.329 219.236C243.358 218.488 247.167 213.896 247.167 213.896C247.167 213.896 250.43 208.82 252.197 208.546C253.965 208.272 259.769 203.074 259.769 203.074C259.769 203.074 264.692 201.039 266.785 201.577Z" fill="#FD6F8D"/>
<path opacity="0.1" d="M241.41 232.376C241.652 232.913 241.704 233.613 241.29 234.029C241.027 234.244 240.722 234.401 240.395 234.49C239.726 234.751 239.079 235.209 238.86 235.893C238.82 236.083 238.746 236.263 238.641 236.426C238.529 236.547 238.391 236.639 238.237 236.696C236.33 237.557 234.256 237.986 232.163 237.95C232.856 237.284 233.734 236.844 234.683 236.687C235.437 236.564 236.235 236.621 236.933 236.308C237.63 235.994 238.095 235.396 238.551 234.808C238.719 234.614 238.851 234.391 238.939 234.15C239.104 233.621 238.84 233.036 238.992 232.505C239.079 232.2 239.812 231.111 240.123 231.043C240.599 230.948 241.25 232.018 241.41 232.376Z" fill="black"/>
<path opacity="0.1" d="M213.778 219.164C213.339 219.021 211.109 218.604 211.782 217.758C212.396 216.982 213.302 218.999 213.778 219.164Z" fill="black"/>
<path d="M221.788 197.364L218.001 195.52L219.317 214.528L223.306 213.736L222.271 198.072C222.259 197.922 222.208 197.778 222.124 197.654C222.039 197.53 221.923 197.43 221.788 197.364Z" fill="#CBE3FF"/>
<path d="M218.001 195.52L219.317 214.528C219.172 214.528 219.032 214.473 218.925 214.374C218.819 214.275 218.753 214.14 218.742 213.995L217.372 196.441C217.356 196.239 217.41 196.037 217.525 195.87C217.639 195.702 217.807 195.579 218.001 195.52Z" fill="#C8BFCA"/>
<path d="M223.293 213.629L235.31 222.462C235.41 222.534 235.494 222.626 235.556 222.733C235.619 222.839 235.658 222.958 235.671 223.081C235.684 223.203 235.671 223.328 235.633 223.445C235.595 223.562 235.533 223.671 235.45 223.762L234.275 225.1L219.069 213.736L222.771 213.471C222.958 213.459 223.143 213.515 223.293 213.629Z" fill="#F1F1F2"/>
<path d="M223.602 214.526L231.696 220.192L230.569 221.414L221.126 214.695L223.602 214.526Z" fill="#649FCF"/>
<path d="M234.27 225.1L219.069 213.736C218.949 213.987 218.919 214.272 218.985 214.543C219.052 214.813 219.21 215.052 219.433 215.219L232.786 225.234C233.005 225.4 233.279 225.479 233.554 225.454C233.828 225.429 234.084 225.303 234.27 225.1Z" fill="#C8BFCA"/>
<path d="M236.889 222.045C236.889 222.045 231.582 211.324 228.448 215.425C225.314 219.526 233.255 223.977 233.255 223.977L236.889 222.045Z" fill="#FFE0D9"/>
<path opacity="0.1" d="M265.177 204.427C266.229 204.701 267.192 205.24 267.976 205.993C268.759 206.746 269.336 207.688 269.651 208.728C269.995 209.905 269.971 211.197 268.804 212.061C266.133 214.034 262.361 215.425 260.616 218.664C259.523 220.782 258.769 223.058 258.379 225.409L253.857 232.082C253.857 232.082 253.171 234.218 248.594 232.547C244.018 230.876 241.516 230.019 241.516 230.019C241.516 230.019 237.968 228.115 236.382 227.42C236.159 227.306 235.921 227.222 235.676 227.17C235.143 227.17 231.327 223.905 231.152 223.455C230.977 223.006 235.009 221.137 236.621 221.543C236.621 221.543 236.851 222.508 239.878 222.365C242.904 222.223 244.044 223.506 244.044 223.506C244.044 223.506 245.54 222.971 246.5 223.023C247.461 223.076 249.204 222.146 250.504 222.258C250.504 222.258 249.846 220.942 250.7 219.846C251.553 218.749 252.338 218.848 252.693 217.55C252.897 216.809 253.57 214.451 254.116 212.556C254.828 210.034 256.246 207.767 258.204 206.024C259.48 204.899 260.997 203.984 262.519 204.039C263.417 204.068 264.309 204.199 265.177 204.427Z" fill="black"/>
<path opacity="0.1" d="M265.083 203.892C266.135 204.167 267.1 204.706 267.884 205.459C268.668 206.213 269.246 207.154 269.563 208.195C269.905 209.372 269.883 210.662 268.714 211.526C266.046 213.499 262.272 214.89 260.528 218.129C259.433 220.246 258.676 222.522 258.285 224.874L253.763 231.549C253.763 231.549 253.079 233.685 248.5 232.012C243.921 230.339 241.421 229.486 241.421 229.486C241.421 229.486 237.873 227.58 236.29 226.887C236.067 226.773 235.829 226.688 235.584 226.637C235.049 226.637 231.233 223.372 231.06 222.922C230.887 222.473 234.915 220.604 236.527 221.01C236.527 221.01 236.757 221.975 239.783 221.832C242.809 221.69 243.95 222.971 243.95 222.971C243.95 222.971 245.445 222.438 246.406 222.49C247.366 222.543 249.112 221.613 250.41 221.725C250.41 221.725 249.752 220.409 250.607 219.313C251.463 218.216 252.243 218.317 252.601 217.017C252.803 216.278 253.478 213.92 254.022 212.024C254.734 209.501 256.152 207.234 258.109 205.491C259.388 204.366 260.903 203.451 262.425 203.517C263.322 203.541 264.214 203.667 265.083 203.892Z" fill="black"/>
<path d="M265.177 204.107C266.229 204.381 267.192 204.92 267.976 205.673C268.759 206.426 269.336 207.368 269.651 208.408C269.995 209.585 269.971 210.877 268.804 211.741C266.133 213.714 262.361 215.105 260.616 218.344C259.523 220.462 258.769 222.738 258.379 225.089L253.857 231.762C253.857 231.762 253.171 233.898 248.594 232.225C244.018 230.551 241.516 229.698 241.516 229.698C241.516 229.698 237.968 227.793 236.382 227.1C236.159 226.985 235.922 226.901 235.676 226.85C235.143 226.85 231.327 223.585 231.152 223.135C230.977 222.686 235.009 220.817 236.621 221.223C236.621 221.223 236.851 222.188 239.878 222.045C242.904 221.903 244.044 223.183 244.044 223.183C244.044 223.183 245.54 222.65 246.5 222.703C247.461 222.756 249.204 221.826 250.504 221.938C250.504 221.938 249.846 220.622 250.7 219.526C251.553 218.429 252.338 218.53 252.693 217.232C252.897 216.491 253.57 214.133 254.116 212.236C254.828 209.714 256.246 207.448 258.204 205.706C259.48 204.579 260.997 203.666 262.519 203.732C263.416 203.757 264.308 203.883 265.177 204.107Z" fill="#FD6F8D"/>
<path d="M252.519 186.44C252.345 185.573 252.692 185.226 252.866 184.358C253.039 183.838 253.409 183.263 253.697 182.797C255.259 181.235 255.315 181.197 257.203 180.541C259.091 179.886 259.549 180.43 261.541 180.541C263.532 180.653 264.586 181.262 265.878 182.797C266.105 183.112 266.919 183.838 266.919 183.838C266.919 183.838 267.743 184.358 268.481 184.879C271.43 186.961 270.891 188.805 271.777 189.998C272.663 191.191 273.028 192.851 273.859 195.289C274.706 197.773 274.704 197.321 275.767 198.585C276.831 199.849 275.863 201.609 277.849 202.691C278.717 203.038 278.525 204.456 279.064 204.831C279.758 205.41 279.758 206.079 279.758 206.74C279.758 207.954 279.485 208.199 279.064 208.995C278.717 210.209 279.064 211.25 278.717 211.597C277.736 212.579 278.333 212.938 277.155 213.506C276.105 214.01 276.461 212.985 275.42 212.985C274.032 212.985 273.874 212.344 272.508 212.436C271.762 212.488 270.986 212.473 270.297 212.181C268.925 211.6 268.197 210.035 268.116 208.548C268.034 207.061 268.464 205.598 268.773 204.142C268.874 203.662 268.962 203.149 268.784 202.691C268.62 202.339 268.366 202.036 268.048 201.813C266.429 200.535 264.12 199.949 263.19 198.105C262.565 196.866 262.752 195.395 262.6 194.015C262.543 193.511 262.418 192.978 262.048 192.636C261.589 192.215 260.907 192.198 260.293 192.143C258.465 191.957 256.74 191.207 255.357 189.998C254.686 189.415 254.283 188.682 253.697 188.044C253.112 187.406 252.692 187.305 252.519 186.44Z" fill="#FFD1C5"/>
<g opacity="0.1">
<path opacity="0.1" d="M279.126 207.829C280.223 207.302 281.714 207.723 282.657 207.03C282.568 207.203 282.455 207.361 282.321 207.502C281.4 208.429 279.771 207.903 278.593 208.471C278.326 208.602 278.084 208.778 277.878 208.993C278.191 208.507 278.62 208.107 279.126 207.829Z" fill="black"/>
<path opacity="0.1" d="M250.116 184.097C250.336 183.701 250.607 183.337 250.923 183.014C250.821 183.154 250.726 183.301 250.64 183.452C250.352 183.918 250.224 184.466 250.274 185.011C250.395 185.827 251.103 186.459 251.882 186.733C252.66 187.007 253.636 186.748 254.217 187.391C254.798 188.033 255.208 188.761 255.879 189.345C257.262 190.554 258.986 191.303 260.813 191.489C261.432 191.546 262.114 191.562 262.568 191.983C262.94 192.325 263.065 192.86 263.12 193.362C263.278 194.739 263.085 196.213 263.71 197.452C264.64 199.294 266.949 199.879 268.57 201.16C268.887 201.383 269.141 201.685 269.304 202.037C269.484 202.493 269.396 203.009 269.293 203.489C268.982 204.945 268.552 206.405 268.635 207.894C268.719 209.383 269.447 210.947 270.817 211.528C271.508 211.82 272.282 211.833 273.03 211.782C274.394 211.69 275.824 211.344 276.793 210.385L276.806 210.37C276.642 210.604 276.458 210.824 276.258 211.028C275.291 211.993 273.861 212.333 272.495 212.425C271.749 212.477 270.973 212.462 270.284 212.17C268.912 211.589 268.184 210.024 268.103 208.537C268.021 207.05 268.451 205.587 268.76 204.131C268.861 203.651 268.949 203.138 268.771 202.68C268.607 202.328 268.353 202.025 268.035 201.802C266.416 200.524 264.107 199.938 263.177 198.094C262.552 196.855 262.739 195.384 262.587 194.004C262.53 193.5 262.405 192.967 262.033 192.625C261.576 192.204 260.894 192.187 260.278 192.132C258.45 191.946 256.725 191.196 255.342 189.987C254.671 189.404 254.267 188.671 253.682 188.033C253.096 187.395 252.132 187.654 251.344 187.375C250.557 187.097 249.858 186.47 249.737 185.654C249.691 185.107 249.825 184.561 250.116 184.097Z" fill="black"/>
</g>
<rect x="-9.53674e-07" y="309" width="320" height="130" fill="url(#paint0_linear)"/>
<defs>
<linearGradient id="paint0_linear" x1="160" y1="309" x2="160" y2="439" gradientUnits="userSpaceOnUse">
<stop stop-color="#6EA6D2"/>
<stop offset="1" stop-color="#EDFFF4"/>
</linearGradient>
</defs>
</svg>
