<svg width="320" height="431" viewBox="0 0 320 431" fill="none" xmlns="http://www.w3.org/2000/svg">
<path opacity="0.3" d="M0 237C0 237 18.5833 237 45.3333 237C73.0297 237 75.9073 239.116 103.667 239.26C113.441 239.311 147.775 239.26 167.583 239.26C188 239.26 226.583 242.902 226.583 242.902C226.583 242.902 225.917 242.902 236.167 242.902C248.149 242.902 266.775 237.225 285.25 239.26C297.343 240.593 320 242.902 320 242.902V301H0V237Z" fill="#7ABFA2"/>
<path opacity="0.345889" fill-rule="evenodd" clip-rule="evenodd" d="M211.45 168.368C222.03 151.699 300.578 189.342 302.815 219.854C305.052 250.365 283.38 282.859 255.617 262.886C227.854 242.913 200.87 185.036 211.45 168.368Z" fill="#B9D6BF"/>
<path opacity="0.5" d="M0 243.214C0 243.214 24.2747 240.482 49.8333 243.214C77.4167 246.162 77.4906 244.575 105.25 244.688C115.024 244.728 139.552 244.688 166.083 244.688C190.167 244.688 220.167 244.688 220.167 244.688C220.167 244.688 215.406 244.822 236.167 244.688C254.691 244.569 268.275 241.621 286.75 243.214C298.843 244.257 320 244.688 320 244.688V301H0V243.214Z" fill="#7ABFA2"/>
<path opacity="0.8" d="M0 247.672C0 247.672 17.108 245.355 42.6667 247.672C70.25 250.173 78.074 247.576 105.833 247.672C115.607 247.706 131.775 247.672 151.583 247.672C181.25 247.672 207.083 246.422 207.083 246.422C207.083 246.422 215.99 246.536 236.75 246.422C255.274 246.32 285.441 245.071 303.917 246.422C316.01 247.306 320 247.672 320 247.672V301.603H0V247.672Z" fill="#7ABFA2"/>
<path opacity="0.345889" fill-rule="evenodd" clip-rule="evenodd" d="M136.316 202.326C124.912 181.312 34.4295 211.337 30.7918 246.127C27.1541 280.917 57.7496 307.631 89.9707 289.332C122.192 271.033 147.72 223.341 136.316 202.326Z" fill="#B9D6BF"/>
<path d="M60.815 175.79C61.1663 176.407 61.5024 177.042 61.8232 177.694C62.5627 176.458 64.2278 173.527 64.5703 171.647C64.5703 171.647 61.1663 170.605 59.5117 174.001C60.0439 174.367 60.4426 175.141 60.815 175.79Z" fill="#D8A97E"/>
<path d="M37.1887 215.619C37.1887 215.619 39.6865 221.823 36.5248 226.439C36.5248 226.439 33.8075 229.795 33.6424 231.473C33.6424 231.473 34.1255 243.564 34.6963 247.202C34.7073 247.278 34.7072 247.357 34.696 247.432C34.6847 247.508 34.6627 247.579 34.6313 247.641C34.5988 247.701 34.5581 247.749 34.512 247.783C34.4659 247.816 34.4155 247.834 34.3643 247.835H32.7537C32.6652 247.835 32.5803 247.783 32.517 247.689C32.4537 247.596 32.4169 247.469 32.4147 247.335C32.3707 244.918 32.1266 234.465 31.1482 231.726C31.1482 231.726 33.256 225.514 31.1482 217.712C31.1482 217.712 34.9159 213.348 37.1887 215.619Z" fill="#D8A97E"/>
<path d="M50.9278 219.055V247.321C50.9278 247.389 50.9366 247.456 50.9538 247.518C50.9709 247.581 50.9961 247.638 51.0277 247.685C51.0594 247.733 51.097 247.771 51.1383 247.796C51.1796 247.822 51.2239 247.835 51.2686 247.835H52.7879C52.8353 247.834 52.8821 247.819 52.9254 247.79C52.9687 247.76 53.0074 247.718 53.0391 247.664C53.0709 247.611 53.0949 247.548 53.1097 247.48C53.1246 247.412 53.1298 247.34 53.1252 247.268C52.9495 244.755 52.3646 234.571 53.4765 230.465C54.7499 225.766 56.9121 221.655 57.079 212.258L50.9278 219.055Z" fill="#D8A97E"/>
<path d="M58.4262 174.796C58.4262 174.796 58.9532 173.115 58.4789 170.089C58.0047 167.063 57.6025 163.766 58.1083 163.284C58.6142 162.803 58.7582 162.933 58.897 166.475C59.0357 170.017 59.8525 171.195 60.996 170.177C62.1394 169.158 63.1213 165.124 63.3443 163.71C63.5674 162.295 64.0557 161.21 64.3245 162.5C64.5932 163.79 64.0311 167.257 63.6798 167.611C63.3285 167.964 66.2056 167.345 66.7941 163.356C67.3825 159.367 65.9123 154.645 66.5604 154.459C67.2086 154.272 68.4926 160.152 68.2695 163.026C68.2695 163.026 70.6249 161.351 69.0177 156.764C67.4106 152.177 66.8643 150.215 67.5739 150.018C68.2835 149.821 68.0851 150.55 68.7771 152.65C69.4692 154.751 70.249 156.514 71.1624 155.666C72.0758 154.818 70.9042 150.217 70.3175 148.651C69.5271 146.542 70.2736 145.947 70.6319 146.258C71.3907 146.922 73.0348 152.033 72.6554 154.953C72.6554 154.953 73.8955 153.331 73.4581 149.369C72.9628 144.848 72.2742 144.452 72.7942 143.88C73.4599 143.149 76.9359 150.754 73.2456 158.001C69.5552 165.247 68.6296 167.066 61.8285 171.331C61.0311 171.828 60.1581 171.863 59.5556 175.264L58.4262 174.796Z" fill="#D8A97E"/>
<path d="M64.5703 181.715C63.5262 180.539 62.5936 179.152 61.7986 177.593C61.7986 177.593 60.3496 173.649 59.6909 173.649C59.6909 173.649 56.668 172.373 54.1475 175.16C54.1475 175.16 51.7095 172.644 49.6579 172.727C49.6579 172.727 49.1591 174.992 52.2628 178.768C52.2628 178.768 53.3711 188.251 47.9963 192.362C42.6215 196.473 40.8457 196.882 39.1823 196.882C37.519 196.882 31.0921 194.553 26.9345 201.259C25.9004 202.277 25.0169 203.608 24.3397 205.169C23.6625 206.73 23.2063 208.486 23 210.327C23 210.327 23.1107 212.845 23.7764 214.606C24.1002 214.376 24.3899 214.05 24.6281 213.646C24.8663 213.243 25.048 212.77 25.1622 212.258C25.1622 212.258 24.219 217.459 26.6025 223.921C26.6025 223.921 26.6587 227.024 24.6704 229.795C24.6704 229.795 24.6142 231.053 25.5486 233.991C26.3654 236.536 26.2231 245.077 26.1722 247.303C26.1705 247.372 26.1781 247.44 26.1944 247.505C26.2107 247.569 26.2354 247.628 26.267 247.678C26.2987 247.727 26.3366 247.767 26.3785 247.794C26.4205 247.821 26.4656 247.835 26.5112 247.834H28.2308C28.2776 247.835 28.3239 247.82 28.3669 247.792C28.4098 247.764 28.4484 247.722 28.4803 247.67C28.5121 247.618 28.5365 247.557 28.5519 247.49C28.5673 247.423 28.5734 247.352 28.5698 247.281C28.4363 244.503 27.8672 232.124 28.2641 230.632C28.7068 228.954 31.9211 225.431 32.7537 222.243C33.5862 219.054 33.2543 216.948 33.2543 216.948C33.2543 216.948 36.5793 216.613 38.5746 218.709C40.57 220.804 44.7222 222.15 44.7222 222.15C44.9409 226.558 45.3712 230.935 46.0097 235.249L46.4348 247.348C46.4397 247.48 46.4778 247.603 46.5412 247.694C46.6046 247.784 46.6884 247.835 46.7756 247.834H48.5478C48.5926 247.835 48.6369 247.822 48.6783 247.796C48.7196 247.769 48.7571 247.731 48.7885 247.683C48.8204 247.635 48.8456 247.578 48.8625 247.515C48.8794 247.452 48.8877 247.384 48.8868 247.316C48.871 244.316 48.8359 229.133 49.8336 222.493C49.8336 222.493 54.7113 222.493 56.5398 215.613C56.5398 215.613 58.5913 209.824 59.9772 207.221C61.363 204.618 62.0849 200.174 60.7518 195.643C59.9636 192.907 59.8846 189.822 60.5305 187.001C60.5305 187.001 64.0223 187.586 65.2413 186.748C66.4603 185.911 66.3426 183.728 64.5703 181.715Z" fill="#FFB877"/>
<path d="M25.1622 212.258C25.1622 212.258 25.3554 209.13 25.647 208.375C25.647 208.375 23.9836 209.761 23.7764 214.606C24.3949 214.072 24.8815 213.248 25.1622 212.258Z" fill="#E4AC74"/>
<path d="M56.459 175.58C56.5988 175.485 56.7096 175.314 56.7693 175.1C56.8289 174.886 56.8329 174.647 56.7804 174.429C56.4702 173.104 56.3464 171.695 56.4168 170.294C56.5398 166.885 56.5398 163.196 55.9303 162.827C55.3208 162.457 55.182 162.643 55.4947 166.515C55.8073 170.387 55.0766 171.902 53.7066 171.145C52.3365 170.387 50.7522 166.332 50.3271 164.856C49.9021 163.38 49.2311 162.367 49.1082 163.84C48.9852 165.313 50.0461 168.892 50.4729 169.158C50.8998 169.424 47.7082 169.637 46.5507 165.486C45.3932 161.335 46.3751 155.807 45.6374 155.807C44.8997 155.807 44.2972 162.537 44.9067 165.579C44.9067 165.579 42.1402 164.473 43.2802 159.032C44.4201 153.592 44.7539 151.321 43.9617 151.321C43.1695 151.321 43.4787 152.036 43.0044 154.512C42.5302 156.987 41.9224 159.123 40.8264 158.476C39.7304 157.83 40.3961 152.509 40.8264 150.64C41.4043 148.127 40.519 147.715 40.1748 148.151C39.4406 149.095 38.3287 155.113 39.1209 158.155C39.1209 158.155 37.5682 156.772 37.5225 152.344C37.4698 147.313 38.1618 146.675 37.5225 146.228C36.711 145.638 33.9446 154.897 38.8767 161.638C43.8089 168.379 45.049 170.06 52.9601 172.634C53.7979 172.9 54.6498 172.743 55.6141 175.293C55.6921 175.495 55.8188 175.643 55.9675 175.706C56.1162 175.77 56.2754 175.744 56.4116 175.633L56.4502 175.604L56.459 175.58Z" fill="#D8A97E"/>
<path d="M65.3748 183.158C65.3748 183.158 64.53 183.547 64.9761 184.964C65.2923 185.972 65.8297 185.871 65.8297 185.871C65.8297 185.871 66.8643 183.267 65.3748 183.158Z" fill="#D8A97E"/>
<path d="M63.26 197.92C63.0731 196.62 62.5646 195.478 61.8391 194.729C61.2361 194.101 60.7613 193.231 60.4682 192.217C60.1752 191.202 60.0757 190.083 60.1809 188.987C60.246 188.322 60.3561 187.669 60.5094 187.038C55.0749 188.368 54.0105 184.943 54.0105 184.943C51.0245 196.361 54.4268 198.521 55.2558 205.057C56.0849 211.593 49.8318 222.488 49.8318 222.488L50.0988 222.469C51.1299 222.355 54.9555 221.536 56.5293 215.616C56.5293 215.616 57.7693 212.117 58.9707 209.338C59.6243 208.723 60.183 207.903 60.6091 206.934C61.0352 205.964 61.3186 204.867 61.4403 203.717L61.6792 204.134C62.2255 202.323 61.6792 200.039 61.6792 200.039L62.6418 200.432C62.591 199.438 62.3674 198.482 61.9936 197.662C62.3958 197.901 62.8303 197.99 63.26 197.92Z" fill="#D8A97E"/>
<path d="M111.182 282.955C111.182 282.955 112.79 274.467 110.882 268.218C110.071 265.605 109.826 262.653 110.186 259.806C110.366 258.455 110.626 257.133 110.962 255.856" stroke="#7E7064" stroke-width="2" stroke-miterlimit="10"/>
<path d="M109.833 252.045C109.833 253.097 111.027 256.157 111.027 256.157C111.027 256.157 112.214 253.097 112.214 252.045C112.214 251.538 112.088 251.053 111.864 250.695C111.64 250.337 111.336 250.135 111.019 250.135C110.703 250.135 110.399 250.337 110.175 250.695C109.951 251.053 109.825 251.538 109.825 252.045H109.833Z" fill="#50A495"/>
<path d="M107.663 257.785C108.045 258.623 110.223 260.072 110.223 260.072C110.223 260.072 110.182 256.661 109.801 255.823C109.713 255.616 109.596 255.437 109.458 255.295C109.319 255.153 109.162 255.053 108.996 254.999C108.83 254.944 108.657 254.938 108.489 254.981C108.321 255.023 108.161 255.112 108.018 255.244C107.875 255.375 107.752 255.546 107.656 255.747C107.56 255.947 107.494 256.173 107.461 256.41C107.428 256.647 107.429 256.892 107.464 257.129C107.498 257.365 107.566 257.59 107.663 257.789V257.785Z" fill="#50A495"/>
<path d="M107.751 267.641C108.39 268.12 110.82 267.789 110.82 267.789C110.82 267.789 109.554 264.672 108.915 264.193C108.763 264.078 108.598 264.01 108.428 263.991C108.259 263.973 108.089 264.004 107.927 264.084C107.766 264.163 107.617 264.289 107.488 264.455C107.359 264.621 107.254 264.823 107.177 265.049C107.101 265.276 107.055 265.523 107.042 265.776C107.03 266.029 107.051 266.284 107.104 266.525C107.157 266.766 107.242 266.989 107.353 267.181C107.464 267.373 107.599 267.531 107.751 267.645V267.641Z" fill="#50A495"/>
<path d="M108.9 275.139C109.457 275.754 111.816 276.03 111.816 276.03C111.816 276.03 110.947 272.747 110.39 272.136C110.122 271.866 109.794 271.76 109.475 271.841C109.156 271.922 108.87 272.184 108.678 272.572C108.485 272.96 108.401 273.444 108.442 273.922C108.484 274.401 108.648 274.837 108.9 275.139Z" fill="#50A495"/>
<path d="M112.845 260.355C112.348 261.102 110.024 261.878 110.024 261.878C110.024 261.878 110.592 258.318 111.1 257.571C111.341 257.23 111.659 257.047 111.987 257.062C112.314 257.076 112.625 257.287 112.853 257.649C113.081 258.012 113.209 258.497 113.209 259.002C113.209 259.508 113.081 259.993 112.853 260.355H112.845Z" fill="#50A495"/>
<path d="M114.126 269.146C113.521 269.625 111.218 269.295 111.218 269.295C111.218 269.295 112.418 266.177 113.023 265.698C113.314 265.467 113.651 265.428 113.959 265.589C114.268 265.75 114.524 266.097 114.67 266.555C114.816 267.013 114.841 267.543 114.739 268.03C114.637 268.517 114.417 268.92 114.126 269.15V269.146Z" fill="#50A495"/>
<path d="M114.56 277.849C114.035 278.464 111.816 278.74 111.816 278.74C111.816 278.74 112.633 275.457 113.157 274.846C113.409 274.576 113.718 274.47 114.018 274.551C114.319 274.632 114.588 274.894 114.769 275.282C114.95 275.67 115.029 276.154 114.99 276.632C114.951 277.111 114.797 277.547 114.56 277.849Z" fill="#50A495"/>
<path d="M113.282 283.547C113.282 283.547 111.874 283.121 111.499 282.553C111.125 281.984 109.435 280.991 109.246 281.701C109.058 282.41 106.712 284.823 108.309 285.249C109.905 285.675 112.062 285.812 112.526 285.533C112.99 285.253 113.282 283.547 113.282 283.547Z" fill="#666666"/>
<path opacity="0.2" d="M108.307 284.992C109.903 285.418 112.061 285.555 112.525 285.276C112.882 285.06 113.13 284.02 113.228 283.538L113.275 283.553C113.275 283.553 112.994 285.257 112.525 285.54C112.056 285.824 109.898 285.683 108.307 285.257C107.847 285.133 107.716 284.846 107.765 284.48C107.805 284.713 107.965 284.897 108.307 284.992Z" fill="black"/>
<path opacity="0.1" d="M15.3865 258.451C15.3272 258.581 15.2804 258.723 15.2476 258.873C14.0543 260.994 13.4179 262.974 14.5653 263.024C15.6334 263.071 16.916 265.961 17.2224 266.691C17.2125 266.748 17.2005 266.803 17.1864 266.858C17.1864 266.858 15.6842 263.079 14.4574 263.026C13.2306 262.974 14.0419 260.723 15.3865 258.451Z" fill="#69ACA0"/>
<path d="M18.9863 258.451C18.9863 258.451 19.6673 259.798 18.6712 261.829C17.6752 263.859 16.854 265.582 17.1827 266.851C17.1827 266.851 18.6849 263.071 19.9117 263.019C21.1385 262.966 20.3322 260.723 18.9863 258.451Z" fill="#50A495"/>
<path d="M14.858 259.053C14.858 259.053 14.177 260.4 15.1731 262.431C16.1692 264.461 16.9903 266.184 16.6616 267.453C16.6616 267.453 15.1594 263.673 13.9326 263.621C12.7058 263.568 13.5121 261.326 14.858 259.053Z" fill="#50A495"/>
<path d="M20.0357 266.68C20.0357 266.68 18.1304 266.591 17.5548 265.972C16.9792 265.353 14.6236 264.615 14.4822 265.606C14.3408 266.597 11.6192 270.54 13.7701 270.566C15.9211 270.592 18.768 270.059 19.341 269.53C19.9141 269.001 20.0357 266.68 20.0357 266.68Z" fill="#666666"/>
<path opacity="0.2" d="M13.7329 270.223C15.8839 270.249 18.7307 269.716 19.3038 269.187C19.7405 268.785 19.9141 267.342 19.9724 266.676H20.0357C20.0357 266.676 19.9117 269.001 19.3423 269.528C18.7729 270.056 15.9223 270.591 13.7714 270.564C13.1512 270.564 12.9366 270.223 12.9477 269.727C13.0333 270.029 13.2678 270.217 13.7329 270.223Z" fill="black"/>
<path d="M47.2651 266.965C46.7422 266.312 46.3612 265.43 46.1725 264.438C46.0298 263.432 46.3094 262.23 46.937 261.862C47.6388 261.451 48.3891 262.195 48.9568 262.951C49.5245 263.708 50.1778 264.565 50.9224 264.403C50.5397 263.871 50.2534 263.197 50.0914 262.445C49.9294 261.693 49.8973 260.89 49.9981 260.113C50.0302 259.792 50.119 259.489 50.2548 259.239C50.6456 258.6 51.3503 258.876 51.8181 259.379C53.3016 260.979 53.7152 264.066 53.7238 266.847C53.8721 265.846 53.7466 264.801 53.7523 263.786C53.758 262.772 53.9406 261.6 54.5055 261.067C54.8557 260.778 55.2491 260.635 55.6466 260.651C56.3141 260.612 57.0559 260.717 57.5123 261.464C58.0829 262.391 57.9317 263.952 57.4381 264.962C56.9446 265.972 56.1972 266.624 55.5068 267.332C54.9535 267.837 54.4815 268.526 54.126 269.348C54.0842 269.462 54.0498 269.582 54.0233 269.707H49.844C48.9076 268.975 48.0401 268.053 47.2651 266.965Z" fill="#50A495"/>
<path d="M82.5277 289.558C82.1732 289.122 81.9149 288.535 81.7869 287.873C81.6902 287.202 81.8797 286.401 82.3052 286.156C82.781 285.882 83.2897 286.378 83.6746 286.882C84.0595 287.386 84.5024 287.957 85.0072 287.85C84.7477 287.495 84.5536 287.045 84.4438 286.544C84.334 286.043 84.3122 285.508 84.3805 284.99C84.4023 284.775 84.4625 284.574 84.5546 284.407C84.8196 283.981 85.2973 284.165 85.6145 284.5C86.6202 285.567 86.9006 287.625 86.9064 289.479C87.007 288.812 86.9219 288.115 86.9258 287.439C86.9297 286.762 87.0534 285.981 87.4364 285.625C87.6739 285.433 87.9405 285.338 88.21 285.349C88.6626 285.322 89.1655 285.392 89.4749 285.891C89.8617 286.509 89.7592 287.549 89.4246 288.223C89.09 288.896 88.5833 289.33 88.1153 289.803C87.7401 290.139 87.4202 290.598 87.1792 291.146C87.1508 291.222 87.1275 291.303 87.1095 291.385H84.2761C83.6412 290.898 83.0531 290.283 82.5277 289.558Z" fill="#50A495"/>
<path d="M66.9279 245.18C66.7005 244.9 66.5349 244.522 66.4528 244.096C66.3908 243.664 66.5123 243.148 66.7852 242.99C67.0904 242.814 67.4166 243.133 67.6635 243.458C67.9103 243.782 68.1944 244.15 68.5181 244.081C68.3517 243.852 68.2273 243.563 68.1568 243.24C68.0864 242.918 68.0724 242.573 68.1162 242.24C68.1302 242.102 68.1688 241.972 68.2279 241.864C68.3978 241.59 68.7042 241.709 68.9077 241.924C69.5527 242.611 69.7326 243.936 69.7363 245.13C69.8008 244.7 69.7462 244.251 69.7487 243.816C69.7512 243.381 69.8306 242.878 70.0762 242.649C70.2285 242.525 70.3995 242.464 70.5723 242.47C70.8626 242.454 71.1851 242.499 71.3836 242.82C71.6317 243.217 71.5659 243.887 71.3514 244.321C71.1368 244.754 70.8118 245.034 70.5116 245.338C70.271 245.554 70.0657 245.85 69.9112 246.203C69.893 246.252 69.878 246.304 69.8665 246.357H68.0493C67.6421 246.043 67.2649 245.647 66.9279 245.18Z" fill="#50A495"/>
<path opacity="0.7" d="M265.167 129.642L272.566 122.238C273.811 120.993 275.829 120.993 277.074 122.237C277.075 122.238 277.075 122.238 277.075 122.238L296.774 141.947C297.969 143.142 298.64 144.764 298.64 146.454V276.989" stroke="#5293A0" stroke-width="3"/>
<path opacity="0.7" d="M309.001 276.591H287.881C287.221 276.591 286.685 277.126 286.685 277.786V278.185C286.685 278.845 287.221 279.38 287.881 279.38H309.001C309.661 279.38 310.196 278.845 310.196 278.185V277.786C310.196 277.126 309.661 276.591 309.001 276.591Z" fill="#5293A0"/>
<path fill-rule="evenodd" clip-rule="evenodd" d="M269.617 125.298C274.753 130.434 274.753 138.76 269.617 143.895L261.728 151.785L243.13 133.188L251.02 125.298C256.156 120.163 264.482 120.163 269.617 125.298Z" fill="#5293A0"/>
<path d="M250.565 144.451C255.701 149.586 260.684 152.929 261.695 151.918C262.707 150.906 259.364 145.923 254.228 140.788C249.093 135.652 244.11 132.309 243.098 133.321C242.087 134.332 245.43 139.315 250.565 144.451Z" fill="#5293A0"/>
<path d="M250.88 144.071C255.898 149.089 260.786 152.337 261.797 151.325C262.809 150.314 259.561 145.426 254.543 140.408C249.525 135.39 244.637 132.142 243.625 133.154C242.614 134.165 245.862 139.053 250.88 144.071Z" fill="white"/>
<path d="M182.096 205.907V238.077C182.095 238.623 182.169 239.167 182.316 239.693C182.669 240.973 183.432 242.101 184.488 242.905C185.544 243.709 186.835 244.145 188.162 244.145H215.354C216.151 244.145 216.94 243.988 217.676 243.684C218.413 243.379 219.082 242.932 219.645 242.368C220.209 241.805 220.656 241.136 220.961 240.399C221.265 239.663 221.422 238.874 221.422 238.077V205.907C221.422 205.11 221.265 204.321 220.961 203.585C220.656 202.848 220.209 202.179 219.645 201.616C219.082 201.052 218.413 200.605 217.676 200.301C216.94 199.996 216.151 199.839 215.354 199.839H188.162C186.835 199.839 185.544 200.275 184.488 201.079C183.432 201.883 182.669 203.011 182.316 204.291C182.169 204.817 182.095 205.361 182.096 205.907Z" fill="white"/>
<path opacity="0.1" d="M220.983 205.907V238.077C220.983 238.624 221.057 239.168 221.203 239.695C221.348 239.168 221.422 238.624 221.422 238.077V205.907C221.422 205.36 221.348 204.816 221.203 204.289C221.057 204.816 220.983 205.36 220.983 205.907Z" fill="black"/>
<path d="M227.49 199.839H263.013C266.364 199.839 269.08 202.556 269.08 205.907V238.068C269.08 241.419 266.364 244.136 263.013 244.136H227.49C224.139 244.136 221.422 241.419 221.422 238.068V205.907C221.422 202.556 224.139 199.839 227.49 199.839Z" fill="white"/>
<path opacity="0.1" d="M182.096 205.907V238.077C182.095 238.623 182.169 239.167 182.316 239.693C182.461 239.167 182.535 238.623 182.535 238.077V205.907C182.535 205.361 182.461 204.817 182.316 204.291C182.169 204.817 182.095 205.361 182.096 205.907Z" fill="black"/>
<path d="M140.504 199.839H176.029C179.38 199.839 182.097 202.556 182.097 205.907V238.068C182.097 241.419 179.38 244.136 176.029 244.136H140.504C137.153 244.136 134.436 241.419 134.436 238.068V205.907C134.436 202.556 137.153 199.839 140.504 199.839Z" fill="white"/>
<path opacity="0.1" d="M223.834 247.425H267.37L267.589 243.621C267.83 239.349 262.309 235.803 255.412 235.803H225.781C223.468 235.803 221.683 237.062 221.979 238.483L223.834 247.425Z" fill="black"/>
<path d="M223.834 247.864H267.37L267.589 244.059C267.83 239.787 262.309 236.241 255.412 236.241H225.781C223.468 236.241 221.683 237.5 221.979 238.921L223.834 247.864Z" fill="#5293A0"/>
<path opacity="0.1" d="M180.208 247.678H136.673L136.453 243.873C136.212 239.601 141.734 236.055 148.631 236.055H178.261C180.572 236.055 182.36 237.314 182.064 238.735L180.208 247.678Z" fill="black"/>
<path d="M180.208 248.116H136.673L136.453 244.311C136.212 240.04 141.734 236.494 148.631 236.494H178.261C180.572 236.494 182.36 237.752 182.064 239.173L180.208 248.116Z" fill="#5293A0"/>
<path opacity="0.1" d="M216.295 236.055H186.796C185.973 236.055 185.157 236.217 184.397 236.532C183.636 236.847 182.945 237.309 182.363 237.891C181.781 238.474 181.319 239.165 181.004 239.925C180.689 240.686 180.526 241.501 180.526 242.325V246.219H223.176V242.93C223.175 241.106 222.449 239.357 221.159 238.068C219.869 236.778 218.119 236.055 216.295 236.055Z" fill="black"/>
<path d="M216.295 236.494H186.796C185.973 236.494 185.157 236.656 184.397 236.971C183.636 237.286 182.945 237.748 182.363 238.33C181.781 238.912 181.319 239.603 181.004 240.364C180.689 241.125 180.526 241.94 180.526 242.763V246.658H223.176V243.368C223.175 241.544 222.449 239.795 221.159 238.506C219.869 237.217 218.119 236.493 216.295 236.494Z" fill="#5293A0"/>
<path d="M264.396 240.408H229.09C227.52 240.408 226.014 241.032 224.904 242.142C223.793 243.253 223.17 244.759 223.17 246.329V254.333H267.021V243.033C267.019 242.337 266.742 241.671 266.25 241.179C265.759 240.687 265.092 240.41 264.396 240.408Z" fill="white"/>
<path d="M218.352 240.408H184.8C183.23 240.408 181.724 241.032 180.614 242.142C179.503 243.253 178.88 244.759 178.88 246.329V254.333H223.942V246C223.942 244.517 223.353 243.095 222.305 242.047C221.256 240.998 219.835 240.409 218.352 240.408Z" fill="white"/>
<path d="M177.064 240.408H141.216C139.719 240.408 138.282 241.003 137.224 242.062C136.165 243.121 135.57 244.557 135.57 246.055V254.333H179.415V242.759C179.415 242.45 179.354 242.145 179.236 241.859C179.118 241.574 178.944 241.315 178.726 241.097C178.508 240.878 178.249 240.705 177.963 240.587C177.678 240.469 177.373 240.408 177.064 240.408Z" fill="white"/>
<path opacity="0.7" d="M266.377 272.863V278.839C266.377 279.638 266.695 280.405 267.26 280.97C267.826 281.536 268.592 281.853 269.392 281.854H271.475C272.275 281.853 273.041 281.536 273.606 280.97C274.172 280.405 274.49 279.638 274.49 278.839V272.863H266.377Z" fill="#5293A0"/>
<path opacity="0.7" d="M128.34 272.863V278.839C128.34 279.638 128.658 280.405 129.223 280.97C129.789 281.536 130.555 281.853 131.355 281.854H133.438C134.238 281.853 135.004 281.536 135.57 280.97C136.135 280.405 136.453 279.638 136.453 278.839V272.863H128.34Z" fill="#5293A0"/>
<path opacity="0.4" d="M264.164 233.643C264.164 232.126 264.595 230.641 265.406 229.359C266.218 228.078 267.377 227.054 268.749 226.406C270.12 225.758 271.647 225.513 273.153 225.699C274.658 225.886 276.079 226.497 277.251 227.46C278.423 228.423 279.296 229.699 279.771 231.14C280.245 232.581 280.3 234.127 279.93 235.597C279.559 237.068 278.779 238.404 277.678 239.448C276.578 240.492 275.204 241.202 273.716 241.496V273.85H264.725V236.597C264.353 235.656 264.163 234.654 264.164 233.643Z" fill="white"/>
<path opacity="0.4" d="M138.988 233.643C138.988 232.126 138.557 230.641 137.746 229.359C136.934 228.078 135.775 227.054 134.404 226.406C133.032 225.758 131.505 225.513 130 225.699C128.494 225.886 127.073 226.497 125.901 227.46C124.73 228.423 123.856 229.699 123.382 231.14C122.907 232.581 122.852 234.127 123.223 235.597C123.593 237.068 124.374 238.404 125.474 239.448C126.574 240.492 127.948 241.202 129.436 241.496V273.85H138.427V236.597C138.799 235.656 138.989 234.654 138.988 233.643Z" fill="white"/>
<path opacity="0.7" d="M134.436 253.895H267.585V268.258H134.436V253.895Z" fill="#5293A0"/>
<path opacity="0.1" d="M128.342 272.863H136.442V274.946H128.342V272.863Z" fill="black"/>
<path d="M137.008 234.301C137.008 232.784 136.578 231.298 135.766 230.016C134.954 228.735 133.794 227.71 132.423 227.062C131.051 226.414 129.523 226.169 128.018 226.356C126.512 226.543 125.091 227.154 123.919 228.118C122.747 229.082 121.874 230.359 121.4 231.8C120.926 233.242 120.872 234.788 121.243 236.259C121.615 237.73 122.397 239.065 123.498 240.109C124.599 241.152 125.974 241.862 127.462 242.154V274.508H136.453V237.255C136.824 236.314 137.012 235.312 137.008 234.301Z" fill="white"/>
<path opacity="0.1" d="M266.491 272.863H274.49V274.946H266.491V272.863Z" fill="black"/>
<path d="M265.925 234.301C265.925 232.784 266.356 231.299 267.167 230.018C267.979 228.737 269.138 227.713 270.509 227.065C271.88 226.417 273.407 226.172 274.912 226.358C276.417 226.545 277.838 227.155 279.01 228.117C280.181 229.08 281.056 230.356 281.53 231.796C282.005 233.236 282.061 234.781 281.692 236.252C281.322 237.723 280.543 239.058 279.443 240.103C278.344 241.148 276.971 241.859 275.484 242.154V274.508H266.493V237.255C266.117 236.315 265.925 235.313 265.925 234.301Z" fill="white"/>
<path opacity="0.4" d="M274.49 237.667C272.492 237.667 270.872 236.047 270.872 234.049C270.872 232.05 272.492 230.43 274.49 230.43C276.488 230.43 278.108 232.05 278.108 234.049C278.108 236.047 276.488 237.667 274.49 237.667Z" fill="white"/>
<path opacity="0.4" d="M128.342 237.667C126.343 237.667 124.724 236.047 124.724 234.049C124.724 232.05 126.343 230.43 128.342 230.43C130.34 230.43 131.96 232.05 131.96 234.049C131.96 236.047 130.34 237.667 128.342 237.667Z" fill="white"/>
<path d="M236.22 227.933C239.667 227.071 246.945 217.984 246.945 217.984C249.682 216.071 255.263 204.488 255.263 204.488C255.263 204.488 257.381 203.491 259.247 207.977C261.114 212.464 271.966 216.052 275.216 216.554C277.047 216.837 276.87 217.65 276.365 218.308C276.025 218.73 275.574 219.049 275.063 219.229C273.681 219.753 269.394 224.9 269.394 224.9C265.396 227.602 260.962 240.081 259.489 243.342C258.671 245.156 257.761 244.287 257.111 243.158C255.858 240.978 254.142 239.099 252.083 237.654C246.504 233.731 240.524 232.104 240.116 232.097C239.601 232.084 232.772 228.795 236.22 227.933Z" fill="#3C6E75"/>
<path d="M279.668 216.973C280.19 216.79 280.653 216.468 281.005 216.041C281.538 215.383 281.755 214.541 279.951 214.225C276.751 213.663 266.135 209.839 264.504 205.188C262.872 200.537 260.714 201.543 260.714 201.543C260.714 201.543 254.609 213.385 251.798 215.328C251.798 215.328 244.123 224.586 240.66 225.431C237.198 226.275 243.816 229.744 244.327 229.764C244.733 229.777 250.592 231.518 255.949 235.639C257.934 237.168 259.548 239.126 260.671 241.366C261.26 242.537 262.124 243.443 263.026 241.586C264.646 238.246 269.659 225.455 273.76 222.727C273.76 222.727 278.271 217.492 279.668 216.973Z" fill="#5293A0"/>
<path opacity="0.1" d="M267.37 221.159C267.37 221.159 268.519 222.24 263.024 220.168C257.528 218.095 267.37 221.159 267.37 221.159Z" fill="black"/>
<path opacity="0.1" d="M262.859 226.433C262.859 226.433 262.021 226.553 258.87 225.266C255.719 223.979 262.859 226.433 262.859 226.433Z" fill="black"/>
<path opacity="0.1" d="M263.135 236.117C263.135 236.117 262.353 236.117 259.208 234.814C256.063 233.511 263.135 236.117 263.135 236.117Z" fill="black"/>
<path opacity="0.1" d="M134.874 214.438V218.622C135.778 220.49 136.662 222.876 136.662 222.876C139.293 226.301 138.877 237.713 139.05 240.794C139.146 242.505 140.267 242.097 141.243 241.395C143.171 240.021 145.361 239.056 147.677 238.56C154.036 237.167 159.957 237.746 160.334 237.869C160.799 238.022 168.062 237.533 165.281 235.755C162.501 233.976 159.176 224.396 159.176 224.396C157.398 222.001 156.47 210.949 156.47 210.949C156.47 210.949 154.935 209.482 151.679 212.484C148.589 215.363 138.493 215.012 134.874 214.438Z" fill="#5293A0"/>
<path d="M134.217 217.273C133.831 216.98 133.538 216.58 133.375 216.124C133.156 215.44 133.279 214.731 135.018 215.08C138.099 215.698 149.072 216.24 152.317 213.227C155.563 210.214 157.109 211.681 157.109 211.681C157.109 211.681 158.036 222.731 159.815 225.128C159.815 225.128 163.137 234.709 165.92 236.487C168.703 238.266 161.438 238.755 160.973 238.599C160.604 238.476 154.684 237.899 148.315 239.292C146 239.788 143.811 240.752 141.881 242.125C140.905 242.827 139.785 243.237 139.688 241.524C139.515 238.454 139.927 227.034 137.3 223.608C137.3 223.608 135.27 218.128 134.217 217.273Z" fill="#3B6E75"/>
<path opacity="0.1" d="M132.482 215.885C132.096 215.591 131.803 215.192 131.64 214.736C131.421 214.052 131.544 213.343 133.283 213.692C136.364 214.31 147.337 214.852 150.582 211.839C153.828 208.826 155.374 210.293 155.374 210.293C155.374 210.293 156.301 221.343 158.08 223.74C158.08 223.74 161.402 233.321 164.185 235.099C166.968 236.877 159.703 237.366 159.238 237.211C158.869 237.088 152.949 236.511 146.58 237.904C144.265 238.4 142.076 239.364 140.146 240.737C139.171 241.439 138.05 241.849 137.953 240.136C137.78 237.066 138.192 225.645 135.565 222.22C135.565 222.22 133.535 216.74 132.482 215.885Z" fill="#666666"/>
<path d="M133.276 216.378C132.909 216.098 132.632 215.717 132.478 215.282C132.258 214.624 132.386 213.966 134.035 214.293C136.962 214.878 147.381 215.389 150.462 212.539C153.543 209.688 155.012 211.072 155.012 211.072C155.012 211.072 155.889 221.562 157.58 223.836C157.58 223.836 160.733 232.935 163.376 234.623C166.018 236.312 159.119 236.775 158.681 236.628C158.33 236.511 152.707 235.97 146.661 237.286C144.463 237.755 142.385 238.671 140.554 239.976C139.627 240.634 138.563 241.031 138.471 239.406C138.307 236.481 138.69 225.648 136.204 222.394C136.204 222.391 134.276 217.19 133.276 216.378Z" fill="#5293A0"/>
<path opacity="0.1" d="M140.997 222.426C140.997 222.426 141.765 222.865 145.438 224.126C149.111 225.387 141.6 223.632 140.997 222.426Z" fill="black"/>
<path opacity="0.1" d="M141.381 226.297C141.381 226.297 143.683 228.183 144.835 228.347C145.986 228.512 142.039 228.139 141.381 226.297Z" fill="black"/>
<path opacity="0.1" d="M139.55 235.007C139.55 235.007 141.852 236.893 143.004 237.057C144.155 237.222 140.208 236.854 139.55 235.007Z" fill="black"/>
<path d="M247.325 211.74L247.599 215.223L245.908 218.889L243.518 220.995L240.917 222.53L238.505 224.209L236.093 222.043C236.093 222.043 239.625 219.775 239.941 219.006C240.257 218.236 241.845 216.677 241.845 216.677L244.086 214.51L245.906 212.85L247.325 211.74Z" fill="#FD6F8D"/>
<path opacity="0.1" d="M247.325 211.74L247.599 215.223L245.908 218.889L243.518 220.995L240.917 222.53L238.505 224.209L236.093 222.043C236.093 222.043 239.625 219.775 239.941 219.006C240.257 218.236 241.845 216.677 241.845 216.677L244.086 214.51L245.906 212.85L247.325 211.74Z" fill="black"/>
<path d="M258.272 198.221C259.149 199.94 259.89 202.467 259.044 205.315C257.478 210.578 268.956 203.214 268.956 203.214C268.956 203.214 266.482 199.521 265.758 196.333C265.524 195.3 265.473 194.318 265.758 193.533C266.896 190.329 256.717 195.881 256.717 195.881C257.334 196.591 257.856 197.377 258.272 198.221Z" fill="#FFE0D9"/>
<path opacity="0.1" d="M259.73 203.072C259.73 203.072 255.412 203.232 254.824 204.46C254.237 205.688 253.011 207.611 252.476 207.879C251.941 208.146 246.283 212.791 245.803 213.003C245.322 213.216 240.463 218.288 240.463 218.823C240.463 219.358 235.443 222.455 232.24 222.935C229.036 223.415 224.126 229.183 222.683 228.968C221.24 228.753 218.297 229.823 218.297 229.823C218.297 229.823 214.986 229.663 214.185 229.128C213.385 228.593 210.396 229.663 211.089 230.944C211.782 232.224 214.293 231.799 214.88 232.547C215.468 233.294 216.909 234.095 218.297 234.255C219.685 234.415 220.753 234.52 221.821 234.788C222.889 235.055 222.621 235.588 224.233 235.323C225.845 235.058 232.082 223.948 232.082 223.948L239.022 220.799C239.022 220.799 241.638 218.663 241.853 217.968C242.068 217.273 247.086 212.523 247.086 212.523L253.653 207.716L259.73 203.072Z" fill="black"/>
<path d="M259.41 203.072C259.41 203.072 255.092 203.232 254.504 204.46C253.916 205.688 252.688 207.611 252.156 207.879C251.623 208.146 245.963 212.791 245.48 213.003C244.998 213.216 240.143 218.288 240.143 218.823C240.143 219.358 235.123 222.455 231.919 222.935C228.716 223.415 223.806 229.183 222.363 228.968C220.92 228.753 217.977 229.823 217.977 229.823C217.977 229.823 214.666 229.663 213.865 229.128C213.065 228.593 210.074 229.663 210.769 230.944C211.464 232.224 213.973 231.799 214.56 232.547C215.148 233.294 216.589 234.095 217.977 234.255C219.365 234.415 220.442 234.52 221.507 234.788C222.573 235.055 222.308 235.588 223.92 235.323C225.531 235.058 231.768 223.948 231.768 223.948L238.709 220.799C238.709 220.799 241.325 218.663 241.54 217.968C241.755 217.273 246.757 212.523 246.757 212.523L253.335 207.716L259.41 203.072Z" fill="#FD6F8D"/>
<path d="M236.921 226.922C236.921 226.922 230.441 221.19 230.123 220.764C229.966 220.545 227.915 218.999 225.885 217.475C223.361 215.592 220.996 213.506 218.812 211.238C217.35 209.721 215.784 208.205 215.245 208.085C214.148 207.835 211.365 207.942 210.795 208.903C210.225 209.863 207.769 211.609 207.769 211.609L205.668 213.955C205.668 213.955 200.719 217.799 197.515 221.323C194.311 224.847 190.539 228.656 189.182 228.799C187.824 228.941 185.765 230.685 185.765 230.685C185.765 230.685 182.847 232.11 181.818 233.248C180.79 234.386 179.077 235.492 177.334 235.562C175.59 235.632 178.259 236.987 181.143 236.807C184.026 236.628 187.548 235.739 188.796 235.954C190.044 236.169 193.528 236.202 193.528 235.562C193.528 234.921 193.173 233.426 193.173 233.426C193.173 233.426 197.017 230.231 200.925 229.555C204.833 228.88 213.392 222.507 213.321 219.554C213.321 219.554 214.53 219.446 215.92 221.582C215.92 221.582 216.916 222.437 218.589 224.821C220.262 227.205 222.255 230.621 222.255 230.621C222.255 230.621 225.352 236.882 227.843 236.832C230.334 236.781 233.005 236.494 233.005 236.494L236.316 234.145L236.536 231.294L236.921 226.922Z" fill="#FFD3CA"/>
<path d="M235.426 227.242C235.426 227.242 228.948 221.512 228.628 221.084C228.308 220.657 220.264 214.747 220.264 214.747C220.264 214.747 214.854 208.662 213.749 208.412C212.644 208.162 209.87 208.269 209.3 209.23C208.729 210.19 206.276 211.936 206.276 211.936L204.175 214.284C204.175 214.284 199.228 218.128 196.024 221.652C192.82 225.176 189.046 228.985 187.691 229.128C186.335 229.271 184.274 231.016 184.274 231.016C184.274 231.016 181.355 232.439 180.327 233.577C179.298 234.716 177.586 235.821 175.842 235.891C174.099 235.961 176.768 237.316 179.651 237.136C182.535 236.957 186.059 236.071 187.305 236.283C188.55 236.496 192.035 236.542 192.035 235.884C192.035 235.226 191.677 233.748 191.677 233.748C191.677 233.748 195.522 230.547 199.438 229.869C203.355 229.192 211.889 222.828 211.826 219.876C211.826 219.876 213.036 219.769 214.424 221.905C214.424 221.905 215.42 222.76 217.093 225.143C218.766 227.527 220.76 230.946 220.76 230.946C220.76 230.946 223.856 237.2 226.349 237.154C228.843 237.108 231.509 236.816 231.509 236.816L234.821 234.468L235.04 231.617L235.426 227.242Z" fill="#FFE0D9"/>
<path opacity="0.1" d="M214.576 230.578C214.751 230.652 214.922 230.742 215.091 230.832L216.188 231.417C215.232 231.575 214.26 231.604 213.297 231.503C212.762 231.446 212.01 230.992 212.62 230.455C213.104 230.034 214.082 230.363 214.576 230.578Z" fill="black"/>
<path opacity="0.1" d="M219.587 231.336C218.992 231.218 218.352 231.102 217.797 231.336C217.607 231.428 217.427 231.539 217.26 231.667L216.308 232.354C217.128 232.596 217.971 232.75 218.823 232.814C218.937 232.83 219.052 232.825 219.163 232.801C219.31 232.75 219.442 232.666 219.551 232.556C220.295 231.937 220.797 231.577 219.587 231.336Z" fill="black"/>
<path d="M260.847 195.982C260.847 195.982 268.181 194.781 268.181 190.456C268.181 186.131 264.675 182.625 260.35 182.625C256.026 182.625 252.692 184.718 252.692 189.043C252.692 189.563 252.619 189.737 252.692 190.084C252.765 190.43 252.345 191.818 251.478 193.033C251.062 193.615 251.825 194.247 252.866 194.247C253.039 194.941 252.766 195.226 252.866 195.462C252.899 195.542 252.977 195.596 253.052 195.648L253.213 195.809C253.273 195.992 253.308 196.232 253.386 196.329C253.583 196.573 253.771 196.473 253.907 196.676C254.254 197.197 253.56 197.717 254.254 198.238C256.336 198.758 260.847 195.982 260.847 195.982Z" fill="#FFE0D9"/>
<path d="M259.408 203.072L259.826 203.747L254.741 209.267L252.351 210.938L250.969 209.085L259.408 203.072Z" fill="#504F88"/>
<path d="M251.581 208.995C251.581 208.995 249.075 208.679 247.917 210.6C247.234 211.709 246.803 212.955 246.654 214.249C246.654 214.249 245.498 215.175 245.603 215.692C245.69 216.024 245.892 216.314 246.173 216.51C246.173 216.51 248.417 215.229 248.434 215.175C248.452 215.12 250.16 213.234 250.16 213.234L251.581 211.74V208.995Z" fill="#504F88"/>
<path opacity="0.1" d="M266.679 201.364C266.679 201.364 270.593 201.675 270.986 204.407C271.379 207.14 271.519 208.697 270.131 210.582C268.743 212.468 265.896 213.253 265.896 213.253C265.896 213.253 261.589 216.635 261.552 218.698C261.515 220.762 257.886 225.391 257.886 225.391C257.886 225.391 250.976 230.516 251.476 232.154C251.976 233.792 252.12 238.454 250.305 238.882C248.489 239.31 245.535 238.952 245.108 239.487C244.68 240.022 237.632 239.202 237.632 239.202C237.632 239.202 233.718 238.312 231.119 239.095C229.501 239.545 227.776 239.418 226.242 238.735C226.242 238.735 223.216 238.45 223.038 237.239C222.86 236.029 221.503 236.066 222.788 235.851C224.073 235.636 224.889 236.314 225.814 235.994C226.74 235.674 227.523 234.606 229.659 234.641C231.794 234.676 232.29 234.713 232.509 234.676C232.729 234.639 231.156 233.43 232.011 231.474C232.867 229.518 234.5 227.99 234.428 226.893C234.356 225.797 237.632 222.051 237.632 222.051C237.632 222.051 239.198 219.775 241.228 219.027C243.259 218.28 247.066 213.685 247.066 213.685C247.066 213.685 250.327 208.609 252.096 208.337C253.866 208.065 259.666 202.855 259.666 202.855C259.666 202.855 264.585 200.826 266.679 201.364Z" fill="black"/>
<path d="M266.784 201.576C266.784 201.576 270.701 201.894 271.098 204.62C271.495 207.346 271.631 208.909 270.243 210.797C268.855 212.685 266.006 213.466 266.006 213.466C266.006 213.466 261.699 216.848 261.664 218.913C261.629 220.979 257.998 225.604 257.998 225.604C257.998 225.604 251.083 230.731 251.581 232.376C252.079 234.02 252.224 238.676 250.41 239.103C248.597 239.531 245.638 239.176 245.213 239.709C244.787 240.241 237.737 239.424 237.737 239.424C237.737 239.424 233.821 238.535 231.222 239.318C229.605 239.768 227.882 239.639 226.349 238.954C226.349 238.954 223.323 238.669 223.146 237.461C222.968 236.253 221.611 236.285 222.896 236.073C224.181 235.86 224.996 236.535 225.922 236.213C226.847 235.891 227.63 234.825 229.766 234.862C231.902 234.9 232.398 234.932 232.617 234.897C232.836 234.862 231.266 233.652 232.119 231.694C232.972 229.735 234.61 228.205 234.531 227.102C234.452 225.999 237.735 222.26 237.735 222.26C237.735 222.26 239.301 219.983 241.329 219.236C243.358 218.488 247.167 213.896 247.167 213.896C247.167 213.896 250.43 208.819 252.197 208.545C253.965 208.271 259.769 203.074 259.769 203.074C259.769 203.074 264.692 201.039 266.784 201.576Z" fill="#FD6F8D"/>
<path opacity="0.1" d="M241.41 232.376C241.652 232.913 241.704 233.612 241.29 234.029C241.027 234.244 240.722 234.401 240.395 234.489C239.726 234.75 239.079 235.209 238.86 235.893C238.82 236.082 238.746 236.263 238.641 236.426C238.529 236.546 238.391 236.639 238.237 236.696C236.33 237.557 234.255 237.985 232.163 237.95C232.856 237.284 233.734 236.843 234.683 236.687C235.437 236.564 236.235 236.621 236.932 236.307C237.63 235.994 238.095 235.395 238.551 234.807C238.719 234.614 238.851 234.391 238.939 234.15C239.103 233.621 238.84 233.036 238.992 232.505C239.079 232.2 239.812 231.11 240.123 231.042C240.599 230.948 241.25 232.018 241.41 232.376Z" fill="black"/>
<path opacity="0.1" d="M213.778 219.163C213.339 219.021 211.109 218.604 211.782 217.758C212.396 216.981 213.302 218.999 213.778 219.163Z" fill="black"/>
<path d="M221.788 197.364L218.001 195.52L219.317 214.528L223.306 213.736L222.271 198.072C222.259 197.922 222.208 197.778 222.124 197.654C222.039 197.529 221.923 197.429 221.788 197.364Z" fill="#CBE3FF"/>
<path d="M218.001 195.52L219.317 214.528C219.172 214.528 219.032 214.473 218.925 214.374C218.819 214.275 218.753 214.14 218.742 213.995L217.372 196.441C217.356 196.238 217.41 196.037 217.525 195.87C217.639 195.702 217.807 195.579 218.001 195.52Z" fill="#C8BFCA"/>
<path d="M223.293 213.628L235.31 222.461C235.41 222.533 235.494 222.626 235.556 222.732C235.619 222.839 235.658 222.958 235.671 223.08C235.684 223.203 235.671 223.327 235.633 223.445C235.595 223.562 235.533 223.67 235.45 223.762L234.275 225.1L219.069 213.736L222.771 213.471C222.958 213.459 223.143 213.515 223.293 213.628Z" fill="#F1F1F2"/>
<path d="M223.602 214.525L231.696 220.192L230.569 221.413L221.126 214.694L223.602 214.525Z" fill="#649FCF"/>
<path d="M234.27 225.099L219.069 213.736C218.949 213.987 218.919 214.272 218.985 214.542C219.052 214.813 219.21 215.052 219.433 215.218L232.786 225.233C233.005 225.4 233.279 225.478 233.554 225.454C233.828 225.429 234.084 225.303 234.27 225.099Z" fill="#C8BFCA"/>
<path d="M236.889 222.045C236.889 222.045 231.582 211.324 228.448 215.424C225.314 219.525 233.255 223.977 233.255 223.977L236.889 222.045Z" fill="#FFE0D9"/>
<path opacity="0.1" d="M265.177 204.427C266.229 204.701 267.192 205.24 267.975 205.993C268.759 206.746 269.336 207.688 269.651 208.727C269.995 209.905 269.971 211.197 268.804 212.061C266.133 214.034 262.361 215.425 260.616 218.663C259.523 220.782 258.769 223.058 258.379 225.409L253.857 232.082C253.857 232.082 253.171 234.218 248.594 232.547C244.018 230.876 241.516 230.018 241.516 230.018C241.516 230.018 237.967 228.115 236.382 227.42C236.159 227.306 235.921 227.222 235.676 227.17C235.143 227.17 231.327 223.905 231.152 223.455C230.977 223.005 235.009 221.137 236.621 221.543C236.621 221.543 236.851 222.508 239.878 222.365C242.904 222.223 244.044 223.505 244.044 223.505C244.044 223.505 245.54 222.97 246.5 223.023C247.461 223.076 249.204 222.146 250.504 222.258C250.504 222.258 249.846 220.942 250.7 219.845C251.553 218.749 252.338 218.848 252.693 217.549C252.897 216.808 253.57 214.451 254.116 212.556C254.828 210.033 256.246 207.767 258.204 206.024C259.48 204.899 260.997 203.984 262.519 204.039C263.417 204.068 264.309 204.198 265.177 204.427Z" fill="black"/>
<path opacity="0.1" d="M265.083 203.892C266.135 204.166 267.1 204.706 267.884 205.459C268.668 206.212 269.246 207.154 269.563 208.194C269.905 209.372 269.883 210.662 268.714 211.526C266.045 213.499 262.271 214.889 260.528 218.128C259.433 220.246 258.676 222.522 258.285 224.874L253.763 231.549C253.763 231.549 253.079 233.685 248.5 232.012C243.921 230.338 241.421 229.485 241.421 229.485C241.421 229.485 237.873 227.58 236.29 226.887C236.067 226.772 235.829 226.688 235.584 226.637C235.049 226.637 231.233 223.372 231.06 222.922C230.887 222.472 234.915 220.604 236.527 221.01C236.527 221.01 236.757 221.975 239.783 221.832C242.809 221.69 243.95 222.97 243.95 222.97C243.95 222.97 245.445 222.437 246.406 222.49C247.366 222.543 249.112 221.613 250.41 221.725C250.41 221.725 249.752 220.409 250.607 219.313C251.463 218.216 252.243 218.317 252.601 217.017C252.803 216.278 253.478 213.92 254.022 212.023C254.734 209.501 256.152 207.234 258.109 205.491C259.388 204.366 260.903 203.451 262.425 203.517C263.322 203.541 264.214 203.667 265.083 203.892Z" fill="black"/>
<path d="M265.177 204.107C266.229 204.381 267.192 204.92 267.975 205.673C268.759 206.426 269.336 207.367 269.651 208.407C269.995 209.585 269.971 210.876 268.804 211.74C266.133 213.714 262.361 215.104 260.616 218.343C259.523 220.461 258.769 222.737 258.379 225.089L253.857 231.762C253.857 231.762 253.171 233.897 248.594 232.224C244.018 230.551 241.516 229.698 241.516 229.698C241.516 229.698 237.967 227.792 236.382 227.099C236.159 226.985 235.921 226.901 235.676 226.849C235.143 226.849 231.327 223.584 231.152 223.135C230.977 222.685 235.009 220.817 236.621 221.222C236.621 221.222 236.851 222.187 239.878 222.045C242.904 221.902 244.044 223.183 244.044 223.183C244.044 223.183 245.54 222.65 246.5 222.703C247.461 222.755 249.204 221.826 250.504 221.937C250.504 221.937 249.846 220.622 250.7 219.525C251.553 218.429 252.338 218.53 252.693 217.231C252.897 216.49 253.57 214.133 254.116 212.236C254.828 209.714 256.246 207.448 258.204 205.705C259.48 204.578 260.997 203.666 262.519 203.732C263.416 203.757 264.308 203.882 265.177 204.107Z" fill="#FD6F8D"/>
<path d="M252.519 186.44C252.345 185.572 252.692 185.225 252.866 184.358C253.039 183.837 253.409 183.263 253.697 182.797C255.259 181.235 255.315 181.197 257.203 180.541C259.091 179.885 259.549 180.429 261.541 180.541C263.532 180.653 264.586 181.261 265.878 182.797C266.105 183.112 266.919 183.838 266.919 183.838C266.919 183.838 267.743 184.358 268.481 184.878C271.43 186.96 270.891 188.805 271.777 189.998C272.663 191.191 273.028 192.851 273.859 195.288C274.706 197.773 274.704 197.321 275.767 198.585C276.831 199.849 275.863 201.609 277.849 202.69C278.717 203.037 278.524 204.456 279.064 204.831C279.758 205.41 279.758 206.079 279.758 206.739C279.758 207.954 279.485 208.199 279.064 208.995C278.717 210.209 279.064 211.25 278.717 211.597C277.735 212.579 278.333 212.938 277.155 213.506C276.105 214.01 276.461 212.985 275.42 212.985C274.032 212.985 273.874 212.343 272.508 212.436C271.762 212.488 270.986 212.473 270.297 212.181C268.925 211.6 268.197 210.034 268.116 208.548C268.034 207.061 268.464 205.598 268.773 204.142C268.874 203.662 268.962 203.149 268.784 202.69C268.62 202.338 268.366 202.036 268.048 201.813C266.429 200.535 264.12 199.949 263.19 198.105C262.565 196.866 262.752 195.394 262.6 194.015C262.543 193.511 262.418 192.978 262.048 192.636C261.589 192.215 260.907 192.197 260.293 192.142C258.465 191.957 256.74 191.207 255.357 189.998C254.686 189.414 254.283 188.682 253.697 188.044C253.112 187.406 252.692 187.304 252.519 186.44Z" fill="#FFD1C5"/>
<g opacity="0.1">
<path opacity="0.1" d="M279.126 207.828C280.223 207.302 281.714 207.723 282.657 207.03C282.568 207.202 282.455 207.361 282.321 207.502C281.4 208.429 279.771 207.903 278.593 208.471C278.326 208.601 278.084 208.778 277.878 208.993C278.191 208.507 278.62 208.107 279.126 207.828Z" fill="black"/>
<path opacity="0.1" d="M250.116 184.097C250.336 183.701 250.607 183.337 250.923 183.013C250.821 183.154 250.726 183.301 250.64 183.452C250.352 183.918 250.224 184.465 250.274 185.011C250.395 185.827 251.103 186.458 251.882 186.733C252.66 187.007 253.636 186.748 254.217 187.39C254.798 188.033 255.208 188.761 255.879 189.344C257.262 190.554 258.986 191.303 260.813 191.489C261.432 191.546 262.114 191.561 262.568 191.982C262.94 192.325 263.065 192.86 263.12 193.362C263.278 194.739 263.085 196.213 263.71 197.452C264.64 199.294 266.949 199.879 268.57 201.16C268.887 201.383 269.14 201.685 269.304 202.037C269.484 202.493 269.396 203.008 269.293 203.489C268.982 204.945 268.552 206.405 268.635 207.894C268.719 209.383 269.447 210.947 270.817 211.528C271.508 211.819 272.282 211.833 273.03 211.782C274.394 211.69 275.824 211.344 276.793 210.385L276.806 210.37C276.642 210.604 276.458 210.824 276.258 211.028C275.291 211.993 273.861 212.333 272.495 212.425C271.749 212.477 270.973 212.462 270.284 212.17C268.912 211.589 268.184 210.023 268.103 208.537C268.021 207.05 268.451 205.587 268.76 204.131C268.861 203.651 268.949 203.138 268.771 202.679C268.607 202.327 268.353 202.025 268.035 201.802C266.416 200.524 264.107 199.938 263.177 198.094C262.552 196.855 262.739 195.384 262.587 194.004C262.53 193.5 262.405 192.967 262.033 192.625C261.576 192.204 260.894 192.186 260.278 192.132C258.45 191.946 256.725 191.196 255.342 189.987C254.671 189.404 254.267 188.671 253.682 188.033C253.096 187.395 252.132 187.654 251.344 187.375C250.557 187.097 249.858 186.469 249.737 185.654C249.691 185.107 249.825 184.561 250.116 184.097Z" fill="black"/>
</g>
<rect y="301" width="320" height="130" fill="url(#paint0_linear)"/>
<defs>
<linearGradient id="paint0_linear" x1="160" y1="301" x2="160" y2="431" gradientUnits="userSpaceOnUse">
<stop stop-color="#82C4A8"/>
<stop offset="1" stop-color="#EDFFF4"/>
</linearGradient>
</defs>
</svg>
