<svg width="320" height="291" viewBox="0 0 320 291" fill="none" xmlns="http://www.w3.org/2000/svg">
<path d="M212.857 291C213.693 274.738 227.121 261.81 243.565 261.81C244.5 261.81 245.423 261.858 246.336 261.94C249.928 255.75 255.079 250.613 261.274 247.04C267.468 243.468 274.49 241.586 281.639 241.583C288.787 241.58 295.811 243.455 302.009 247.021C308.207 250.587 313.362 255.72 316.961 261.907C317.731 261.849 318.507 261.81 319.292 261.81C335.736 261.81 349.164 274.738 350 291" fill="#ACCDFF"/>
<path opacity="0.8" d="M-30 289.433C-29.3666 277.108 -19.1871 267.309 -6.72192 267.309C-6.01348 267.309 -5.3139 267.346 -4.62155 267.408C-1.89851 262.717 2.00597 258.823 6.70194 256.115C11.3979 253.408 16.721 251.982 22.1396 251.979C27.5582 251.976 32.8826 253.398 37.5812 256.101C42.2797 258.804 46.1878 262.694 48.9153 267.383C49.4994 267.339 50.0874 267.309 50.6828 267.309C63.1479 267.309 73.3274 277.108 73.9608 289.433" fill="#ACCDFF"/>
<path opacity="0.8" d="M25.2559 235.744C25.472 231.526 28.9441 228.173 33.196 228.173C33.4376 228.173 33.6762 228.186 33.9124 228.207C34.8412 226.601 36.173 225.269 37.7748 224.342C39.3766 223.416 41.1922 222.928 43.0405 222.927C44.8888 222.926 46.7049 223.412 48.3076 224.337C49.9102 225.262 51.2433 226.594 52.1736 228.198C52.3728 228.183 52.5734 228.173 52.7765 228.173C57.0283 228.173 60.5004 231.526 60.7165 235.744" fill="#ACCDFF"/>
<path opacity="0.5" d="M113.551 269.923C114.017 260.831 121.506 253.603 130.675 253.603C131.196 253.603 131.711 253.631 132.22 253.676C134.223 250.216 137.096 247.343 140.55 245.346C144.004 243.349 147.92 242.297 151.906 242.295C155.892 242.293 159.809 243.342 163.265 245.335C166.722 247.329 169.596 250.199 171.603 253.658C172.032 253.625 172.465 253.603 172.903 253.603C182.073 253.603 189.561 260.831 190.027 269.923" fill="#ACCDFF"/>
<path opacity="0.5" d="M68.2154 233.056C68.5113 227.339 73.2664 222.793 79.0891 222.793C79.4201 222.793 79.7469 222.81 80.0703 222.839C81.3423 220.663 83.1661 218.857 85.3597 217.601C87.5533 216.345 90.0399 215.683 92.571 215.682C95.1022 215.681 97.5893 216.34 99.7841 217.594C101.979 218.848 103.805 220.652 105.079 222.827C105.351 222.807 105.626 222.793 105.904 222.793C111.727 222.793 116.482 227.339 116.778 233.056" fill="#ACCDFF"/>
<path opacity="0.3" d="M94.5616 212.406C95.0059 203.83 102.145 197.012 110.888 197.012C111.385 197.012 111.876 197.038 112.361 197.081C114.271 193.816 117.01 191.107 120.303 189.223C123.597 187.339 127.33 186.347 131.131 186.345C134.931 186.343 138.666 187.332 141.961 189.213C145.256 191.094 147.997 193.801 149.91 197.063C150.32 197.033 150.733 197.012 151.15 197.012C159.893 197.012 167.032 203.83 167.477 212.406" fill="#ACCDFF"/>
<path opacity="0.5" d="M185.563 197.453C185.833 192.204 190.17 188.031 195.48 188.031C195.782 188.031 196.08 188.047 196.375 188.074C197.535 186.076 199.198 184.417 201.199 183.264C203.2 182.111 205.467 181.504 207.776 181.503C210.084 181.502 212.353 182.107 214.354 183.258C216.356 184.409 218.021 186.066 219.183 188.063C219.432 188.044 219.682 188.031 219.936 188.031C225.247 188.031 229.583 192.204 229.853 197.453" fill="#ACCDFF"/>
<path d="M104.028 205.286H109.297C109.297 205.286 107.312 208.81 104.028 205.286Z" fill="#ACCDFF"/>
<path d="M104.312 206.71L107.836 202.722C107.836 202.722 109.216 206.534 104.312 206.71Z" fill="#ACCDFF"/>
<path d="M70.4183 219.385H65.1491C65.1491 219.385 67.1342 222.909 70.4183 219.385Z" fill="#ACCDFF"/>
<path d="M70.1335 220.809L66.6096 216.821C66.6096 216.821 65.2304 220.632 70.1335 220.809Z" fill="#ACCDFF"/>
<path d="M38.9453 202.722H44.2145C44.2145 202.722 42.2293 206.247 38.9453 202.722Z" fill="#ACCDFF"/>
<path d="M39.2301 204.146L42.754 200.159C42.754 200.159 44.1332 203.97 39.2301 204.146Z" fill="#ACCDFF"/>
<g clip-path="url(#clip0)">
<path d="M81.8848 189.182C81.7913 189.151 81.5401 189.049 81.4711 188.951C81.4601 188.935 81.4431 188.901 81.4215 188.858C81.2945 188.607 80.9971 188.019 80.3965 188.019C80.3021 188.019 80.2031 188.033 80.1022 188.063C79.5376 188.228 79.2667 188.602 79.0689 188.876C78.955 189.033 78.865 189.157 78.7636 189.177C78.7317 189.183 78.7018 189.186 78.6747 189.186C78.578 189.186 78.5238 189.149 78.5137 189.077C78.4756 188.805 78.4843 188.465 78.4935 188.105C78.5088 187.511 78.526 186.836 78.3282 186.308C78.0059 185.445 77.2861 184.75 76.7078 184.192C76.5633 184.053 76.4268 183.921 76.3098 183.8C76.2648 183.744 76.2181 183.694 76.1729 183.645C76.1073 183.574 76.0453 183.507 76.0001 183.437C75.806 183.134 75.67 182.791 75.5525 182.467C75.5414 182.431 75.5303 182.395 75.5194 182.359C75.5018 182.301 75.4825 182.257 75.4603 182.224C75.3963 182.071 75.321 181.93 75.2046 181.93C75.1865 181.93 75.1678 181.934 75.1493 181.941C74.9492 182.016 74.9053 182.431 74.8665 182.797C74.8466 182.985 74.8278 183.163 74.7912 183.25C74.7438 183.363 74.6705 183.43 74.5928 183.5C74.501 183.583 74.406 183.67 74.3616 183.832C74.3171 183.995 74.3616 184.088 74.4048 184.179C74.441 184.255 74.4753 184.327 74.4566 184.447C74.4371 184.573 74.3764 184.64 74.3122 184.712C74.2438 184.789 74.1729 184.869 74.1609 185.014C74.1484 185.164 74.2272 185.261 74.3035 185.355C74.3702 185.438 74.4332 185.515 74.4316 185.626C74.4303 185.72 74.3747 185.767 74.3043 185.826C74.2121 185.903 74.0973 186 74.135 186.232C74.1599 186.385 74.2611 186.465 74.3504 186.536C74.4363 186.604 74.4889 186.649 74.485 186.727C74.4822 186.786 74.464 186.849 74.4448 186.915C74.399 187.074 74.347 187.254 74.4815 187.452C74.53 187.523 74.6913 187.666 74.8705 187.812C74.3785 187.587 73.6477 187.302 72.8835 187.182C71.63 186.986 70.4144 186.499 69.7613 186.238C69.4539 186.115 69.3156 186.061 69.2611 186.061C69.2258 186.061 69.2141 186.083 69.2107 186.092C69.1977 186.128 69.2289 186.162 69.3037 186.224L69.505 186.391C69.7749 186.615 69.9868 186.79 70.0768 186.879C70.0328 186.863 69.9698 186.837 69.8882 186.802C69.8451 186.783 69.8104 186.791 69.7913 186.819C69.7821 186.832 69.7776 186.849 69.7776 186.87C69.7776 187.109 70.4637 188.28 71.4115 189.411C72.0955 190.226 73.4097 191.595 74.5259 191.595C74.5925 191.595 74.658 191.59 74.7218 191.58C74.2779 192.04 72.6646 193.25 71.2341 193.843C69.5056 194.561 68.7252 194.93 68.6707 195.218C68.6582 195.283 68.6809 195.344 68.738 195.399C68.814 195.473 68.8849 195.507 68.9612 195.507C69.0151 195.507 69.0645 195.49 69.1123 195.473C69.1612 195.456 69.2118 195.438 69.2691 195.438C69.333 195.438 69.3994 195.461 69.472 195.507C69.6533 195.622 69.871 195.744 70.1615 195.744C70.4641 195.744 70.7981 195.612 71.1824 195.339C71.2544 195.288 71.3197 195.266 71.3942 195.266C71.4363 195.266 71.4776 195.273 71.5212 195.28C71.5687 195.288 71.6179 195.296 71.6723 195.296C71.796 195.296 71.9137 195.25 72.0427 195.152C72.9941 194.422 74.0317 194.286 75.1302 194.141C76.426 193.971 77.766 193.794 79.2069 192.686C80.4333 191.743 80.6753 190.933 80.8355 190.397C80.8524 190.341 80.8682 190.287 80.8843 190.238C81.0447 189.74 81.1388 189.624 81.2563 189.584C81.3342 189.557 81.5272 189.479 81.6974 189.41C81.8172 189.362 81.9207 189.32 81.9493 189.31C81.9916 189.296 81.9966 189.27 81.9958 189.256C81.995 189.241 81.9931 189.207 81.8848 189.182Z" fill="#ACCDFF"/>
</g>
<g clip-path="url(#clip1)">
<path d="M108.274 223.411C108.342 223.388 108.526 223.314 108.577 223.241C108.585 223.23 108.597 223.205 108.613 223.174C108.706 222.99 108.924 222.559 109.363 222.559C109.432 222.559 109.505 222.57 109.579 222.592C109.992 222.712 110.19 222.986 110.335 223.187C110.419 223.302 110.484 223.393 110.559 223.407C110.582 223.412 110.604 223.414 110.624 223.414C110.694 223.414 110.734 223.387 110.742 223.334C110.769 223.135 110.763 222.886 110.756 222.623C110.745 222.187 110.733 221.694 110.877 221.307C111.113 220.676 111.64 220.167 112.063 219.759C112.169 219.656 112.269 219.56 112.355 219.471C112.388 219.431 112.422 219.394 112.455 219.358C112.503 219.306 112.548 219.257 112.581 219.205C112.723 218.984 112.823 218.733 112.909 218.495C112.917 218.469 112.925 218.443 112.933 218.417C112.946 218.374 112.96 218.342 112.976 218.318C113.023 218.206 113.078 218.103 113.164 218.103C113.177 218.103 113.191 218.105 113.204 218.111C113.351 218.166 113.383 218.47 113.411 218.738C113.426 218.875 113.439 219.005 113.466 219.069C113.501 219.151 113.555 219.2 113.611 219.252C113.679 219.313 113.748 219.376 113.781 219.495C113.813 219.614 113.781 219.682 113.749 219.749C113.723 219.804 113.697 219.857 113.711 219.945C113.725 220.037 113.77 220.087 113.817 220.139C113.867 220.195 113.919 220.254 113.928 220.36C113.937 220.47 113.879 220.541 113.823 220.61C113.774 220.67 113.728 220.727 113.729 220.808C113.73 220.877 113.771 220.911 113.823 220.954C113.89 221.011 113.974 221.082 113.947 221.251C113.928 221.364 113.854 221.422 113.789 221.474C113.726 221.524 113.688 221.557 113.69 221.614C113.692 221.657 113.706 221.703 113.72 221.752C113.753 221.868 113.791 222 113.693 222.145C113.657 222.197 113.539 222.301 113.408 222.408C113.768 222.243 114.303 222.035 114.863 221.947C115.78 221.803 116.67 221.447 117.148 221.256C117.373 221.166 117.474 221.126 117.514 221.126C117.54 221.126 117.548 221.142 117.551 221.149C117.56 221.175 117.538 221.2 117.483 221.246L117.336 221.368C117.138 221.532 116.983 221.66 116.917 221.725C116.949 221.713 116.995 221.695 117.055 221.669C117.087 221.655 117.112 221.66 117.126 221.681C117.133 221.691 117.136 221.703 117.136 221.719C117.136 221.893 116.634 222.751 115.94 223.578C115.439 224.175 114.477 225.177 113.66 225.177C113.612 225.177 113.564 225.174 113.517 225.166C113.842 225.503 115.023 226.388 116.07 226.823C117.335 227.348 117.906 227.618 117.946 227.829C117.955 227.877 117.939 227.921 117.897 227.962C117.841 228.015 117.789 228.04 117.733 228.04C117.694 228.04 117.658 228.028 117.623 228.016C117.587 228.003 117.55 227.99 117.508 227.99C117.461 227.99 117.413 228.007 117.36 228.04C117.227 228.124 117.068 228.214 116.855 228.214C116.633 228.214 116.389 228.117 116.108 227.918C116.055 227.88 116.007 227.864 115.953 227.864C115.922 227.864 115.892 227.869 115.86 227.874C115.825 227.88 115.789 227.886 115.749 227.886C115.659 227.886 115.572 227.853 115.478 227.78C114.782 227.246 114.022 227.147 113.218 227.041C112.27 226.916 111.289 226.787 110.234 225.976C109.336 225.285 109.159 224.692 109.042 224.3C109.03 224.259 109.018 224.22 109.006 224.184C108.889 223.82 108.82 223.735 108.734 223.705C108.677 223.685 108.536 223.628 108.411 223.578C108.323 223.543 108.248 223.512 108.227 223.505C108.196 223.494 108.192 223.475 108.193 223.465C108.193 223.454 108.195 223.429 108.274 223.411Z" fill="#ACCDFF"/>
</g>
<path opacity="0.7" d="M265.167 129.642L272.566 122.238C273.811 120.993 275.829 120.993 277.074 122.237C277.075 122.238 277.075 122.238 277.075 122.238L296.774 141.947C297.969 143.142 298.64 144.764 298.64 146.454V276.989" stroke="#5293A0" stroke-width="3"/>
<path opacity="0.7" d="M309.001 276.591H287.881C287.221 276.591 286.685 277.126 286.685 277.786V278.185C286.685 278.845 287.221 279.38 287.881 279.38H309.001C309.661 279.38 310.196 278.845 310.196 278.185V277.786C310.196 277.126 309.661 276.591 309.001 276.591Z" fill="#5293A0"/>
<path fill-rule="evenodd" clip-rule="evenodd" d="M269.617 125.298C274.753 130.434 274.753 138.76 269.617 143.895L261.728 151.785L243.13 133.188L251.02 125.298C256.156 120.163 264.482 120.163 269.617 125.298Z" fill="#5293A0"/>
<path d="M250.565 144.451C255.701 149.586 260.684 152.93 261.695 151.918C262.707 150.906 259.364 145.923 254.228 140.788C249.093 135.652 244.11 132.309 243.098 133.321C242.087 134.332 245.43 139.315 250.565 144.451Z" fill="#5293A0"/>
<path d="M250.88 144.071C255.898 149.089 260.786 152.337 261.797 151.326C262.809 150.314 259.561 145.426 254.543 140.408C249.525 135.39 244.637 132.142 243.625 133.154C242.614 134.165 245.862 139.053 250.88 144.071Z" fill="white"/>
<path d="M182.096 205.907V238.077C182.095 238.624 182.169 239.167 182.316 239.693C182.669 240.973 183.432 242.101 184.488 242.905C185.544 243.709 186.835 244.145 188.162 244.145H215.354C216.151 244.145 216.94 243.989 217.676 243.684C218.413 243.379 219.082 242.932 219.645 242.369C220.209 241.805 220.656 241.136 220.961 240.4C221.265 239.663 221.422 238.874 221.422 238.077V205.907C221.422 205.11 221.265 204.321 220.961 203.585C220.656 202.849 220.209 202.18 219.645 201.616C219.082 201.053 218.413 200.606 217.676 200.301C216.94 199.996 216.151 199.839 215.354 199.84H188.162C186.835 199.84 185.544 200.275 184.488 201.079C183.432 201.883 182.669 203.012 182.316 204.291C182.169 204.817 182.095 205.361 182.096 205.907Z" fill="white"/>
<path opacity="0.1" d="M220.983 205.907V238.077C220.983 238.624 221.057 239.169 221.203 239.696C221.348 239.169 221.422 238.624 221.422 238.077V205.907C221.422 205.361 221.348 204.816 221.203 204.289C221.057 204.816 220.983 205.361 220.983 205.907Z" fill="black"/>
<path d="M227.49 199.84H263.013C266.364 199.84 269.08 202.556 269.08 205.907V238.069C269.08 241.42 266.364 244.136 263.013 244.136H227.49C224.139 244.136 221.422 241.42 221.422 238.069V205.907C221.422 202.556 224.139 199.84 227.49 199.84Z" fill="white"/>
<path opacity="0.1" d="M182.096 205.907V238.077C182.095 238.624 182.169 239.167 182.316 239.694C182.461 239.167 182.535 238.624 182.535 238.077V205.907C182.535 205.361 182.461 204.818 182.316 204.291C182.169 204.817 182.095 205.361 182.096 205.907Z" fill="black"/>
<path d="M140.504 199.84H176.029C179.38 199.84 182.097 202.556 182.097 205.907V238.069C182.097 241.42 179.38 244.136 176.029 244.136H140.504C137.153 244.136 134.436 241.42 134.436 238.069V205.907C134.436 202.556 137.153 199.84 140.504 199.84Z" fill="white"/>
<path opacity="0.1" d="M223.834 247.426H267.37L267.589 243.621C267.83 239.349 262.309 235.803 255.412 235.803H225.781C223.468 235.803 221.683 237.062 221.979 238.483L223.834 247.426Z" fill="black"/>
<path d="M223.834 247.864H267.37L267.589 244.059C267.83 239.788 262.309 236.242 255.412 236.242H225.781C223.468 236.242 221.683 237.5 221.979 238.921L223.834 247.864Z" fill="#5293A0"/>
<path opacity="0.1" d="M180.208 247.678H136.673L136.453 243.873C136.212 239.601 141.734 236.055 148.631 236.055H178.261C180.572 236.055 182.36 237.314 182.064 238.735L180.208 247.678Z" fill="black"/>
<path d="M180.208 248.116H136.673L136.453 244.312C136.212 240.04 141.734 236.494 148.631 236.494H178.261C180.572 236.494 182.36 237.753 182.064 239.174L180.208 248.116Z" fill="#5293A0"/>
<path opacity="0.1" d="M216.295 236.055H186.796C185.973 236.055 185.157 236.218 184.397 236.533C183.636 236.848 182.945 237.31 182.363 237.892C181.781 238.474 181.319 239.165 181.004 239.926C180.689 240.686 180.526 241.502 180.526 242.325V246.22H223.176V242.93C223.175 241.106 222.449 239.357 221.159 238.068C219.869 236.779 218.119 236.055 216.295 236.055Z" fill="black"/>
<path d="M216.295 236.494H186.796C185.973 236.494 185.157 236.656 184.397 236.971C183.636 237.286 182.945 237.748 182.363 238.33C181.781 238.912 181.319 239.604 181.004 240.364C180.689 241.125 180.526 241.94 180.526 242.763V246.658H223.176V243.369C223.175 241.545 222.449 239.796 221.159 238.506C219.869 237.217 218.119 236.493 216.295 236.494Z" fill="#5293A0"/>
<path d="M264.396 240.408H229.09C227.52 240.408 226.014 241.032 224.904 242.143C223.793 243.253 223.17 244.759 223.17 246.329V254.333H267.021V243.033C267.019 242.338 266.742 241.671 266.25 241.179C265.759 240.687 265.092 240.41 264.396 240.408Z" fill="white"/>
<path d="M218.352 240.408H184.8C183.23 240.408 181.724 241.032 180.614 242.143C179.503 243.253 178.88 244.759 178.88 246.329V254.333H223.942V246C223.942 244.518 223.353 243.096 222.305 242.047C221.256 240.998 219.835 240.409 218.352 240.408Z" fill="white"/>
<path d="M177.064 240.408H141.216C139.719 240.408 138.282 241.003 137.224 242.062C136.165 243.121 135.57 244.558 135.57 246.055V254.333H179.415V242.759C179.415 242.451 179.354 242.145 179.236 241.86C179.118 241.574 178.944 241.315 178.726 241.097C178.508 240.879 178.249 240.706 177.963 240.587C177.678 240.469 177.373 240.408 177.064 240.408Z" fill="white"/>
<path opacity="0.7" d="M266.377 272.863V278.839C266.377 279.638 266.695 280.405 267.26 280.97C267.826 281.536 268.592 281.854 269.392 281.854H271.475C272.275 281.854 273.041 281.536 273.606 280.97C274.172 280.405 274.49 279.638 274.49 278.839V272.863H266.377Z" fill="#5293A0"/>
<path opacity="0.7" d="M128.34 272.863V278.839C128.34 279.638 128.658 280.405 129.223 280.97C129.789 281.536 130.555 281.854 131.355 281.854H133.438C134.238 281.854 135.004 281.536 135.57 280.97C136.135 280.405 136.453 279.638 136.453 278.839V272.863H128.34Z" fill="#5293A0"/>
<path opacity="0.4" d="M264.164 233.643C264.164 232.126 264.595 230.641 265.406 229.36C266.218 228.078 267.377 227.054 268.749 226.406C270.12 225.758 271.647 225.513 273.153 225.7C274.658 225.886 276.079 226.497 277.251 227.46C278.423 228.423 279.296 229.7 279.771 231.14C280.245 232.581 280.3 234.127 279.93 235.598C279.559 237.069 278.779 238.404 277.678 239.448C276.578 240.492 275.204 241.203 273.716 241.496V273.85H264.725V236.597C264.353 235.657 264.163 234.654 264.164 233.643Z" fill="white"/>
<path opacity="0.4" d="M138.988 233.643C138.988 232.126 138.557 230.641 137.746 229.36C136.934 228.078 135.775 227.054 134.404 226.406C133.032 225.758 131.505 225.513 130 225.7C128.494 225.886 127.073 226.497 125.901 227.46C124.73 228.423 123.856 229.7 123.382 231.14C122.907 232.581 122.852 234.127 123.223 235.598C123.593 237.069 124.374 238.404 125.474 239.448C126.574 240.492 127.948 241.203 129.436 241.496V273.85H138.427V236.597C138.799 235.657 138.989 234.654 138.988 233.643Z" fill="white"/>
<path opacity="0.7" d="M134.436 253.895H267.585V268.258H134.436V253.895Z" fill="#5293A0"/>
<path opacity="0.1" d="M128.342 272.863H136.442V274.947H128.342V272.863Z" fill="black"/>
<path d="M137.008 234.301C137.008 232.784 136.578 231.298 135.766 230.017C134.954 228.735 133.794 227.71 132.423 227.062C131.051 226.414 129.523 226.17 128.018 226.357C126.512 226.544 125.091 227.155 123.919 228.118C122.747 229.082 121.874 230.359 121.4 231.801C120.926 233.242 120.872 234.788 121.243 236.259C121.615 237.73 122.397 239.065 123.498 240.109C124.599 241.153 125.974 241.862 127.462 242.154V274.508H136.453V237.255C136.824 236.315 137.012 235.312 137.008 234.301Z" fill="white"/>
<path opacity="0.1" d="M266.491 272.863H274.49V274.947H266.491V272.863Z" fill="black"/>
<path d="M265.925 234.301C265.925 232.785 266.356 231.299 267.167 230.018C267.979 228.737 269.138 227.713 270.509 227.065C271.88 226.418 273.407 226.172 274.912 226.359C276.417 226.545 277.838 227.155 279.01 228.117C280.181 229.08 281.056 230.356 281.53 231.796C282.005 233.236 282.061 234.782 281.692 236.252C281.322 237.723 280.543 239.059 279.443 240.103C278.344 241.148 276.971 241.859 275.484 242.154V274.508H266.493V237.255C266.117 236.315 265.925 235.313 265.925 234.301Z" fill="white"/>
<path opacity="0.4" d="M274.49 237.667C272.492 237.667 270.872 236.047 270.872 234.049C270.872 232.051 272.492 230.431 274.49 230.431C276.488 230.431 278.108 232.051 278.108 234.049C278.108 236.047 276.488 237.667 274.49 237.667Z" fill="white"/>
<path opacity="0.4" d="M128.342 237.667C126.343 237.667 124.724 236.047 124.724 234.049C124.724 232.051 126.343 230.431 128.342 230.431C130.34 230.431 131.96 232.051 131.96 234.049C131.96 236.047 130.34 237.667 128.342 237.667Z" fill="white"/>
<path d="M236.22 227.933C239.667 227.071 246.945 217.984 246.945 217.984C249.682 216.072 255.263 204.489 255.263 204.489C255.263 204.489 257.381 203.491 259.247 207.978C261.114 212.464 271.966 216.052 275.216 216.554C277.047 216.837 276.87 217.65 276.365 218.308C276.025 218.731 275.574 219.05 275.063 219.229C273.681 219.753 269.394 224.9 269.394 224.9C265.396 227.602 260.962 240.082 259.489 243.343C258.671 245.156 257.761 244.288 257.111 243.158C255.858 240.978 254.142 239.099 252.083 237.654C246.504 233.731 240.524 232.104 240.116 232.097C239.601 232.084 232.772 228.795 236.22 227.933Z" fill="#3C6E75"/>
<path d="M279.668 216.973C280.19 216.79 280.653 216.468 281.005 216.041C281.538 215.383 281.755 214.541 279.951 214.225C276.751 213.664 266.135 209.839 264.504 205.188C262.872 200.537 260.714 201.544 260.714 201.544C260.714 201.544 254.609 213.385 251.798 215.328C251.798 215.328 244.123 224.587 240.66 225.431C237.198 226.275 243.816 229.744 244.327 229.764C244.733 229.777 250.592 231.518 255.949 235.639C257.934 237.168 259.548 239.126 260.671 241.367C261.26 242.538 262.124 243.443 263.026 241.586C264.646 238.246 269.659 225.455 273.76 222.727C273.76 222.727 278.271 217.493 279.668 216.973Z" fill="#5293A0"/>
<path opacity="0.1" d="M267.37 221.159C267.37 221.159 268.519 222.24 263.024 220.168C257.528 218.096 267.37 221.159 267.37 221.159Z" fill="black"/>
<path opacity="0.1" d="M262.859 226.433C262.859 226.433 262.021 226.554 258.87 225.266C255.719 223.979 262.859 226.433 262.859 226.433Z" fill="black"/>
<path opacity="0.1" d="M263.135 236.117C263.135 236.117 262.353 236.117 259.208 234.814C256.063 233.512 263.135 236.117 263.135 236.117Z" fill="black"/>
<path opacity="0.1" d="M134.874 214.438V218.622C135.778 220.49 136.662 222.876 136.662 222.876C139.293 226.302 138.877 237.713 139.05 240.794C139.146 242.505 140.267 242.097 141.243 241.395C143.171 240.021 145.361 239.056 147.677 238.56C154.036 237.167 159.957 237.746 160.334 237.869C160.799 238.023 168.062 237.534 165.281 235.755C162.501 233.977 159.176 224.396 159.176 224.396C157.398 222.001 156.47 210.949 156.47 210.949C156.47 210.949 154.935 209.482 151.679 212.484C148.589 215.363 138.493 215.012 134.874 214.438Z" fill="#5293A0"/>
<path d="M134.217 217.273C133.831 216.98 133.538 216.581 133.375 216.124C133.156 215.44 133.279 214.732 135.018 215.08C138.099 215.699 149.072 216.24 152.317 213.227C155.563 210.214 157.109 211.681 157.109 211.681C157.109 211.681 158.036 222.731 159.815 225.128C159.815 225.128 163.137 234.709 165.92 236.487C168.703 238.266 161.438 238.755 160.973 238.599C160.604 238.476 154.684 237.9 148.315 239.292C146 239.788 143.811 240.752 141.881 242.125C140.905 242.827 139.785 243.237 139.688 241.525C139.515 238.455 139.927 227.034 137.3 223.609C137.3 223.609 135.27 218.128 134.217 217.273Z" fill="#3B6E75"/>
<path opacity="0.1" d="M132.482 215.885C132.096 215.592 131.803 215.192 131.64 214.736C131.421 214.052 131.544 213.343 133.283 213.692C136.364 214.311 147.337 214.852 150.582 211.839C153.828 208.826 155.374 210.293 155.374 210.293C155.374 210.293 156.301 221.343 158.08 223.74C158.08 223.74 161.402 233.321 164.185 235.099C166.968 236.878 159.703 237.367 159.238 237.211C158.869 237.088 152.949 236.512 146.58 237.904C144.265 238.4 142.076 239.364 140.146 240.737C139.171 241.439 138.05 241.849 137.953 240.136C137.78 237.066 138.192 225.646 135.565 222.22C135.565 222.22 133.535 216.74 132.482 215.885Z" fill="#666666"/>
<path d="M133.276 216.379C132.909 216.098 132.632 215.717 132.478 215.282C132.258 214.624 132.386 213.966 134.035 214.293C136.962 214.879 147.381 215.39 150.462 212.539C153.543 209.688 155.012 211.072 155.012 211.072C155.012 211.072 155.889 221.563 157.58 223.837C157.58 223.837 160.733 232.935 163.376 234.624C166.018 236.312 159.119 236.775 158.681 236.628C158.33 236.512 152.707 235.97 146.661 237.286C144.463 237.756 142.385 238.671 140.554 239.977C139.627 240.634 138.563 241.031 138.471 239.406C138.307 236.481 138.69 225.648 136.204 222.394C136.204 222.392 134.276 217.19 133.276 216.379Z" fill="#5293A0"/>
<path opacity="0.1" d="M140.997 222.427C140.997 222.427 141.765 222.865 145.438 224.126C149.111 225.387 141.6 223.633 140.997 222.427Z" fill="black"/>
<path opacity="0.1" d="M141.381 226.297C141.381 226.297 143.683 228.183 144.835 228.347C145.986 228.512 142.039 228.139 141.381 226.297Z" fill="black"/>
<path opacity="0.1" d="M139.55 235.007C139.55 235.007 141.852 236.893 143.004 237.058C144.155 237.222 140.208 236.854 139.55 235.007Z" fill="black"/>
<path d="M247.325 211.74L247.599 215.223L245.908 218.889L243.518 220.995L240.917 222.53L238.505 224.209L236.093 222.043C236.093 222.043 239.625 219.775 239.941 219.006C240.257 218.236 241.845 216.677 241.845 216.677L244.086 214.51L245.906 212.85L247.325 211.74Z" fill="#FD6F8D"/>
<path opacity="0.1" d="M247.325 211.74L247.599 215.223L245.908 218.889L243.518 220.995L240.917 222.53L238.505 224.209L236.093 222.043C236.093 222.043 239.625 219.775 239.941 219.006C240.257 218.236 241.845 216.677 241.845 216.677L244.086 214.51L245.906 212.85L247.325 211.74Z" fill="black"/>
<path d="M258.272 198.221C259.149 199.94 259.89 202.467 259.044 205.315C257.478 210.578 268.956 203.214 268.956 203.214C268.956 203.214 266.482 199.521 265.758 196.333C265.524 195.3 265.473 194.318 265.758 193.533C266.896 190.329 256.717 195.881 256.717 195.881C257.334 196.591 257.856 197.377 258.272 198.221Z" fill="#FFE0D9"/>
<path opacity="0.1" d="M259.73 203.072C259.73 203.072 255.412 203.232 254.824 204.46C254.237 205.688 253.011 207.611 252.476 207.879C251.941 208.146 246.283 212.791 245.803 213.003C245.322 213.216 240.463 218.288 240.463 218.823C240.463 219.358 235.443 222.455 232.24 222.935C229.036 223.415 224.126 229.183 222.683 228.968C221.24 228.753 218.297 229.823 218.297 229.823C218.297 229.823 214.986 229.663 214.185 229.128C213.385 228.593 210.396 229.663 211.089 230.944C211.782 232.224 214.293 231.799 214.88 232.547C215.468 233.294 216.909 234.095 218.297 234.255C219.685 234.415 220.753 234.52 221.821 234.788C222.889 235.055 222.621 235.588 224.233 235.323C225.845 235.058 232.082 223.948 232.082 223.948L239.022 220.799C239.022 220.799 241.638 218.663 241.853 217.968C242.068 217.273 247.086 212.523 247.086 212.523L253.653 207.716L259.73 203.072Z" fill="black"/>
<path d="M259.41 203.072C259.41 203.072 255.092 203.232 254.504 204.46C253.916 205.688 252.688 207.611 252.156 207.879C251.623 208.146 245.963 212.791 245.48 213.003C244.998 213.216 240.143 218.288 240.143 218.823C240.143 219.358 235.123 222.455 231.919 222.935C228.716 223.415 223.806 229.183 222.363 228.968C220.92 228.753 217.977 229.823 217.977 229.823C217.977 229.823 214.666 229.663 213.865 229.128C213.065 228.593 210.074 229.663 210.769 230.944C211.464 232.224 213.973 231.799 214.56 232.547C215.148 233.294 216.589 234.095 217.977 234.255C219.365 234.415 220.442 234.52 221.507 234.788C222.573 235.055 222.308 235.588 223.92 235.323C225.531 235.058 231.768 223.948 231.768 223.948L238.709 220.799C238.709 220.799 241.325 218.663 241.54 217.968C241.755 217.273 246.757 212.523 246.757 212.523L253.335 207.716L259.41 203.072Z" fill="#FD6F8D"/>
<path d="M236.921 226.922C236.921 226.922 230.441 221.19 230.123 220.764C229.966 220.545 227.915 218.999 225.885 217.475C223.361 215.592 220.996 213.506 218.812 211.238C217.35 209.721 215.784 208.205 215.245 208.085C214.148 207.835 211.365 207.942 210.795 208.903C210.225 209.863 207.769 211.609 207.769 211.609L205.668 213.955C205.668 213.955 200.719 217.799 197.515 221.323C194.311 224.847 190.539 228.656 189.182 228.799C187.824 228.941 185.765 230.685 185.765 230.685C185.765 230.685 182.847 232.11 181.818 233.248C180.79 234.386 179.077 235.492 177.334 235.562C175.59 235.632 178.259 236.987 181.143 236.807C184.026 236.628 187.548 235.739 188.796 235.954C190.044 236.169 193.528 236.202 193.528 235.562C193.528 234.921 193.173 233.426 193.173 233.426C193.173 233.426 197.017 230.231 200.925 229.555C204.833 228.88 213.392 222.507 213.321 219.554C213.321 219.554 214.53 219.446 215.92 221.582C215.92 221.582 216.916 222.437 218.589 224.821C220.262 227.205 222.255 230.621 222.255 230.621C222.255 230.621 225.352 236.882 227.843 236.832C230.334 236.781 233.005 236.494 233.005 236.494L236.316 234.145L236.536 231.294L236.921 226.922Z" fill="#FFD3CA"/>
<path d="M235.426 227.242C235.426 227.242 228.948 221.512 228.628 221.084C228.308 220.657 220.264 214.747 220.264 214.747C220.264 214.747 214.854 208.662 213.749 208.412C212.644 208.162 209.87 208.269 209.3 209.23C208.729 210.19 206.276 211.936 206.276 211.936L204.175 214.284C204.175 214.284 199.228 218.128 196.024 221.652C192.82 225.176 189.046 228.985 187.691 229.128C186.335 229.271 184.274 231.016 184.274 231.016C184.274 231.016 181.355 232.439 180.327 233.577C179.298 234.716 177.586 235.821 175.842 235.891C174.099 235.961 176.768 237.316 179.651 237.136C182.535 236.957 186.059 236.071 187.305 236.283C188.55 236.496 192.035 236.542 192.035 235.884C192.035 235.226 191.677 233.748 191.677 233.748C191.677 233.748 195.522 230.547 199.438 229.869C203.355 229.192 211.889 222.828 211.826 219.876C211.826 219.876 213.036 219.769 214.424 221.905C214.424 221.905 215.42 222.76 217.093 225.143C218.766 227.527 220.76 230.946 220.76 230.946C220.76 230.946 223.856 237.2 226.349 237.154C228.843 237.108 231.509 236.816 231.509 236.816L234.821 234.468L235.04 231.617L235.426 227.242Z" fill="#FFE0D9"/>
<path opacity="0.1" d="M214.576 230.578C214.751 230.652 214.922 230.742 215.091 230.832L216.188 231.417C215.232 231.575 214.26 231.604 213.297 231.503C212.762 231.446 212.01 230.992 212.62 230.455C213.104 230.034 214.082 230.363 214.576 230.578Z" fill="black"/>
<path opacity="0.1" d="M219.587 231.336C218.992 231.218 218.352 231.102 217.797 231.336C217.607 231.428 217.427 231.539 217.26 231.667L216.308 232.354C217.128 232.596 217.971 232.75 218.823 232.814C218.937 232.83 219.052 232.825 219.163 232.801C219.31 232.75 219.442 232.666 219.551 232.556C220.295 231.937 220.797 231.577 219.587 231.336Z" fill="black"/>
<path d="M260.847 195.982C260.847 195.982 268.181 194.781 268.181 190.456C268.181 186.131 264.675 182.625 260.35 182.625C256.026 182.625 252.692 184.718 252.692 189.043C252.692 189.563 252.619 189.737 252.692 190.084C252.765 190.43 252.345 191.818 251.478 193.033C251.062 193.615 251.825 194.247 252.866 194.247C253.039 194.941 252.766 195.226 252.866 195.462C252.899 195.542 252.977 195.596 253.052 195.648L253.213 195.809C253.273 195.992 253.308 196.232 253.386 196.329C253.583 196.573 253.771 196.473 253.907 196.676C254.254 197.197 253.56 197.717 254.254 198.238C256.336 198.758 260.847 195.982 260.847 195.982Z" fill="#FFE0D9"/>
<path d="M259.408 203.072L259.826 203.747L254.741 209.267L252.351 210.938L250.969 209.085L259.408 203.072Z" fill="#504F88"/>
<path d="M251.581 208.995C251.581 208.995 249.075 208.679 247.917 210.6C247.234 211.709 246.803 212.955 246.654 214.249C246.654 214.249 245.498 215.175 245.603 215.692C245.69 216.024 245.892 216.314 246.173 216.51C246.173 216.51 248.417 215.229 248.434 215.175C248.452 215.12 250.16 213.234 250.16 213.234L251.581 211.74V208.995Z" fill="#504F88"/>
<path opacity="0.1" d="M266.679 201.364C266.679 201.364 270.593 201.675 270.986 204.407C271.379 207.14 271.519 208.697 270.131 210.582C268.743 212.468 265.896 213.253 265.896 213.253C265.896 213.253 261.589 216.635 261.552 218.698C261.515 220.762 257.886 225.391 257.886 225.391C257.886 225.391 250.976 230.516 251.476 232.154C251.976 233.792 252.12 238.454 250.305 238.882C248.489 239.31 245.535 238.952 245.108 239.487C244.68 240.022 237.632 239.202 237.632 239.202C237.632 239.202 233.718 238.312 231.119 239.095C229.501 239.545 227.776 239.418 226.242 238.735C226.242 238.735 223.216 238.45 223.038 237.239C222.86 236.029 221.503 236.066 222.788 235.851C224.073 235.636 224.889 236.314 225.814 235.994C226.74 235.674 227.523 234.606 229.659 234.641C231.794 234.676 232.29 234.713 232.509 234.676C232.729 234.639 231.156 233.43 232.011 231.474C232.867 229.518 234.5 227.99 234.428 226.893C234.356 225.797 237.632 222.051 237.632 222.051C237.632 222.051 239.198 219.775 241.228 219.027C243.259 218.28 247.066 213.685 247.066 213.685C247.066 213.685 250.327 208.609 252.096 208.337C253.866 208.065 259.666 202.855 259.666 202.855C259.666 202.855 264.585 200.826 266.679 201.364Z" fill="black"/>
<path d="M266.784 201.576C266.784 201.576 270.701 201.894 271.098 204.62C271.495 207.346 271.631 208.909 270.243 210.797C268.855 212.685 266.006 213.466 266.006 213.466C266.006 213.466 261.699 216.848 261.664 218.913C261.629 220.979 257.998 225.604 257.998 225.604C257.998 225.604 251.083 230.731 251.581 232.376C252.079 234.02 252.224 238.676 250.41 239.103C248.597 239.531 245.638 239.176 245.213 239.709C244.787 240.241 237.737 239.424 237.737 239.424C237.737 239.424 233.821 238.535 231.222 239.318C229.605 239.768 227.882 239.639 226.349 238.954C226.349 238.954 223.323 238.669 223.146 237.461C222.968 236.253 221.611 236.285 222.896 236.073C224.181 235.86 224.996 236.535 225.922 236.213C226.847 235.891 227.63 234.825 229.766 234.862C231.902 234.9 232.398 234.932 232.617 234.897C232.836 234.862 231.266 233.652 232.119 231.694C232.972 229.735 234.61 228.205 234.531 227.102C234.452 225.999 237.735 222.26 237.735 222.26C237.735 222.26 239.301 219.983 241.329 219.236C243.358 218.488 247.167 213.896 247.167 213.896C247.167 213.896 250.43 208.819 252.197 208.545C253.965 208.271 259.769 203.074 259.769 203.074C259.769 203.074 264.692 201.039 266.784 201.576Z" fill="#FD6F8D"/>
<path opacity="0.1" d="M241.41 232.376C241.652 232.913 241.704 233.612 241.29 234.029C241.027 234.244 240.722 234.401 240.395 234.489C239.726 234.75 239.079 235.209 238.86 235.893C238.82 236.082 238.746 236.263 238.641 236.426C238.529 236.546 238.391 236.639 238.237 236.696C236.33 237.557 234.255 237.985 232.163 237.95C232.856 237.284 233.734 236.843 234.683 236.687C235.437 236.564 236.235 236.621 236.932 236.307C237.63 235.994 238.095 235.395 238.551 234.807C238.719 234.614 238.851 234.391 238.939 234.15C239.103 233.621 238.84 233.036 238.992 232.505C239.079 232.2 239.812 231.11 240.123 231.042C240.599 230.948 241.25 232.018 241.41 232.376Z" fill="black"/>
<path opacity="0.1" d="M213.778 219.163C213.339 219.021 211.109 218.604 211.782 217.758C212.396 216.981 213.302 218.999 213.778 219.163Z" fill="black"/>
<path d="M221.788 197.364L218.001 195.52L219.317 214.528L223.306 213.736L222.271 198.072C222.259 197.922 222.208 197.778 222.124 197.654C222.039 197.529 221.923 197.429 221.788 197.364Z" fill="#CBE3FF"/>
<path d="M218.001 195.52L219.317 214.528C219.172 214.528 219.032 214.473 218.925 214.374C218.819 214.275 218.753 214.14 218.742 213.995L217.372 196.441C217.356 196.238 217.41 196.037 217.525 195.87C217.639 195.702 217.807 195.579 218.001 195.52Z" fill="#C8BFCA"/>
<path d="M223.293 213.628L235.31 222.461C235.41 222.533 235.494 222.626 235.556 222.732C235.619 222.839 235.658 222.958 235.671 223.08C235.684 223.203 235.671 223.327 235.633 223.445C235.595 223.562 235.533 223.67 235.45 223.762L234.275 225.1L219.069 213.736L222.771 213.471C222.958 213.459 223.143 213.515 223.293 213.628Z" fill="#F1F1F2"/>
<path d="M223.602 214.525L231.696 220.192L230.569 221.413L221.126 214.694L223.602 214.525Z" fill="#649FCF"/>
<path d="M234.27 225.099L219.069 213.736C218.949 213.987 218.919 214.272 218.985 214.542C219.052 214.813 219.21 215.052 219.433 215.218L232.786 225.233C233.005 225.4 233.279 225.478 233.554 225.454C233.828 225.429 234.084 225.303 234.27 225.099Z" fill="#C8BFCA"/>
<path d="M236.889 222.045C236.889 222.045 231.582 211.324 228.448 215.424C225.314 219.525 233.255 223.977 233.255 223.977L236.889 222.045Z" fill="#FFE0D9"/>
<path opacity="0.1" d="M265.177 204.427C266.229 204.701 267.192 205.24 267.975 205.993C268.759 206.746 269.336 207.688 269.651 208.727C269.995 209.905 269.971 211.197 268.804 212.061C266.133 214.034 262.361 215.425 260.616 218.663C259.523 220.782 258.769 223.058 258.379 225.409L253.857 232.082C253.857 232.082 253.171 234.218 248.594 232.547C244.018 230.876 241.516 230.018 241.516 230.018C241.516 230.018 237.967 228.115 236.382 227.42C236.159 227.306 235.921 227.222 235.676 227.17C235.143 227.17 231.327 223.905 231.152 223.455C230.977 223.005 235.009 221.137 236.621 221.543C236.621 221.543 236.851 222.508 239.878 222.365C242.904 222.223 244.044 223.505 244.044 223.505C244.044 223.505 245.54 222.97 246.5 223.023C247.461 223.076 249.204 222.146 250.504 222.258C250.504 222.258 249.846 220.942 250.7 219.845C251.553 218.749 252.338 218.848 252.693 217.549C252.897 216.808 253.57 214.451 254.116 212.556C254.828 210.033 256.246 207.767 258.204 206.024C259.48 204.899 260.997 203.984 262.519 204.039C263.417 204.068 264.309 204.198 265.177 204.427Z" fill="black"/>
<path opacity="0.1" d="M265.083 203.892C266.135 204.166 267.1 204.706 267.884 205.459C268.668 206.212 269.246 207.154 269.563 208.194C269.905 209.372 269.883 210.662 268.714 211.526C266.045 213.499 262.271 214.889 260.528 218.128C259.433 220.246 258.676 222.522 258.285 224.874L253.763 231.549C253.763 231.549 253.079 233.685 248.5 232.012C243.921 230.338 241.421 229.485 241.421 229.485C241.421 229.485 237.873 227.58 236.29 226.887C236.067 226.772 235.829 226.688 235.584 226.637C235.049 226.637 231.233 223.372 231.06 222.922C230.887 222.472 234.915 220.604 236.527 221.01C236.527 221.01 236.757 221.975 239.783 221.832C242.809 221.69 243.95 222.97 243.95 222.97C243.95 222.97 245.445 222.437 246.406 222.49C247.366 222.543 249.112 221.613 250.41 221.725C250.41 221.725 249.752 220.409 250.607 219.313C251.463 218.216 252.243 218.317 252.601 217.017C252.803 216.278 253.478 213.92 254.022 212.023C254.734 209.501 256.152 207.234 258.109 205.491C259.388 204.366 260.903 203.451 262.425 203.517C263.322 203.541 264.214 203.667 265.083 203.892Z" fill="black"/>
<path d="M265.177 204.107C266.229 204.381 267.192 204.92 267.975 205.673C268.759 206.426 269.336 207.367 269.651 208.407C269.995 209.585 269.971 210.876 268.804 211.74C266.133 213.714 262.361 215.104 260.616 218.343C259.523 220.461 258.769 222.737 258.379 225.089L253.857 231.762C253.857 231.762 253.171 233.897 248.594 232.224C244.018 230.551 241.516 229.698 241.516 229.698C241.516 229.698 237.967 227.792 236.382 227.099C236.159 226.985 235.921 226.901 235.676 226.849C235.143 226.849 231.327 223.584 231.152 223.135C230.977 222.685 235.009 220.817 236.621 221.222C236.621 221.222 236.851 222.187 239.878 222.045C242.904 221.902 244.044 223.183 244.044 223.183C244.044 223.183 245.54 222.65 246.5 222.703C247.461 222.755 249.204 221.826 250.504 221.937C250.504 221.937 249.846 220.622 250.7 219.525C251.553 218.429 252.338 218.53 252.693 217.231C252.897 216.49 253.57 214.133 254.116 212.236C254.828 209.714 256.246 207.448 258.204 205.705C259.48 204.578 260.997 203.666 262.519 203.732C263.416 203.757 264.308 203.882 265.177 204.107Z" fill="#FD6F8D"/>
<path d="M252.519 186.44C252.345 185.572 252.692 185.225 252.866 184.358C253.039 183.837 253.409 183.263 253.697 182.797C255.259 181.235 255.315 181.197 257.203 180.541C259.091 179.885 259.549 180.429 261.541 180.541C263.532 180.653 264.586 181.261 265.878 182.797C266.105 183.112 266.919 183.838 266.919 183.838C266.919 183.838 267.743 184.358 268.481 184.878C271.43 186.96 270.891 188.805 271.777 189.998C272.663 191.191 273.028 192.851 273.859 195.288C274.706 197.773 274.704 197.321 275.767 198.585C276.831 199.849 275.863 201.609 277.849 202.69C278.717 203.037 278.524 204.456 279.064 204.831C279.758 205.41 279.758 206.079 279.758 206.739C279.758 207.954 279.485 208.199 279.064 208.995C278.717 210.209 279.064 211.25 278.717 211.597C277.735 212.579 278.333 212.938 277.155 213.506C276.105 214.01 276.461 212.985 275.42 212.985C274.032 212.985 273.874 212.343 272.508 212.436C271.762 212.488 270.986 212.473 270.297 212.181C268.925 211.6 268.197 210.034 268.116 208.548C268.034 207.061 268.464 205.598 268.773 204.142C268.874 203.662 268.962 203.149 268.784 202.69C268.62 202.338 268.366 202.036 268.048 201.813C266.429 200.535 264.12 199.949 263.19 198.105C262.565 196.866 262.752 195.394 262.6 194.015C262.543 193.511 262.418 192.978 262.048 192.636C261.589 192.215 260.907 192.197 260.293 192.142C258.465 191.957 256.74 191.207 255.357 189.998C254.686 189.414 254.283 188.682 253.697 188.044C253.112 187.406 252.692 187.304 252.519 186.44Z" fill="#FFD1C5"/>
<g opacity="0.1">
<path opacity="0.1" d="M279.126 207.828C280.223 207.302 281.714 207.723 282.657 207.03C282.568 207.202 282.455 207.361 282.321 207.502C281.4 208.429 279.771 207.903 278.593 208.471C278.326 208.601 278.084 208.778 277.878 208.993C278.191 208.507 278.62 208.107 279.126 207.828Z" fill="black"/>
<path opacity="0.1" d="M250.116 184.096C250.336 183.701 250.607 183.336 250.923 183.013C250.821 183.154 250.726 183.3 250.64 183.452C250.352 183.918 250.224 184.465 250.274 185.011C250.395 185.827 251.103 186.458 251.882 186.732C252.66 187.006 253.636 186.748 254.217 187.39C254.798 188.033 255.208 188.761 255.879 189.344C257.262 190.553 258.986 191.303 260.813 191.489C261.432 191.546 262.114 191.561 262.568 191.982C262.94 192.324 263.065 192.859 263.12 193.362C263.278 194.739 263.085 196.212 263.71 197.451C264.64 199.293 266.949 199.879 268.57 201.159C268.887 201.382 269.14 201.685 269.304 202.037C269.484 202.493 269.396 203.008 269.293 203.488C268.982 204.944 268.552 206.405 268.635 207.894C268.719 209.383 269.447 210.946 270.817 211.528C271.508 211.819 272.282 211.832 273.03 211.782C274.394 211.69 275.824 211.343 276.793 210.385L276.806 210.37C276.642 210.604 276.458 210.824 276.258 211.028C275.291 211.992 273.861 212.332 272.495 212.424C271.749 212.477 270.973 212.462 270.284 212.17C268.912 211.589 268.184 210.023 268.103 208.536C268.021 207.05 268.451 205.587 268.76 204.131C268.861 203.651 268.949 203.137 268.771 202.679C268.607 202.327 268.353 202.025 268.035 201.802C266.416 200.524 264.107 199.938 263.177 198.094C262.552 196.855 262.739 195.383 262.587 194.004C262.53 193.5 262.405 192.967 262.033 192.625C261.576 192.204 260.894 192.186 260.278 192.131C258.45 191.945 256.725 191.196 255.342 189.987C254.671 189.403 254.267 188.671 253.682 188.033C253.096 187.395 252.132 187.653 251.344 187.375C250.557 187.096 249.858 186.469 249.737 185.653C249.691 185.107 249.825 184.561 250.116 184.096Z" fill="black"/>
</g>
<defs>
<clipPath id="clip0">
<rect width="13.814" height="13.814" fill="white" transform="translate(68.4246 181.93)"/>
</clipPath>
<clipPath id="clip1">
<rect width="10.1113" height="10.1113" fill="white" transform="matrix(-1 0 0 1 118.126 218.103)"/>
</clipPath>
</defs>
</svg>
