<svg width="320" height="135" viewBox="0 0 320 135" fill="none" xmlns="http://www.w3.org/2000/svg">
<path opacity="0.8" d="M0 93.485C0 93.485 17.108 90.4124 42.6667 93.485C70.25 96.801 78.074 93.3575 105.833 93.485C115.607 93.5299 131.775 93.485 151.583 93.485C181.25 93.485 207.083 91.827 207.083 91.827C207.083 91.827 215.99 91.9779 236.75 91.827C255.274 91.6924 285.441 90.0355 303.917 91.827C316.01 92.9997 320 93.485 320 93.485V165H0V93.485Z" fill="#7ABFA2"/>
<path d="M44.8509 58.0084C44.5987 58.3012 44.3575 58.6024 44.1271 58.912C43.5962 58.3252 42.4007 56.9345 42.1548 56.0423C42.1548 56.0423 44.5987 55.5476 45.7866 57.1591C45.4045 57.3333 45.1183 57.7005 44.8509 58.0084Z" fill="#D8A97E"/>
<path d="M61.8134 76.9104C61.8134 76.9104 60.0202 79.8546 62.2901 82.0453C62.2901 82.0453 64.2409 83.6379 64.3595 84.4342C64.3595 84.4342 64.0127 90.1724 63.6028 91.8987C63.5949 91.9348 63.595 91.9721 63.6031 92.008C63.6111 92.044 63.627 92.0778 63.6495 92.107C63.6728 92.1354 63.702 92.1583 63.7352 92.1742C63.7683 92.1901 63.8044 92.1986 63.8412 92.1991H64.9975C65.061 92.1991 65.122 92.1743 65.1674 92.13C65.2129 92.0857 65.2393 92.0253 65.2409 91.9618C65.2725 90.8147 65.4477 85.8539 66.1501 84.5541C66.1501 84.5541 64.6369 81.6062 66.1501 77.9036C66.1501 77.9036 63.4452 75.8327 61.8134 76.9104Z" fill="#D8A97E"/>
<path d="M51.9495 78.5403V91.9549C51.9495 91.987 51.9432 92.0188 51.9309 92.0484C51.9186 92.0781 51.9005 92.105 51.8778 92.1276C51.8551 92.1502 51.8281 92.1682 51.7984 92.1803C51.7687 92.1925 51.737 92.1987 51.7049 92.1985H50.6141C50.5801 92.1983 50.5464 92.191 50.5154 92.1771C50.4843 92.1632 50.4565 92.1429 50.4337 92.1176C50.4109 92.0923 50.3937 92.0625 50.383 92.0302C50.3724 91.9978 50.3686 91.9636 50.372 91.9297C50.4981 90.7371 50.918 85.9038 50.1198 83.9554C49.2055 81.7255 47.6532 79.7745 47.5334 75.3147L51.9495 78.5403Z" fill="#D8A97E"/>
<path d="M46.5659 57.5366C46.5659 57.5366 46.1876 56.739 46.5281 55.3029C46.8686 53.8668 47.1574 52.3019 46.7942 52.0735C46.431 51.8451 46.3276 51.9069 46.228 53.5879C46.1284 55.2688 45.542 55.8279 44.721 55.3445C43.9001 54.8612 43.1952 52.9468 43.035 52.2754C42.8749 51.6041 42.5243 51.0892 42.3314 51.7012C42.1384 52.3133 42.5419 53.9589 42.7942 54.1267C43.0464 54.2946 40.9808 54.0005 40.5583 52.1076C40.1359 50.2147 41.1914 47.9734 40.726 47.8851C40.2607 47.7967 39.3389 50.5869 39.499 51.9511C39.499 51.9511 37.808 51.1561 38.9618 48.9792C40.1157 46.8023 40.5079 45.871 39.9984 45.7776C39.489 45.6842 39.6315 46.03 39.1346 47.0269C38.6378 48.0239 38.0778 48.8606 37.4221 48.458C36.7664 48.0554 37.6075 45.8722 38.0287 45.1289C38.5961 44.1282 38.0602 43.8455 37.8029 43.9932C37.2582 44.3087 36.0778 46.7342 36.3502 48.1198C36.3502 48.1198 35.4599 47.35 35.7739 45.4697C36.1295 43.3243 36.6239 43.1363 36.2506 42.865C35.7727 42.5179 33.2771 46.1272 35.9265 49.566C38.576 53.0049 39.2405 53.868 44.1233 55.8922C44.6958 56.1282 45.3226 56.1446 45.7551 57.7587L46.5659 57.5366Z" fill="#D8A97E"/>
<path d="M42.1549 60.8198C42.9045 60.2621 43.5741 59.6039 44.1448 58.8638C44.1448 58.8638 45.1852 56.9923 45.6581 56.9923C45.6581 56.9923 47.8283 56.3866 49.6379 57.7091C49.6379 57.7091 51.3882 56.5153 52.8611 56.5544C52.8611 56.5544 53.2193 57.6296 50.991 59.4216C50.991 59.4216 50.1953 63.9217 54.0541 65.8727C57.9129 67.8237 59.1878 68.0181 60.382 68.0181C61.5762 68.0181 66.1904 66.9126 69.1753 70.0953C69.9177 70.5783 70.552 71.21 71.0382 71.9507C71.5244 72.6914 71.8519 73.5249 72 74.3986C72 74.3986 71.9206 75.5936 71.4426 76.4291C71.2101 76.3202 71.0021 76.1654 70.8311 75.9739C70.6601 75.7823 70.5297 75.5581 70.4477 75.3147C70.4477 75.3147 71.1248 77.7831 69.4136 80.8497C69.4136 80.8497 69.3732 82.3224 70.8007 83.6374C70.8007 83.6374 70.8411 84.2343 70.1702 85.6288C69.5838 86.8365 69.686 90.8899 69.7226 91.9461C69.7237 91.9789 69.7183 92.0115 69.7066 92.0421C69.6949 92.0726 69.6772 92.1005 69.6545 92.1241C69.6317 92.1477 69.6045 92.1664 69.5744 92.1792C69.5443 92.192 69.5119 92.1985 69.4792 92.1985H68.2446C68.211 92.1986 68.1777 92.1918 68.1469 92.1784C68.1161 92.1649 68.0883 92.1453 68.0655 92.1206C68.0426 92.096 68.0251 92.0668 68.014 92.0351C68.003 92.0033 67.9986 91.9696 68.0012 91.936C68.0971 90.6173 68.5056 84.7429 68.2207 84.0349C67.9029 83.2386 65.5952 81.5665 64.9974 80.0534C64.3997 78.5403 64.638 77.5408 64.638 77.5408C64.638 77.5408 62.2509 77.3818 60.8183 78.3763C59.3858 79.3707 56.4047 80.0092 56.4047 80.0092C56.2477 82.1011 55.9387 84.1787 55.4803 86.2257L55.1752 91.9676C55.1716 92.0301 55.1443 92.0888 55.0988 92.1318C55.0533 92.1747 54.9931 92.1986 54.9305 92.1985H53.6581C53.626 92.1987 53.5941 92.1924 53.5645 92.18C53.5348 92.1677 53.5079 92.1495 53.4854 92.1266C53.4624 92.1039 53.4443 92.0767 53.4322 92.0468C53.42 92.0168 53.4141 91.9847 53.4147 91.9524C53.4261 90.529 53.4513 83.3231 52.735 80.172C52.735 80.172 49.2331 80.172 47.9204 76.9073C47.9204 76.9073 46.4475 74.16 45.4525 72.9246C44.4575 71.6891 43.9392 69.5804 44.8964 67.43C45.4622 66.1314 45.519 64.6672 45.0553 63.3286C45.0553 63.3286 42.5483 63.6063 41.6732 63.2087C40.798 62.8112 40.8825 61.7751 42.1549 60.8198Z" fill="#FFB877"/>
<path d="M70.4477 75.3154C70.4477 75.3154 70.3089 73.8313 70.0996 73.4729C70.0996 73.4729 71.2938 74.1304 71.4426 76.4297C70.9985 76.1766 70.6492 75.7854 70.4477 75.3154Z" fill="#E4AC74"/>
<path d="M47.9785 57.9088C47.8781 57.8638 47.7985 57.7824 47.7557 57.6811C47.7129 57.5797 47.71 57.4658 47.7477 57.3624C47.9704 56.7337 48.0593 56.0652 48.0087 55.4001C47.9205 53.7822 47.9205 52.0319 48.358 51.8565C48.7956 51.6811 48.8953 51.7694 48.6708 53.6068C48.4463 55.4442 48.9709 56.1636 49.9545 55.8039C50.9381 55.4442 52.0756 53.5197 52.3808 52.8194C52.6859 52.119 53.1677 51.6382 53.2559 52.3373C53.3442 53.0364 52.5825 54.735 52.2761 54.8612C51.9697 54.9874 54.261 55.0884 55.092 53.1184C55.923 51.1485 55.2181 48.5249 55.7478 48.5249C56.2774 48.5249 56.7099 51.7189 56.2724 53.1626C56.2724 53.1626 58.2585 52.6376 57.4401 50.0557C56.6217 47.4737 56.3821 46.396 56.9508 46.396C57.5195 46.396 57.2976 46.7354 57.6381 47.9103C57.9785 49.0852 58.4149 50.0986 59.2018 49.7919C59.9887 49.4852 59.5107 46.9601 59.2018 46.0729C58.7869 44.8803 59.4224 44.6847 59.6696 44.8917C60.1967 45.3397 60.995 48.1955 60.4262 49.6392C60.4262 49.6392 61.541 48.983 61.5738 46.8818C61.6116 44.4942 61.1148 44.1913 61.5738 43.9793C62.1564 43.6992 64.1425 48.0933 60.6015 51.2924C57.0605 54.4915 56.1702 55.289 50.4905 56.5106C49.889 56.6368 49.2773 56.5623 48.585 57.7726C48.529 57.8684 48.4381 57.9387 48.3313 57.9688C48.2246 57.999 48.1103 57.9865 48.0125 57.9341L47.9848 57.9202L47.9785 57.9088Z" fill="#D8A97E"/>
<path d="M41.5772 61.5056C41.5772 61.5056 42.1838 61.6899 41.8635 62.3625C41.6365 62.8408 41.2506 62.7928 41.2506 62.7928C41.2506 62.7928 40.5079 61.5574 41.5772 61.5056Z" fill="#D8A97E"/>
<path d="M43.0958 68.5107C43.23 67.894 43.595 67.3521 44.116 66.9963C44.5488 66.6987 44.8897 66.2858 45.1001 65.8042C45.3105 65.3227 45.382 64.7918 45.3064 64.2717C45.2597 63.9561 45.1807 63.6462 45.0706 63.3467C48.9722 63.9777 49.7364 62.3523 49.7364 62.3523C51.8802 67.7712 49.4376 68.7959 48.8423 71.8978C48.2471 74.9997 52.7365 80.1699 52.7365 80.1699L52.5448 80.1611C51.8045 80.1068 49.058 79.7182 47.9281 76.909C47.9281 76.909 47.0378 75.2483 46.1752 73.9295C45.706 73.6379 45.3049 73.2487 44.999 72.7885C44.6931 72.3282 44.4896 71.8076 44.4022 71.2617L44.2307 71.4599C43.8385 70.6005 44.2307 69.5165 44.2307 69.5165L43.5397 69.7032C43.5761 69.2315 43.7366 68.7778 44.005 68.3883C43.7163 68.502 43.4043 68.544 43.0958 68.5107Z" fill="#D8A97E"/>
<path d="M117.31 106.964C117.02 106.717 116.809 106.384 116.704 106.009C116.625 105.629 116.78 105.175 117.128 105.036C117.518 104.881 117.934 105.162 118.249 105.448C118.564 105.733 118.926 106.057 119.34 105.996C119.127 105.795 118.968 105.54 118.879 105.256C118.789 104.972 118.771 104.669 118.827 104.375C118.845 104.254 118.894 104.139 118.969 104.045C119.186 103.804 119.577 103.908 119.837 104.098C120.66 104.702 120.889 105.869 120.894 106.92C120.977 106.541 120.907 106.146 120.91 105.763C120.913 105.38 121.015 104.937 121.328 104.735C121.522 104.626 121.741 104.572 121.961 104.578C122.332 104.564 122.743 104.603 122.997 104.886C123.313 105.236 123.229 105.826 122.955 106.208C122.682 106.589 122.267 106.835 121.884 107.103C121.577 107.294 121.315 107.554 121.117 107.865C121.094 107.908 121.075 107.953 121.06 108H118.741C118.222 107.724 117.74 107.375 117.31 106.964Z" fill="#50A495"/>
<path d="M251.634 101.285C251.303 101.015 251.061 100.652 250.941 100.243C250.851 99.8283 251.028 99.3326 251.426 99.1812C251.871 99.0118 252.347 99.3182 252.707 99.63C253.067 99.9419 253.482 100.295 253.954 100.228C253.711 100.009 253.53 99.7312 253.427 99.4213C253.324 99.1114 253.304 98.7803 253.368 98.4602C253.388 98.3276 253.444 98.203 253.53 98.0998C253.778 97.8366 254.225 97.9502 254.522 98.1574C255.463 98.8171 255.725 100.09 255.73 101.236C255.825 100.823 255.745 100.392 255.749 99.9743C255.752 99.5561 255.868 99.0731 256.226 98.8532C256.448 98.7343 256.698 98.6752 256.95 98.6819C257.373 98.6657 257.844 98.709 258.133 99.0172C258.495 99.3993 258.399 100.043 258.086 100.459C257.773 100.876 257.299 101.144 256.861 101.436C256.51 101.644 256.211 101.928 255.986 102.267C255.959 102.314 255.937 102.364 255.92 102.415H253.27C252.676 102.113 252.126 101.733 251.634 101.285Z" fill="#50A495"/>
<path d="M70.0397 93.0208C69.827 92.8475 69.672 92.6136 69.5953 92.3501C69.5372 92.0833 69.6509 91.7642 69.9062 91.6667C70.1917 91.5576 70.4969 91.7549 70.7278 91.9556C70.9587 92.1564 71.2244 92.3838 71.5273 92.3409C71.3716 92.1998 71.2552 92.0207 71.1893 91.8212C71.1234 91.6217 71.1103 91.4086 71.1513 91.2025C71.1644 91.1171 71.2005 91.0369 71.2557 90.9705C71.4147 90.8011 71.7013 90.8742 71.8916 91.0076C72.495 91.4323 72.6633 92.2515 72.6667 92.9895C72.7271 92.7238 72.676 92.4464 72.6783 92.1772C72.6807 91.908 72.7549 91.5971 72.9847 91.4555C73.1271 91.3789 73.2871 91.3409 73.4488 91.3453C73.7203 91.3348 74.022 91.3627 74.2077 91.5611C74.4398 91.8071 74.3783 92.2213 74.1775 92.4894C73.9768 92.7574 73.6728 92.9303 73.392 93.1183C73.1669 93.2521 72.9749 93.4349 72.8303 93.6532C72.8133 93.6835 72.7994 93.7154 72.7886 93.7484H71.0886C70.7078 93.5543 70.3549 93.3096 70.0397 93.0208Z" fill="#50A495"/>
<path opacity="0.8" d="M0 111.112C0 111.112 17.0991 108.796 42.6445 111.112C70.2134 113.61 76.9506 115.93 104.695 116.026C114.464 116.06 131.57 114.924 151.338 116.026C179.74 117.608 207.309 116.026 207.309 116.026C207.309 116.026 205.299 116.14 226.049 116.026C244.564 115.924 284.793 111.511 303.259 112.861C315.345 113.744 319.833 116.026 319.833 116.026V165H0V111.112Z" fill="#649FCF"/>
<path d="M168.792 141.205C176.125 140.574 177.176 130.074 177.176 130.074C176.714 131.545 175.962 131.619 172.093 132.458C168.224 133.298 165.583 136.958 165.583 136.958C155.613 123.084 144.623 136.071 144.623 136.071C145.997 138.646 148.177 140.7 150.828 141.919C150.28 142.96 149.664 144.425 150.161 145.033C150.733 145.727 152.654 143.948 153.699 142.869C153.974 142.928 154.25 142.984 154.527 143.03C154.958 144.155 156.01 147.106 155.845 148.781C155.845 148.781 158.926 148.844 159.081 143.229C161.051 143.101 162.996 142.721 164.87 142.1C164.87 142.1 163.709 150.769 166.198 151.471C168.687 152.173 170.87 155.499 170.87 155.499C175.343 148.525 168.792 141.205 168.792 141.205Z" fill="white"/>
<path opacity="0.3" d="M5 59C5.51792 49.1276 13.8408 41.2791 24.0325 41.2791C24.6118 41.2791 25.1837 41.3087 25.7498 41.3583C27.9762 37.6006 31.1686 34.4816 35.0081 32.313C38.8476 30.1444 43.1998 29.0021 47.6301 29C52.0605 28.9979 56.4138 30.1363 60.2554 32.3013C64.097 34.4664 67.2924 37.5823 69.5224 41.338C70 41.3028 70.4807 41.2791 70.9675 41.2791C81.1592 41.2791 89.4821 49.1276 90 59" fill="#ACCDFF"/>
<path opacity="0.3" d="M137 35.4897C137.451 26.6046 144.697 19.5409 153.569 19.5409C154.074 19.5409 154.572 19.5676 155.065 19.6123C157.003 16.2303 159.782 13.4232 163.125 11.4715C166.467 9.51974 170.256 8.4916 174.113 8.48975C177.97 8.4879 181.76 9.5124 185.105 11.4609C188.449 13.4095 191.231 16.2139 193.172 19.594C193.588 19.5623 194.007 19.5409 194.431 19.5409C203.303 19.5409 210.549 26.6046 211 35.4897" fill="#ACCDFF"/>
<path d="M174.012 6.60864H187.891C187.891 6.60864 182.662 17.0182 174.012 6.60864Z" fill="#ACCDFF"/>
<path d="M174.673 10.5748L184.108 0C184.108 0 187.801 10.1071 174.673 10.5748Z" fill="#ACCDFF"/>
<path d="M27.6651 42.0305H15C15 42.0305 19.7715 51.5294 27.6651 42.0305Z" fill="#ACCDFF"/>
<path d="M27.062 45.6496L18.4523 36C18.4523 36 15.0826 45.2228 27.062 45.6496Z" fill="#ACCDFF"/>
<path opacity="0.25" fill-rule="evenodd" clip-rule="evenodd" d="M255.828 83.0443C252.704 51.7668 101.769 -7.1075 74.1696 22.8332C46.5705 52.7739 73.9717 108.148 132.597 121.795C191.222 135.443 258.953 114.322 255.828 83.0443Z" fill="#96E3B4"/>
<path d="M145.556 54.5244V78.512C145.556 78.9193 145.611 79.3248 145.72 79.7171C145.983 80.6711 146.552 81.5124 147.34 82.112C148.127 82.7116 149.09 83.0363 150.079 83.0364H170.355C170.949 83.0367 171.538 82.9198 172.087 82.6925C172.636 82.4652 173.135 82.1319 173.555 81.7117C173.975 81.2916 174.308 80.7927 174.536 80.2437C174.763 79.6947 174.88 79.1062 174.88 78.512V54.5244C174.88 53.9302 174.763 53.3418 174.536 52.7928C174.308 52.2437 173.975 51.7449 173.555 51.3247C173.135 50.9045 172.636 50.5713 172.087 50.344C171.538 50.1167 170.949 49.9998 170.355 50H150.079C149.09 50.0001 148.127 50.3248 147.34 50.9244C146.552 51.524 145.983 52.3653 145.72 53.3193C145.611 53.7117 145.556 54.1171 145.556 54.5244Z" fill="white"/>
<path opacity="0.1" d="M174.552 54.5244V78.5119C174.552 78.9197 174.607 79.3256 174.716 79.7187C174.825 79.3256 174.88 78.9197 174.88 78.5119V54.5244C174.88 54.1166 174.825 53.7106 174.716 53.3176C174.607 53.7106 174.552 54.1166 174.552 54.5244Z" fill="black"/>
<path d="M179.405 50H205.892C208.391 50 210.417 52.0257 210.417 54.5244V78.5055C210.417 81.0042 208.391 83.0299 205.892 83.0299H179.405C176.906 83.0299 174.88 81.0042 174.88 78.5055V54.5244C174.88 52.0257 176.906 50 179.405 50Z" fill="white"/>
<path opacity="0.1" d="M145.557 54.5244V78.512C145.556 78.9193 145.611 79.3248 145.721 79.7171C145.829 79.3246 145.884 78.9192 145.884 78.512V54.5244C145.884 54.1172 145.829 53.7118 145.721 53.3193C145.611 53.7117 145.556 54.1171 145.557 54.5244Z" fill="black"/>
<path d="M114.544 50H141.033C143.532 50 145.557 52.0257 145.557 54.5244V78.5055C145.557 81.0042 143.532 83.0299 141.033 83.0299H114.544C112.045 83.0299 110.019 81.0042 110.019 78.5055V54.5244C110.019 52.0257 112.045 50 114.544 50Z" fill="white"/>
<path opacity="0.1" d="M176.679 85.4827H209.141L209.305 82.6457C209.485 79.4604 205.367 76.8164 200.225 76.8164H178.131C176.406 76.8164 175.075 77.755 175.296 78.8145L176.679 85.4827Z" fill="black"/>
<path d="M176.679 85.8098H209.141L209.305 82.9728C209.485 79.7876 205.367 77.1436 200.225 77.1436H178.131C176.406 77.1436 175.075 78.0821 175.296 79.1417L176.679 85.8098Z" fill="#5293A0"/>
<path opacity="0.1" d="M144.149 85.6704H111.687L111.523 82.8334C111.343 79.6482 115.461 77.0042 120.603 77.0042H142.697C144.421 77.0042 145.753 77.9427 145.533 79.0023L144.149 85.6704Z" fill="black"/>
<path d="M144.149 85.9976H111.687L111.523 83.1606C111.343 79.9753 115.461 77.3313 120.603 77.3313H142.697C144.421 77.3313 145.753 78.2699 145.533 79.3294L144.149 85.9976Z" fill="#5293A0"/>
<path opacity="0.1" d="M171.057 77.0042H149.061C148.447 77.0042 147.839 77.1251 147.272 77.36C146.705 77.5949 146.19 77.9393 145.756 78.3734C145.321 78.8075 144.977 79.3228 144.742 79.89C144.507 80.4572 144.386 81.0651 144.386 81.679V84.583H176.188V82.1303C176.187 80.7702 175.646 79.4661 174.684 78.5048C173.722 77.5435 172.417 77.0037 171.057 77.0042Z" fill="black"/>
<path d="M171.057 77.3313H149.061C148.447 77.3313 147.839 77.4522 147.272 77.6872C146.705 77.9221 146.19 78.2664 145.756 78.7005C145.321 79.1346 144.977 79.65 144.742 80.2172C144.507 80.7844 144.386 81.3923 144.386 82.0062V84.9102H176.188V82.4575C176.187 81.0973 175.646 79.7932 174.684 78.8319C173.722 77.8706 172.417 77.3309 171.057 77.3313Z" fill="#5293A0"/>
<path d="M206.924 80.2502H180.598C179.427 80.2502 178.304 80.7154 177.477 81.5433C176.649 82.3713 176.183 83.4942 176.183 84.6651V90.6334H208.881V82.2075C208.88 81.6888 208.673 81.1917 208.307 80.8249C207.94 80.4582 207.443 80.2515 206.924 80.2502Z" fill="white"/>
<path d="M172.591 80.2502H147.573C146.402 80.2502 145.279 80.7154 144.451 81.5433C143.623 82.3713 143.158 83.4942 143.158 84.6651V90.6334H176.759V84.4199C176.759 83.3143 176.319 82.254 175.538 81.4721C174.756 80.6902 173.696 80.2507 172.591 80.2502Z" fill="white"/>
<path d="M141.804 80.2502H115.075C113.958 80.2502 112.887 80.6938 112.097 81.4835C111.308 82.2731 110.864 83.344 110.864 84.4607V90.6334H143.557V82.0031C143.557 81.7729 143.512 81.545 143.424 81.3323C143.336 81.1197 143.206 80.9264 143.044 80.7637C142.881 80.6009 142.688 80.4718 142.475 80.3837C142.262 80.2956 142.034 80.2502 141.804 80.2502Z" fill="white"/>
<path opacity="0.7" d="M208.401 104.45V108.906C208.401 109.502 208.638 110.073 209.06 110.495C209.482 110.917 210.053 111.154 210.649 111.154H212.203C212.799 111.154 213.37 110.917 213.792 110.495C214.214 110.073 214.451 109.502 214.451 108.906V104.45H208.401Z" fill="#5293A0"/>
<path opacity="0.7" d="M105.472 104.45V108.906C105.473 109.502 105.71 110.073 106.131 110.495C106.553 110.917 107.125 111.154 107.721 111.154H109.274C109.87 111.154 110.442 110.917 110.863 110.495C111.285 110.073 111.522 109.502 111.522 108.906V104.45H105.472Z" fill="#5293A0"/>
<path opacity="0.4" d="M206.751 75.2057C206.751 74.0747 207.072 72.967 207.677 72.0116C208.283 71.0562 209.147 70.2924 210.17 69.8093C211.192 69.3261 212.331 69.1435 213.453 69.2826C214.576 69.4218 215.636 69.877 216.509 70.5952C217.383 71.3135 218.034 72.2651 218.388 73.3394C218.742 74.4137 218.783 75.5664 218.507 76.6631C218.23 77.7598 217.648 78.7555 216.828 79.5342C216.008 80.3128 214.983 80.8424 213.874 81.0612V105.186H207.169V77.4082C206.892 76.7071 206.75 75.9597 206.751 75.2057Z" fill="white"/>
<path opacity="0.4" d="M113.413 75.2057C113.413 74.0747 113.092 72.967 112.487 72.0116C111.881 71.0562 111.017 70.2924 109.994 69.8093C108.972 69.3261 107.833 69.1435 106.711 69.2826C105.588 69.4218 104.528 69.877 103.655 70.5952C102.781 71.3135 102.129 72.2651 101.776 73.3394C101.422 74.4137 101.381 75.5664 101.657 76.6631C101.933 77.7598 102.516 78.7555 103.336 79.5342C104.156 80.3128 105.181 80.8424 106.29 81.0612V105.186H112.995V77.4082C113.272 76.7071 113.414 75.9597 113.413 75.2057Z" fill="white"/>
<path opacity="0.7" d="M110.018 90.3064H209.301V101.017H110.018V90.3064Z" fill="#5293A0"/>
<path opacity="0.1" d="M105.474 104.45H111.514V106.003H105.474V104.45Z" fill="black"/>
<path d="M111.937 75.6964C111.937 74.5652 111.615 73.4572 111.01 72.5015C110.405 71.5459 109.54 70.782 108.517 70.2988C107.494 69.8156 106.355 69.6331 105.233 69.7726C104.11 69.912 103.05 70.3676 102.177 71.0863C101.303 71.8049 100.652 72.7571 100.298 73.8318C99.9452 74.9065 99.9047 76.0594 100.182 77.1562C100.458 78.2531 101.041 79.2486 101.862 80.0269C102.683 80.8051 103.709 81.334 104.819 81.5519V105.677H111.523V77.8989C111.799 77.1977 111.94 76.4502 111.937 75.6964Z" fill="white"/>
<path opacity="0.1" d="M208.486 104.45H214.451V106.003H208.486V104.45Z" fill="black"/>
<path d="M208.063 75.6962C208.064 74.5654 208.385 73.458 208.99 72.5028C209.595 71.5477 210.459 70.7841 211.482 70.301C212.504 69.8178 213.643 69.6351 214.765 69.7739C215.887 69.9128 216.947 70.3676 217.82 71.0854C218.694 71.8032 219.346 72.7544 219.7 73.8282C220.054 74.9021 220.096 76.0545 219.82 77.1511C219.545 78.2478 218.963 79.2436 218.144 80.0227C217.324 80.8018 216.3 81.332 215.191 81.5516V105.677H208.487V77.8987C208.207 77.1981 208.063 76.4506 208.063 75.6962Z" fill="white"/>
<path opacity="0.4" d="M214.45 78.2063C212.96 78.2063 211.752 76.9983 211.752 75.5083C211.752 74.0182 212.96 72.8103 214.45 72.8103C215.94 72.8103 217.148 74.0182 217.148 75.5083C217.148 76.9983 215.94 78.2063 214.45 78.2063Z" fill="white"/>
<path opacity="0.4" d="M105.474 78.2063C103.984 78.2063 102.776 76.9983 102.776 75.5083C102.776 74.0182 103.984 72.8103 105.474 72.8103C106.964 72.8103 108.172 74.0182 108.172 75.5083C108.172 76.9983 106.964 78.2063 105.474 78.2063Z" fill="white"/>
<path d="M185.914 70.9476C188.484 70.305 193.911 63.5289 193.911 63.5289C195.952 62.1031 200.113 53.4663 200.113 53.4663C200.113 53.4663 201.693 52.7223 203.085 56.0678C204.476 59.4133 212.568 62.0884 214.992 62.4628C216.357 62.6738 216.225 63.2804 215.848 63.7709C215.595 64.0858 215.259 64.3236 214.877 64.4577C213.847 64.8485 210.65 68.6862 210.65 68.6862C207.669 70.7007 204.363 80.0063 203.264 82.4377C202.654 83.79 201.976 83.1425 201.492 82.3004C200.557 80.6745 199.277 79.2735 197.742 78.1962C193.583 75.2709 189.124 74.0576 188.82 74.0527C188.435 74.0429 183.343 71.5902 185.914 70.9476Z" fill="#3C6E75"/>
<path d="M218.311 62.7753C218.7 62.6391 219.045 62.3988 219.308 62.0803C219.705 61.5898 219.867 60.9619 218.522 60.7264C216.136 60.3078 208.22 57.4561 207.004 53.988C205.787 50.5199 204.178 51.2704 204.178 51.2704C204.178 51.2704 199.626 60.1002 197.53 61.5489C197.53 61.5489 191.807 68.4525 189.225 69.082C186.643 69.7115 191.578 72.2983 191.959 72.3131C192.261 72.3229 196.63 73.6212 200.625 76.6936C202.105 77.8339 203.309 79.2939 204.145 80.9646C204.585 81.8378 205.23 82.5131 205.902 81.1281C207.11 78.6378 210.848 69.1 213.906 67.0659C213.906 67.0659 217.269 63.1628 218.311 62.7753Z" fill="#5293A0"/>
<path opacity="0.1" d="M209.14 65.8969C209.14 65.8969 209.997 66.703 205.899 65.1578C201.802 63.6126 209.14 65.8969 209.14 65.8969Z" fill="black"/>
<path opacity="0.1" d="M205.777 69.8295C205.777 69.8295 205.153 69.9194 202.803 68.9596C200.453 67.9998 205.777 69.8295 205.777 69.8295Z" fill="black"/>
<path opacity="0.1" d="M205.983 77.0501C205.983 77.0501 205.4 77.0501 203.055 76.0788C200.71 75.1076 205.983 77.0501 205.983 77.0501Z" fill="black"/>
<path opacity="0.1" d="M110.346 60.8849V64.0047C111.02 65.3979 111.679 67.1769 111.679 67.1769C113.641 69.731 113.33 78.2403 113.459 80.5377C113.531 81.8131 114.367 81.5089 115.094 80.9857C116.532 79.9608 118.165 79.2413 119.892 78.8715C124.634 77.8331 129.049 78.2648 129.33 78.3564C129.677 78.4708 135.092 78.1062 133.019 76.7801C130.946 75.454 128.467 68.3101 128.467 68.3101C127.141 66.5245 126.449 58.2834 126.449 58.2834C126.449 58.2834 125.304 57.1895 122.876 59.428C120.572 61.5749 113.044 61.3133 110.346 60.8849Z" fill="#5293A0"/>
<path d="M109.855 62.9994C109.567 62.7806 109.349 62.483 109.227 62.1425C109.063 61.6324 109.155 61.1042 110.452 61.3642C112.749 61.8253 120.931 62.2292 123.351 59.9825C125.771 57.7358 126.924 58.8297 126.924 58.8297C126.924 58.8297 127.616 67.0692 128.942 68.8564C128.942 68.8564 131.419 76.0004 133.494 77.3265C135.569 78.6526 130.152 79.0172 129.805 78.9011C129.53 78.8096 125.116 78.3795 120.367 79.4178C118.641 79.7878 117.008 80.5067 115.57 81.5304C114.842 82.0537 114.006 82.3595 113.934 81.0824C113.805 78.7932 114.113 70.2774 112.154 67.7233C112.154 67.7233 110.64 63.6371 109.855 62.9994Z" fill="#3B6E75"/>
<path opacity="0.1" d="M108.562 61.9642C108.274 61.7455 108.056 61.4478 107.934 61.1074C107.77 60.5972 107.862 60.0691 109.159 60.3291C111.456 60.7902 119.638 61.1941 122.058 58.9474C124.478 56.7007 125.631 57.7946 125.631 57.7946C125.631 57.7946 126.323 66.0341 127.649 67.8213C127.649 67.8213 130.126 74.9652 132.201 76.2913C134.276 77.6174 128.859 77.9821 128.512 77.866C128.238 77.7744 123.823 77.3444 119.074 78.3827C117.348 78.7526 115.715 79.4715 114.277 80.4953C113.549 81.0185 112.714 81.3243 112.642 80.0473C112.512 77.7581 112.82 69.2422 110.861 66.6881C110.861 66.6881 109.347 62.6019 108.562 61.9642Z" fill="#666666"/>
<path d="M109.154 62.3324C108.88 62.1234 108.674 61.8394 108.559 61.5148C108.395 61.0243 108.49 60.5337 109.72 60.7774C111.903 61.214 119.671 61.5949 121.969 59.4693C124.266 57.3436 125.361 58.3753 125.361 58.3753C125.361 58.3753 126.016 66.1979 127.276 67.8935C127.276 67.8935 129.628 74.6777 131.598 75.9368C133.568 77.1959 128.424 77.5409 128.097 77.4313C127.835 77.3447 123.643 76.9408 119.135 77.9219C117.496 78.2721 115.946 78.955 114.581 79.9282C113.889 80.4187 113.096 80.7147 113.028 79.503C112.905 77.3218 113.191 69.2441 111.337 66.8176C111.337 66.816 109.9 62.9374 109.154 62.3324Z" fill="#5293A0"/>
<path opacity="0.1" d="M114.911 66.842C114.911 66.842 115.483 67.1691 118.222 68.1093C120.961 69.0495 115.361 67.7414 114.911 66.842Z" fill="black"/>
<path opacity="0.1" d="M115.197 69.7278C115.197 69.7278 116.914 71.134 117.772 71.2566C118.631 71.3793 115.687 71.1013 115.197 69.7278Z" fill="black"/>
<path opacity="0.1" d="M113.832 76.2229C113.832 76.2229 115.549 77.6291 116.407 77.7518C117.266 77.8744 114.322 77.5997 113.832 76.2229Z" fill="black"/>
<path d="M293.867 51.2708H305.92C305.92 51.2708 301.379 60.3105 293.867 51.2708Z" fill="#ACCDFF"/>
<path d="M294.441 54.715L302.635 45.5317C302.635 45.5317 305.842 54.3088 294.441 54.715Z" fill="#ACCDFF"/>
<path opacity="0.3" d="M258 51C258.481 41.4566 266.217 33.8698 275.689 33.8698C276.227 33.8698 276.759 33.8984 277.285 33.9464C279.354 30.3139 282.321 27.2989 285.89 25.2026C289.458 23.1063 293.503 22.002 297.621 22C301.739 21.998 305.785 23.0984 309.355 25.1913C312.925 27.2842 315.895 30.2963 317.968 33.9268C318.412 33.8928 318.859 33.8698 319.311 33.8698C328.783 33.8698 336.519 41.4566 337 51" fill="#ACCDFF"/>
</svg>
