<svg width="24" height="18" viewBox="0 0 24 18" fill="none" xmlns="http://www.w3.org/2000/svg">
<path d="M23.6732 9.78911L16.5312 16.9311C16.0954 17.3669 15.3887 17.3669 14.953 16.9311C14.5171 16.4953 14.5171 15.7888 14.953 15.3529L20.1899 10.116H1.11594C0.499673 10.116 0 9.61628 0 9.00001C0 8.38384 0.499673 7.88407 1.11594 7.88407H20.1899L14.9531 2.64711C14.5173 2.21127 14.5173 1.50474 14.9531 1.0689C15.171 0.85116 15.4566 0.742067 15.7422 0.742067C16.0278 0.742067 16.3134 0.85116 16.5313 1.0689L23.6732 8.21091C24.109 8.64675 24.109 9.35327 23.6732 9.78911Z" fill="black"/>
</svg>
