<svg width="18" height="24" viewBox="0 0 18 24" fill="none" xmlns="http://www.w3.org/2000/svg">
<path d="M8.21089 23.6732L1.06888 16.5312C0.633128 16.0954 0.633128 15.3887 1.06888 14.953C1.50472 14.5171 2.21124 14.5171 2.64708 14.953L7.88405 20.1899L7.88405 1.11594C7.88405 0.499673 8.38372 0 8.99999 0C9.61616 0 10.1159 0.499673 10.1159 1.11594L10.1159 20.1899L15.3529 14.9531C15.7887 14.5173 16.4953 14.5173 16.9311 14.9531C17.1488 15.171 17.2579 15.4566 17.2579 15.7422C17.2579 16.0278 17.1488 16.3134 16.9311 16.5313L9.78909 23.6732C9.35325 24.109 8.64673 24.109 8.21089 23.6732Z" fill="black"/>
</svg>
