<svg width="34" height="24" viewBox="0 0 34 24" fill="none" xmlns="http://www.w3.org/2000/svg">
<path d="M33.537 10.8821L23.4191 0.764271C22.8018 0.146956 21.8007 0.146956 21.1833 0.764271C20.5659 1.38171 20.5659 2.38262 21.1833 3.00006L28.6024 10.4191H1.58091C0.70787 10.4191 0 11.127 0 12C0 12.8729 0.70787 13.5809 1.58091 13.5809H28.6024L21.1836 21C20.5662 21.6174 20.5662 22.6183 21.1836 23.2357C21.4922 23.5442 21.8969 23.6988 22.3015 23.6988C22.7061 23.6988 23.1107 23.5442 23.4194 23.2357L33.537 13.1179C34.1544 12.5005 34.1544 11.4996 33.537 10.8821Z" fill="white"/>

</svg>
