<svg width="44" height="44" viewBox="0 0 44 44" fill="none" xmlns="http://www.w3.org/2000/svg">

<path d="M40.1328 15.4688H38.9297V2.57812H40.3047C41.0167 2.57812 41.5938 2.00107 41.5938 1.28906C41.5938 0.577057 41.0167 0 40.3047 0H1.28906C0.577057 0 0 0.577057 0 1.28906C0 2.00107 0.577057 2.57812 1.28906 2.57812H2.66406V36.2656H1.28906C0.577057 36.2656 0 36.8427 0 37.5547C0 38.2664 0.577057 38.8438 1.28906 38.8438H25.9531V40.1328C25.9531 42.2651 27.688 44 29.8203 44H40.1328C42.2651 44 44 42.2651 44 40.1328V19.3359C44 17.2036 42.2651 15.4688 40.1328 15.4688ZM41.4219 19.3359V36.2656H28.7031C28.6447 36.2656 28.5876 36.271 28.5312 36.2784V19.3359C28.5312 18.6253 29.1096 18.0469 29.8203 18.0469H40.1328C40.8435 18.0469 41.4219 18.6253 41.4219 19.3359ZM5.24219 15.4688V12.8906H36.3516V15.4688H5.24219ZM36.3516 10.3125H5.24219V7.73438H36.3516V10.3125ZM5.24219 18.0469H26.1747C26.0317 18.4504 25.9531 18.8841 25.9531 19.3359V20.625H5.24219V18.0469ZM36.3516 2.57812V5.15625H5.24219V2.57812H36.3516ZM5.24219 36.2656V23.2031H25.9531V36.2656H5.24219ZM40.1328 41.4219H29.8203C29.1096 41.4219 28.5312 40.8435 28.5312 40.1328V38.831C28.5876 38.8387 28.6447 38.8438 28.7031 38.8438H41.4219V40.1328C41.4219 40.8435 40.8435 41.4219 40.1328 41.4219Z" fill="white"/>
<path d="M34.9808 20.625C34.635 20.625 34.3041 20.7636 34.0617 21.01L31.4873 23.6268C30.9877 24.1343 30.9945 24.9504 31.502 25.4499C31.7528 25.6967 32.0794 25.8199 32.406 25.8199C32.7394 25.8199 33.0724 25.6913 33.3248 25.4351L34.9805 23.7523L36.6354 25.4348C37.1346 25.9424 37.951 25.9491 38.4583 25.4499C38.9658 24.9507 38.9729 24.1347 38.4734 23.6271L35.8996 21.01C35.6572 20.7636 35.3262 20.625 34.9808 20.625Z" fill="white"/>
<path d="M36.6355 28.8777L34.9805 30.5602L33.3248 28.8774C32.8257 28.3698 32.0093 28.3634 31.502 28.8626C30.9945 29.3618 30.9877 30.1782 31.4873 30.6854L34.0617 33.3025C34.3041 33.5489 34.6351 33.6875 34.9808 33.6875C35.3262 33.6875 35.6572 33.5485 35.8996 33.3025L38.4734 30.6854C38.9729 30.1778 38.9658 29.3618 38.4586 28.8626C37.9507 28.3634 37.1346 28.3701 36.6355 28.8777Z" fill="white"/>

</svg>
