<svg width="44" height="44" viewBox="0 0 44 44" fill="none" xmlns="http://www.w3.org/2000/svg">
<g clip-path="url(#clip0)">
<path d="M43.6659 6.77281C43.4216 6.50331 43.0747 6.34966 42.7109 6.34966H40.3262L40.4858 5.89109C40.6231 5.4969 40.561 5.06068 40.3192 4.72045C40.0775 4.38023 39.6859 4.1781 39.2685 4.1781H3.58523C3.2218 4.1781 2.87521 4.3315 2.63089 4.60066C2.38657 4.86973 2.2672 5.22937 2.30209 5.59117L3.49319 17.918C3.55704 18.5787 4.11237 19.083 4.77632 19.083H9.49601V21.7712C9.49601 22.4831 10.0732 23.0603 10.7851 23.0603H13.2974V26.6659H6.99652V23.3478C6.99652 22.6359 6.41936 22.0587 5.70745 22.0587H1.28906C0.577156 22.0587 0 22.6359 0 23.3478V38.5328C0 39.2447 0.577156 39.8219 1.28906 39.8219H5.70745C6.41936 39.8219 6.99652 39.2447 6.99652 38.5328V35.2146H18.3919C20.2966 35.2146 21.8462 33.6651 21.8462 31.7604V23.0603H24.3585C25.0704 23.0603 25.6475 22.4831 25.6475 21.7712V19.083H31.2936C32.8092 19.083 34.2347 18.5524 35.361 17.642C35.4166 17.6493 35.4729 17.6544 35.5306 17.6544H41.856C42.5193 17.6544 43.0743 17.1511 43.139 16.491L43.9939 7.76436C44.0293 7.40239 43.9102 7.04223 43.6659 6.77281ZM23.0693 20.4822H12.0742V19.083H23.0694V20.4822H23.0693ZM5.94687 16.5049L5.60046 12.9197H26.0784C27.4368 12.9197 28.6546 12.01 29.0399 10.7075L30.2091 6.75631H37.4547L34.9704 13.8917C34.4261 15.4547 32.9486 16.5048 31.2936 16.5048H5.94687V16.5049ZM5.00483 6.75631H27.5205L26.5677 9.97596C26.504 10.1912 26.3028 10.3415 26.0783 10.3415H5.35124L5.00483 6.75631ZM4.41839 37.2437H2.57812V24.6367H4.41839V37.2437ZM19.268 31.7604C19.268 32.2435 18.875 32.6365 18.3918 32.6365H6.99652V29.244H14.5864C15.2983 29.244 15.8755 28.6669 15.8755 27.955V23.0603H19.268V31.7604ZM40.6871 15.0763H37.276C37.3216 14.9655 37.3655 14.8536 37.4052 14.7395L39.4286 8.92787H41.2894L40.6871 15.0763Z" fill="white"/>

</g>
<defs>
<clipPath id="clip0">
<rect width="44" height="44" fill="white"/>
</clipPath>
</defs>
</svg>
