<svg width="30" height="28" viewBox="0 0 30 28" fill="none" xmlns="http://www.w3.org/2000/svg">
<path d="M29.5576 2.50008C28.9675 1.90999 28.0111 1.9102 27.4216 2.50028L13.8665 16.0576L7.62229 9.81314C7.0322 9.22325 6.07577 9.22305 5.48629 9.81293C4.8962 10.4028 4.8962 11.3592 5.48609 11.9489L12.7985 19.2618C13.0819 19.5451 13.466 19.7042 13.8667 19.7042C14.2673 19.7042 14.6516 19.5451 14.9349 19.2618L29.558 4.63608C30.1475 4.04639 30.1475 3.08997 29.5576 2.50008Z" fill="#8BA006"/>
<path d="M26.2961 12.1803C25.462 12.1803 24.7857 12.8564 24.7857 13.6908V24.8823H3.02093V3.11754H20.2543C21.0887 3.11754 21.7648 2.44146 21.7648 1.60708C21.7648 0.772903 21.0887 0.0966187 20.2543 0.0966187H1.51046C0.676284 0.0966187 0 0.772702 0 1.60708V26.3928C0 27.2271 0.676284 27.9032 1.51046 27.9032H26.2961C27.1305 27.9032 27.8066 27.2271 27.8066 26.3928V13.6908C27.8066 12.8566 27.1305 12.1803 26.2961 12.1803Z" fill="#8BA006"/>
</svg>
