<svg width="44" height="44" viewBox="0 0 44 44" fill="none" xmlns="http://www.w3.org/2000/svg">
<path d="M39.2775 4.44794C38.9545 4.20456 38.5359 4.12668 38.1469 4.23813C36.8158 4.6188 35.4328 4.81183 34.0359 4.81183C29.6441 4.81183 26.3261 2.51837 24.3435 1.14774C23.274 0.408539 22.6848 0.00134277 22.003 0C22.0023 0 22.0013 0 22.0007 0C21.3209 0 20.7331 0.406189 19.6656 1.14337C17.6796 2.51535 14.3556 4.81183 9.96539 4.81183C8.56857 4.81183 7.18552 4.6188 5.85449 4.23813C5.46576 4.12668 5.04715 4.20456 4.72388 4.44794C4.40094 4.69165 4.21094 5.07266 4.21094 5.47751V22.1252C4.21094 24.7685 4.60571 27.1462 5.38452 29.1929C6.29459 31.5844 7.73135 33.5344 9.65454 34.988L21.2313 43.7392C21.4612 43.9131 21.7348 44 22.0084 44C22.2823 44 22.5562 43.9131 22.7865 43.7388L34.3532 34.987C36.274 33.5331 37.7094 31.5837 38.6185 29.1929C39.3963 27.1472 39.7904 24.7708 39.7904 22.1296V5.47717C39.7904 5.07266 39.6004 4.69165 39.2775 4.44794ZM37.2123 22.1296C37.2123 27.0804 35.7268 30.7143 32.7972 32.9308L22.0081 41.0946L11.2091 32.9315C8.27618 30.7146 6.78906 27.0787 6.78906 22.1252V7.10159C7.83307 7.29327 8.89587 7.38995 9.96539 7.38995C15.1596 7.38995 19.0439 4.70642 21.1309 3.26462C21.4219 3.06354 21.762 2.82889 22.0013 2.6795C22.242 2.82922 22.5844 3.06589 22.8775 3.26865C24.9612 4.70911 28.8398 7.38995 34.0359 7.38995C35.1051 7.38995 36.1683 7.29327 37.2123 7.10159V22.1296Z" fill="white"/>
<path d="M31.4908 16.4473L29.2205 15.1539V12.8044C29.2205 12.0924 28.6431 11.5153 27.9311 11.5153C27.2195 11.5153 26.6421 12.0924 26.6421 12.8044V13.6852L22.6356 11.4025C22.2337 11.1736 21.7403 11.1776 21.3421 11.4126L12.4939 16.6333C11.8806 16.9952 11.6769 17.7854 12.0387 18.3987C12.2791 18.8062 12.7088 19.0328 13.1502 19.0328C13.3728 19.0328 13.5984 18.9751 13.8038 18.8539L14.7814 18.2772V26.2969C14.7814 27.0089 15.3584 27.5863 16.0704 27.5863H27.9315C28.6431 27.5863 29.2205 27.0089 29.2205 26.2969V18.1211L30.2149 18.6874C30.8335 19.0399 31.6204 18.824 31.9729 18.2053C32.3254 17.5867 32.1095 16.7995 31.4908 16.4473ZM17.3595 25.0078V16.7561L22.0088 14.0129L26.6421 16.6521V25.0078H17.3595Z" fill="white"/>

</svg>
