<svg width="44" height="44" viewBox="0 0 44 44" fill="none" xmlns="http://www.w3.org/2000/svg">
<path d="M35.75 17.3594H35.3203V13.3203C35.3203 5.97534 29.345 0 22 0C14.655 0 8.67969 5.97534 8.67969 13.3203V17.3594H8.25C6.59134 17.3594 5.24219 18.7085 5.24219 20.3672V40.9922C5.24219 42.6508 6.59134 44 8.25 44H35.75C37.4087 44 38.7578 42.6508 38.7578 40.9922V20.3672C38.7578 18.7085 37.4087 17.3594 35.75 17.3594ZM11.2578 13.3203C11.2578 7.397 16.0767 2.57812 22 2.57812C27.9233 2.57812 32.7422 7.397 32.7422 13.3203V17.3594H30.1641V13.3203C30.1641 8.81866 26.5016 5.15625 22 5.15625C17.4984 5.15625 13.8359 8.81866 13.8359 13.3203V17.3594H11.2578V13.3203ZM16.4141 17.3594V13.3203C16.4141 10.2403 18.92 7.73438 22 7.73438C25.08 7.73438 27.5859 10.2403 27.5859 13.3203V17.3594H16.4141ZM36.1797 40.9922C36.1797 41.2292 35.987 41.4219 35.75 41.4219H8.25C8.013 41.4219 7.82031 41.2292 7.82031 40.9922V20.3672C7.82031 20.1302 8.013 19.9375 8.25 19.9375H35.75C35.987 19.9375 36.1797 20.1302 36.1797 20.3672V40.9922Z" fill="white"/>
<path d="M22 26.8125H24.5781C25.2901 26.8125 25.8672 26.2354 25.8672 25.5234C25.8672 24.8114 25.2901 24.2344 24.5781 24.2344H23.2891V23.8047C23.2891 23.0927 22.712 22.5156 22 22.5156C21.288 22.5156 20.7109 23.0927 20.7109 23.8047V24.4559C19.2104 24.9883 18.1328 26.4211 18.1328 28.1016C18.1328 30.2339 19.8677 31.9688 22 31.9688C22.7107 31.9688 23.2891 32.5471 23.2891 33.2578C23.2891 33.9685 22.7107 34.5469 22 34.5469H19.4219C18.7099 34.5469 18.1328 35.1239 18.1328 35.8359C18.1328 36.5479 18.7099 37.125 19.4219 37.125H20.7109V37.5547C20.7109 38.2667 21.288 38.8438 22 38.8438C22.712 38.8438 23.2891 38.2667 23.2891 37.5547V36.9034C24.7896 36.371 25.8672 34.9383 25.8672 33.2578C25.8672 31.1255 24.1323 29.3906 22 29.3906C21.2893 29.3906 20.7109 28.8122 20.7109 28.1016C20.7109 27.3909 21.2893 26.8125 22 26.8125Z" fill="white"/>

</svg>
