<svg width="44" height="44" viewBox="0 0 44 44" fill="none" xmlns="http://www.w3.org/2000/svg">
<g clip-path="url(#clip0)">
<path d="M43.2573 12.7915L42.2285 8.15057C42.1342 7.72544 41.8317 7.37662 41.4241 7.22314L22.4541 0.0826747C22.1614 -0.0274972 21.8386 -0.0274972 21.5459 0.0826747L2.57594 7.22314C2.16834 7.37662 1.86576 7.72544 1.77157 8.15057L0.742726 12.7915C0.654038 13.1915 0.760859 13.6098 1.03036 13.9184L6.17303 19.8063C6.17028 19.8409 6.1677 19.8756 6.1677 19.911V21.4339H4.48393C2.88678 21.4339 1.58741 22.7333 1.58741 24.3305V27.4649C1.58741 29.6552 3.36932 31.4372 5.55978 31.4372H6.1677V32.5488C6.1677 38.863 11.3047 44 17.619 44H26.3982C32.7125 44 37.8495 38.863 37.8495 32.5488V31.4372H38.4573C40.6477 31.4372 42.4297 29.6552 42.4297 27.4649V24.3305C42.4297 22.7333 41.1304 21.4339 39.5333 21.4339H37.8495V19.911C37.8495 19.8694 37.8471 19.8283 37.8432 19.7876L42.9697 13.9184C43.2392 13.6098 43.346 13.1915 43.2573 12.7915ZM23.2132 30.6577H20.7867L21.1007 27.4116C21.4019 27.4199 21.7045 27.4246 22.0086 27.4246C22.3069 27.4246 22.6038 27.4201 22.8993 27.4121L23.2132 30.6577ZM22.0086 24.8466C15.4714 24.8466 10.5924 22.8056 9.17062 20.6056H34.8465C33.4248 22.8055 28.5457 24.8466 22.0086 24.8466ZM4.13751 9.39005L22 2.66647L39.8624 9.39014L40.5992 12.7133L35.9575 18.0275H8.04234L3.40069 12.7133L4.13751 9.39005ZM5.55969 28.8591C4.79098 28.8591 4.16544 28.2337 4.16544 27.4649V24.3305C4.16544 24.155 4.30827 24.0121 4.48384 24.0121H6.1677V28.859H5.55969V28.8591ZM26.3982 41.4219H17.619C12.7263 41.4219 8.74583 37.4414 8.74583 32.5488V23.8465C9.42826 24.3772 10.2389 24.8663 11.1715 25.3036C13.239 26.2733 15.7753 26.9337 18.5275 27.2362L18.0838 31.8227C18.0488 32.1845 18.1682 32.5442 18.4125 32.8133C18.6568 33.0823 19.0034 33.2358 19.3668 33.2358H24.633C24.9964 33.2358 25.3431 33.0823 25.5873 32.8133C25.8316 32.5442 25.951 32.1845 25.9161 31.8227L25.4726 27.2382C28.2313 26.9365 30.7738 26.2754 32.8455 25.3037C33.7781 24.8663 34.5888 24.3773 35.2713 23.8465V32.5488C35.2714 37.4414 31.2908 41.4219 26.3982 41.4219ZM39.5333 24.0122C39.7088 24.0122 39.8516 24.155 39.8516 24.3305V27.4649C39.8516 28.2337 39.2261 28.8592 38.4573 28.8592H37.8495V24.0122H39.5333V24.0122Z" fill="white"/>
<path d="M18.2086 14.8953L21.5128 16.244C21.669 16.3078 21.8345 16.3396 22 16.3396C22.1655 16.3396 22.331 16.3077 22.4872 16.244L25.7914 14.8953C26.2763 14.6974 26.5933 14.2257 26.5933 13.7018V7.28768C26.5933 6.67357 26.1602 6.14479 25.5581 6.02388C25.1232 5.93648 22.9083 5.50078 22 5.50078C21.0917 5.50078 18.8767 5.93657 18.4419 6.02388C17.8399 6.14479 17.4067 6.67365 17.4067 7.28768V13.7019C17.4067 14.2256 17.7237 14.6974 18.2086 14.8953ZM19.9849 8.35639C20.8077 8.21039 21.6685 8.07882 22 8.07882C22.3316 8.07882 23.1923 8.21039 24.0152 8.35639V12.8356L22 13.6581L19.9849 12.8356V8.35639Z" fill="white"/>
<path d="M26.2257 34.8748H17.7744C17.0625 34.8748 16.4854 35.452 16.4854 36.1639C16.4854 36.8758 17.0625 37.453 17.7744 37.453H26.2257C26.9376 37.453 27.5148 36.8758 27.5148 36.1639C27.5148 35.452 26.9376 34.8748 26.2257 34.8748Z" fill="white"/>

</g>
<defs>
<clipPath id="clip0">
<rect width="44" height="44" fill="white"/>
</clipPath>
</defs>
</svg>
