<svg width="44" height="44" viewBox="0 0 44 44" fill="none" xmlns="http://www.w3.org/2000/svg">
<path d="M43.2748 25.7373C43.7185 25.5215 44 25.0715 44 24.5781V19.4219C44 18.9285 43.7185 18.4785 43.2748 18.2627L40.6624 16.992C40.2268 15.3659 39.5794 13.8067 38.7315 12.342L39.6301 9.64648C39.7844 9.18328 39.6639 8.67255 39.3186 8.32734L35.6727 4.68145C35.3274 4.33615 34.8169 4.21575 34.3535 4.37001L31.6581 5.26857C30.1935 4.4208 28.634 3.77326 27.0081 3.33764L25.7373 0.725227C25.5215 0.281531 25.0715 0 24.5781 0H19.4219C18.9285 0 18.4785 0.281531 18.2627 0.725227L16.992 3.33755C15.3661 3.77317 13.8066 4.42071 12.342 5.26848L9.64648 4.37001C9.18328 4.21566 8.67255 4.33623 8.32734 4.68145L4.68145 8.32734C4.33615 8.67255 4.21566 9.18328 4.37001 9.64648L5.26857 12.342C4.42071 13.8066 3.77326 15.3659 3.33764 16.992L0.725227 18.2627C0.281531 18.4785 0 18.9285 0 19.4219V24.5781C0 25.0715 0.281531 25.5215 0.725227 25.7373L3.33755 27.008C3.77317 28.6339 4.42071 30.1934 5.26848 31.658L4.37001 34.3533C4.21558 34.8165 4.33615 35.3272 4.68136 35.6724L8.32734 39.3186C8.67264 39.6638 9.18328 39.7842 9.64648 39.63L12.342 38.7315C13.8066 39.5793 15.3661 40.2268 16.992 40.6624L18.2627 43.2748C18.4785 43.7185 18.9285 44 19.4219 44H24.5781C25.0715 44 25.5215 43.7185 25.7373 43.2748L27.0079 40.6625C29.0153 40.1255 30.9056 39.2713 32.6482 38.1171L38.1488 43.6178C38.6521 44.1212 39.4684 44.1212 39.9718 43.6178L43.6178 39.9718C44.1212 39.4683 44.1212 38.6522 43.6178 38.1488L38.1171 32.6482C39.2713 30.9056 40.1256 29.0153 40.6625 27.0079L43.2748 25.7373ZM39.0602 40.8832C38.2529 40.0759 26.614 28.4371 26.2226 28.0456C25.8362 27.6592 25.2493 27.559 24.7576 27.793C22.293 28.9647 19.3533 28.4683 17.4425 26.5575C15.9986 25.1135 15.3622 23.0822 15.6431 21.1122L17.4425 22.9115C17.6842 23.1533 18.0121 23.2891 18.3539 23.2891H22C22.7119 23.2891 23.2891 22.712 23.2891 22.0001V18.3541C23.2891 18.0122 23.1532 17.6844 22.9115 17.4426L21.1121 15.6433C23.082 15.3624 25.1135 15.9986 26.5574 17.4426C28.4683 19.3535 28.9647 22.2932 27.7929 24.7577C27.5586 25.2503 27.6598 25.8371 28.0455 26.2228C28.3815 26.5587 40.0264 38.2037 40.8831 39.0604L39.0602 40.8832ZM32.4711 27.002L30.4764 25.0074C31.6329 21.754 30.8419 18.0808 28.3805 15.6195C25.7001 12.9391 21.5829 12.2394 18.1353 13.8787C17.3312 14.261 17.1487 15.3257 17.7774 15.9544L20.7109 18.8879V20.7109H18.8879L15.9544 17.7774C15.3262 17.1492 14.2613 17.3307 13.8787 18.1353C12.2395 21.5829 12.939 25.7 15.6195 28.3805C18.0809 30.8419 21.754 31.6329 25.0074 30.4764L27.002 32.4711C22.6341 34.5566 17.2996 33.7067 13.7964 30.2036C9.273 25.6801 9.273 18.32 13.7964 13.7965C18.3198 9.27309 25.6799 9.27309 30.2035 13.7965C33.7068 17.2996 34.5566 22.6341 32.4711 27.002ZM38.3029 25.8185C37.8918 27.5799 37.2026 29.2433 36.2509 30.7819L34.3825 28.9134C35.7751 26.4173 36.3885 23.5229 36.1159 20.6522C35.8053 17.3821 34.3531 14.2999 32.0266 11.9735C26.498 6.4448 17.5021 6.4448 11.9735 11.9735C6.44488 17.5021 6.44488 26.498 11.9735 32.0266C16.4936 36.5468 23.4273 37.4437 28.9138 34.3828L30.782 36.251C29.2433 37.2028 27.58 37.8919 25.8186 38.303C25.4405 38.3913 25.1223 38.6453 24.9525 38.9945L23.7717 41.4219H20.2284L19.0477 38.9944C18.8779 38.6452 18.5597 38.3911 18.1815 38.3029C16.4141 37.8904 14.7304 37.1918 13.1771 36.2264C12.8515 36.0241 12.4529 35.977 12.089 36.0982L9.5871 36.9322L7.06784 34.4128L7.90178 31.911C8.02304 31.5473 7.97612 31.1484 7.77365 30.8229C6.80823 29.2697 6.10955 27.5859 5.69705 25.8185C5.6088 25.4404 5.35477 25.1221 5.0056 24.9523L2.57812 23.7717V20.2284L5.0056 19.0477C5.35477 18.8779 5.60888 18.5597 5.69705 18.1815C6.10955 16.4141 6.80831 14.7304 7.77365 13.1773C7.97603 12.8517 8.02304 12.4529 7.90178 12.0891L7.06776 9.5871L9.58702 7.06784L12.0889 7.90187C12.4527 8.02312 12.8514 7.9762 13.1771 7.77373C14.7302 6.80831 16.414 6.10964 18.1814 5.69714C18.5595 5.60888 18.8778 5.35485 19.0476 5.00569L20.2283 2.57812H23.7716L24.9523 5.0056C25.1221 5.35477 25.4403 5.60888 25.8185 5.69705C27.5859 6.10955 29.2697 6.80823 30.8229 7.77365C31.1485 7.97612 31.5473 8.02295 31.911 7.90178L34.4129 7.06776L36.9322 9.58702L36.0981 12.089C35.9769 12.4528 36.0239 12.8516 36.2263 13.1772C37.1916 14.7303 37.8904 16.414 38.3029 18.1815C38.3911 18.5596 38.6451 18.8778 38.9943 19.0476L41.4219 20.2283V23.7716L38.9944 24.9523C38.6452 25.1222 38.3912 25.4404 38.3029 25.8185Z" fill="white"/>

</svg>
