					<svg display="none" xmlns="http://www.w3.org/2000/svg">

					<symbol id="blinds" viewBox="0 0 44 44">


					<path d="M40.1328 15.4688H38.9297V2.57812H40.3047C41.0167 2.57812 41.5938 2.00107 41.5938 1.28906C41.5938 0.577057 41.0167 0 40.3047 0H1.28906C0.577057 0 0 0.577057 0 1.28906C0 2.00107 0.577057 2.57812 1.28906 2.57812H2.66406V36.2656H1.28906C0.577057 36.2656 0 36.8427 0 37.5547C0 38.2664 0.577057 38.8438 1.28906 38.8438H25.9531V40.1328C25.9531 42.2651 27.688 44 29.8203 44H40.1328C42.2651 44 44 42.2651 44 40.1328V19.3359C44 17.2036 42.2651 15.4688 40.1328 15.4688ZM41.4219 19.3359V36.2656H28.7031C28.6447 36.2656 28.5876 36.271 28.5312 36.2784V19.3359C28.5312 18.6253 29.1096 18.0469 29.8203 18.0469H40.1328C40.8435 18.0469 41.4219 18.6253 41.4219 19.3359ZM5.24219 15.4688V12.8906H36.3516V15.4688H5.24219ZM36.3516 10.3125H5.24219V7.73438H36.3516V10.3125ZM5.24219 18.0469H26.1747C26.0317 18.4504 25.9531 18.8841 25.9531 19.3359V20.625H5.24219V18.0469ZM36.3516 2.57812V5.15625H5.24219V2.57812H36.3516ZM5.24219 36.2656V23.2031H25.9531V36.2656H5.24219ZM40.1328 41.4219H29.8203C29.1096 41.4219 28.5312 40.8435 28.5312 40.1328V38.831C28.5876 38.8387 28.6447 38.8438 28.7031 38.8438H41.4219V40.1328C41.4219 40.8435 40.8435 41.4219 40.1328 41.4219Z"  />
					<path d="M34.9808 20.625C34.635 20.625 34.3041 20.7636 34.0617 21.01L31.4873 23.6268C30.9877 24.1343 30.9945 24.9504 31.502 25.4499C31.7528 25.6967 32.0794 25.8199 32.406 25.8199C32.7394 25.8199 33.0724 25.6913 33.3248 25.4351L34.9805 23.7523L36.6354 25.4348C37.1346 25.9424 37.951 25.9491 38.4583 25.4499C38.9658 24.9507 38.9729 24.1347 38.4734 23.6271L35.8996 21.01C35.6572 20.7636 35.3262 20.625 34.9808 20.625Z"  />
					<path d="M36.6355 28.8777L34.9805 30.5602L33.3248 28.8774C32.8257 28.3698 32.0093 28.3634 31.502 28.8626C30.9945 29.3618 30.9877 30.1782 31.4873 30.6854L34.0617 33.3025C34.3041 33.5489 34.6351 33.6875 34.9808 33.6875C35.3262 33.6875 35.6572 33.5485 35.8996 33.3025L38.4734 30.6854C38.9729 30.1778 38.9658 29.3618 38.4586 28.8626C37.9507 28.3634 37.1346 28.3701 36.6355 28.8777Z"  />


					</symbol>


					<symbol id="security" viewBox="0 0 44 44">

					<path d="M39.2775 4.44794C38.9545 4.20456 38.5359 4.12668 38.1469 4.23813C36.8158 4.6188 35.4328 4.81183 34.0359 4.81183C29.6441 4.81183 26.3261 2.51837 24.3435 1.14774C23.274 0.408539 22.6848 0.00134277 22.003 0C22.0023 0 22.0013 0 22.0007 0C21.3209 0 20.7331 0.406189 19.6656 1.14337C17.6796 2.51535 14.3556 4.81183 9.96539 4.81183C8.56857 4.81183 7.18552 4.6188 5.85449 4.23813C5.46576 4.12668 5.04715 4.20456 4.72388 4.44794C4.40094 4.69165 4.21094 5.07266 4.21094 5.47751V22.1252C4.21094 24.7685 4.60571 27.1462 5.38452 29.1929C6.29459 31.5844 7.73135 33.5344 9.65454 34.988L21.2313 43.7392C21.4612 43.9131 21.7348 44 22.0084 44C22.2823 44 22.5562 43.9131 22.7865 43.7388L34.3532 34.987C36.274 33.5331 37.7094 31.5837 38.6185 29.1929C39.3963 27.1472 39.7904 24.7708 39.7904 22.1296V5.47717C39.7904 5.07266 39.6004 4.69165 39.2775 4.44794ZM37.2123 22.1296C37.2123 27.0804 35.7268 30.7143 32.7972 32.9308L22.0081 41.0946L11.2091 32.9315C8.27618 30.7146 6.78906 27.0787 6.78906 22.1252V7.10159C7.83307 7.29327 8.89587 7.38995 9.96539 7.38995C15.1596 7.38995 19.0439 4.70642 21.1309 3.26462C21.4219 3.06354 21.762 2.82889 22.0013 2.6795C22.242 2.82922 22.5844 3.06589 22.8775 3.26865C24.9612 4.70911 28.8398 7.38995 34.0359 7.38995C35.1051 7.38995 36.1683 7.29327 37.2123 7.10159V22.1296Z"  />
					<path d="M31.4908 16.4473L29.2205 15.1539V12.8044C29.2205 12.0924 28.6431 11.5153 27.9311 11.5153C27.2195 11.5153 26.6421 12.0924 26.6421 12.8044V13.6852L22.6356 11.4025C22.2337 11.1736 21.7403 11.1776 21.3421 11.4126L12.4939 16.6333C11.8806 16.9952 11.6769 17.7854 12.0387 18.3987C12.2791 18.8062 12.7088 19.0328 13.1502 19.0328C13.3728 19.0328 13.5984 18.9751 13.8038 18.8539L14.7814 18.2772V26.2969C14.7814 27.0089 15.3584 27.5863 16.0704 27.5863H27.9315C28.6431 27.5863 29.2205 27.0089 29.2205 26.2969V18.1211L30.2149 18.6874C30.8335 19.0399 31.6204 18.824 31.9729 18.2053C32.3254 17.5867 32.1095 16.7995 31.4908 16.4473ZM17.3595 25.0078V16.7561L22.0088 14.0129L26.6421 16.6521V25.0078H17.3595Z"  />


					</symbol>


					<symbol id="policeman" viewBox="0 0 44 44">

					<path d="M43.2573 12.7915L42.2285 8.15057C42.1342 7.72544 41.8317 7.37662 41.4241 7.22314L22.4541 0.0826747C22.1614 -0.0274972 21.8386 -0.0274972 21.5459 0.0826747L2.57594 7.22314C2.16834 7.37662 1.86576 7.72544 1.77157 8.15057L0.742726 12.7915C0.654038 13.1915 0.760859 13.6098 1.03036 13.9184L6.17303 19.8063C6.17028 19.8409 6.1677 19.8756 6.1677 19.911V21.4339H4.48393C2.88678 21.4339 1.58741 22.7333 1.58741 24.3305V27.4649C1.58741 29.6552 3.36932 31.4372 5.55978 31.4372H6.1677V32.5488C6.1677 38.863 11.3047 44 17.619 44H26.3982C32.7125 44 37.8495 38.863 37.8495 32.5488V31.4372H38.4573C40.6477 31.4372 42.4297 29.6552 42.4297 27.4649V24.3305C42.4297 22.7333 41.1304 21.4339 39.5333 21.4339H37.8495V19.911C37.8495 19.8694 37.8471 19.8283 37.8432 19.7876L42.9697 13.9184C43.2392 13.6098 43.346 13.1915 43.2573 12.7915ZM23.2132 30.6577H20.7867L21.1007 27.4116C21.4019 27.4199 21.7045 27.4246 22.0086 27.4246C22.3069 27.4246 22.6038 27.4201 22.8993 27.4121L23.2132 30.6577ZM22.0086 24.8466C15.4714 24.8466 10.5924 22.8056 9.17062 20.6056H34.8465C33.4248 22.8055 28.5457 24.8466 22.0086 24.8466ZM4.13751 9.39005L22 2.66647L39.8624 9.39014L40.5992 12.7133L35.9575 18.0275H8.04234L3.40069 12.7133L4.13751 9.39005ZM5.55969 28.8591C4.79098 28.8591 4.16544 28.2337 4.16544 27.4649V24.3305C4.16544 24.155 4.30827 24.0121 4.48384 24.0121H6.1677V28.859H5.55969V28.8591ZM26.3982 41.4219H17.619C12.7263 41.4219 8.74583 37.4414 8.74583 32.5488V23.8465C9.42826 24.3772 10.2389 24.8663 11.1715 25.3036C13.239 26.2733 15.7753 26.9337 18.5275 27.2362L18.0838 31.8227C18.0488 32.1845 18.1682 32.5442 18.4125 32.8133C18.6568 33.0823 19.0034 33.2358 19.3668 33.2358H24.633C24.9964 33.2358 25.3431 33.0823 25.5873 32.8133C25.8316 32.5442 25.951 32.1845 25.9161 31.8227L25.4726 27.2382C28.2313 26.9365 30.7738 26.2754 32.8455 25.3037C33.7781 24.8663 34.5888 24.3773 35.2713 23.8465V32.5488C35.2714 37.4414 31.2908 41.4219 26.3982 41.4219ZM39.5333 24.0122C39.7088 24.0122 39.8516 24.155 39.8516 24.3305V27.4649C39.8516 28.2337 39.2261 28.8592 38.4573 28.8592H37.8495V24.0122H39.5333V24.0122Z"  />
					<path d="M18.2086 14.8953L21.5128 16.244C21.669 16.3078 21.8345 16.3396 22 16.3396C22.1655 16.3396 22.331 16.3077 22.4872 16.244L25.7914 14.8953C26.2763 14.6974 26.5933 14.2257 26.5933 13.7018V7.28768C26.5933 6.67357 26.1602 6.14479 25.5581 6.02388C25.1232 5.93648 22.9083 5.50078 22 5.50078C21.0917 5.50078 18.8767 5.93657 18.4419 6.02388C17.8399 6.14479 17.4067 6.67365 17.4067 7.28768V13.7019C17.4067 14.2256 17.7237 14.6974 18.2086 14.8953ZM19.9849 8.35639C20.8077 8.21039 21.6685 8.07882 22 8.07882C22.3316 8.07882 23.1923 8.21039 24.0152 8.35639V12.8356L22 13.6581L19.9849 12.8356V8.35639Z"  />
					<path d="M26.2257 34.8748H17.7744C17.0625 34.8748 16.4854 35.452 16.4854 36.1639C16.4854 36.8758 17.0625 37.453 17.7744 37.453H26.2257C26.9376 37.453 27.5148 36.8758 27.5148 36.1639C27.5148 35.452 26.9376 34.8748 26.2257 34.8748Z"  />


					</symbol>


					<symbol id="cctv" viewBox="0 0 44 44">

					<path d="M43.6659 6.77281C43.4216 6.50331 43.0747 6.34966 42.7109 6.34966H40.3262L40.4858 5.89109C40.6231 5.4969 40.561 5.06068 40.3192 4.72045C40.0775 4.38023 39.6859 4.1781 39.2685 4.1781H3.58523C3.2218 4.1781 2.87521 4.3315 2.63089 4.60066C2.38657 4.86973 2.2672 5.22937 2.30209 5.59117L3.49319 17.918C3.55704 18.5787 4.11237 19.083 4.77632 19.083H9.49601V21.7712C9.49601 22.4831 10.0732 23.0603 10.7851 23.0603H13.2974V26.6659H6.99652V23.3478C6.99652 22.6359 6.41936 22.0587 5.70745 22.0587H1.28906C0.577156 22.0587 0 22.6359 0 23.3478V38.5328C0 39.2447 0.577156 39.8219 1.28906 39.8219H5.70745C6.41936 39.8219 6.99652 39.2447 6.99652 38.5328V35.2146H18.3919C20.2966 35.2146 21.8462 33.6651 21.8462 31.7604V23.0603H24.3585C25.0704 23.0603 25.6475 22.4831 25.6475 21.7712V19.083H31.2936C32.8092 19.083 34.2347 18.5524 35.361 17.642C35.4166 17.6493 35.4729 17.6544 35.5306 17.6544H41.856C42.5193 17.6544 43.0743 17.1511 43.139 16.491L43.9939 7.76436C44.0293 7.40239 43.9102 7.04223 43.6659 6.77281ZM23.0693 20.4822H12.0742V19.083H23.0694V20.4822H23.0693ZM5.94687 16.5049L5.60046 12.9197H26.0784C27.4368 12.9197 28.6546 12.01 29.0399 10.7075L30.2091 6.75631H37.4547L34.9704 13.8917C34.4261 15.4547 32.9486 16.5048 31.2936 16.5048H5.94687V16.5049ZM5.00483 6.75631H27.5205L26.5677 9.97596C26.504 10.1912 26.3028 10.3415 26.0783 10.3415H5.35124L5.00483 6.75631ZM4.41839 37.2437H2.57812V24.6367H4.41839V37.2437ZM19.268 31.7604C19.268 32.2435 18.875 32.6365 18.3918 32.6365H6.99652V29.244H14.5864C15.2983 29.244 15.8755 28.6669 15.8755 27.955V23.0603H19.268V31.7604ZM40.6871 15.0763H37.276C37.3216 14.9655 37.3655 14.8536 37.4052 14.7395L39.4286 8.92787H41.2894L40.6871 15.0763Z"  />


					</symbol>


					<symbol id="lock" viewBox="0 0 44 44">
					<path d="M35.75 17.3594H35.3203V13.3203C35.3203 5.97534 29.345 0 22 0C14.655 0 8.67969 5.97534 8.67969 13.3203V17.3594H8.25C6.59134 17.3594 5.24219 18.7085 5.24219 20.3672V40.9922C5.24219 42.6508 6.59134 44 8.25 44H35.75C37.4087 44 38.7578 42.6508 38.7578 40.9922V20.3672C38.7578 18.7085 37.4087 17.3594 35.75 17.3594ZM11.2578 13.3203C11.2578 7.397 16.0767 2.57812 22 2.57812C27.9233 2.57812 32.7422 7.397 32.7422 13.3203V17.3594H30.1641V13.3203C30.1641 8.81866 26.5016 5.15625 22 5.15625C17.4984 5.15625 13.8359 8.81866 13.8359 13.3203V17.3594H11.2578V13.3203ZM16.4141 17.3594V13.3203C16.4141 10.2403 18.92 7.73438 22 7.73438C25.08 7.73438 27.5859 10.2403 27.5859 13.3203V17.3594H16.4141ZM36.1797 40.9922C36.1797 41.2292 35.987 41.4219 35.75 41.4219H8.25C8.013 41.4219 7.82031 41.2292 7.82031 40.9922V20.3672C7.82031 20.1302 8.013 19.9375 8.25 19.9375H35.75C35.987 19.9375 36.1797 20.1302 36.1797 20.3672V40.9922Z"  />
					<path d="M22 26.8125H24.5781C25.2901 26.8125 25.8672 26.2354 25.8672 25.5234C25.8672 24.8114 25.2901 24.2344 24.5781 24.2344H23.2891V23.8047C23.2891 23.0927 22.712 22.5156 22 22.5156C21.288 22.5156 20.7109 23.0927 20.7109 23.8047V24.4559C19.2104 24.9883 18.1328 26.4211 18.1328 28.1016C18.1328 30.2339 19.8677 31.9688 22 31.9688C22.7107 31.9688 23.2891 32.5471 23.2891 33.2578C23.2891 33.9685 22.7107 34.5469 22 34.5469H19.4219C18.7099 34.5469 18.1328 35.1239 18.1328 35.8359C18.1328 36.5479 18.7099 37.125 19.4219 37.125H20.7109V37.5547C20.7109 38.2667 21.288 38.8438 22 38.8438C22.712 38.8438 23.2891 38.2667 23.2891 37.5547V36.9034C24.7896 36.371 25.8672 34.9383 25.8672 33.2578C25.8672 31.1255 24.1323 29.3906 22 29.3906C21.2893 29.3906 20.7109 28.8122 20.7109 28.1016C20.7109 27.3909 21.2893 26.8125 22 26.8125Z"  />

					</symbol>


					<symbol id="settings" viewBox="0 0 44 44">
					<path d="M43.2748 25.7373C43.7185 25.5215 44 25.0715 44 24.5781V19.4219C44 18.9285 43.7185 18.4785 43.2748 18.2627L40.6624 16.992C40.2268 15.3659 39.5794 13.8067 38.7315 12.342L39.6301 9.64648C39.7844 9.18328 39.6639 8.67255 39.3186 8.32734L35.6727 4.68145C35.3274 4.33615 34.8169 4.21575 34.3535 4.37001L31.6581 5.26857C30.1935 4.4208 28.634 3.77326 27.0081 3.33764L25.7373 0.725227C25.5215 0.281531 25.0715 0 24.5781 0H19.4219C18.9285 0 18.4785 0.281531 18.2627 0.725227L16.992 3.33755C15.3661 3.77317 13.8066 4.42071 12.342 5.26848L9.64648 4.37001C9.18328 4.21566 8.67255 4.33623 8.32734 4.68145L4.68145 8.32734C4.33615 8.67255 4.21566 9.18328 4.37001 9.64648L5.26857 12.342C4.42071 13.8066 3.77326 15.3659 3.33764 16.992L0.725227 18.2627C0.281531 18.4785 0 18.9285 0 19.4219V24.5781C0 25.0715 0.281531 25.5215 0.725227 25.7373L3.33755 27.008C3.77317 28.6339 4.42071 30.1934 5.26848 31.658L4.37001 34.3533C4.21558 34.8165 4.33615 35.3272 4.68136 35.6724L8.32734 39.3186C8.67264 39.6638 9.18328 39.7842 9.64648 39.63L12.342 38.7315C13.8066 39.5793 15.3661 40.2268 16.992 40.6624L18.2627 43.2748C18.4785 43.7185 18.9285 44 19.4219 44H24.5781C25.0715 44 25.5215 43.7185 25.7373 43.2748L27.0079 40.6625C29.0153 40.1255 30.9056 39.2713 32.6482 38.1171L38.1488 43.6178C38.6521 44.1212 39.4684 44.1212 39.9718 43.6178L43.6178 39.9718C44.1212 39.4683 44.1212 38.6522 43.6178 38.1488L38.1171 32.6482C39.2713 30.9056 40.1256 29.0153 40.6625 27.0079L43.2748 25.7373ZM39.0602 40.8832C38.2529 40.0759 26.614 28.4371 26.2226 28.0456C25.8362 27.6592 25.2493 27.559 24.7576 27.793C22.293 28.9647 19.3533 28.4683 17.4425 26.5575C15.9986 25.1135 15.3622 23.0822 15.6431 21.1122L17.4425 22.9115C17.6842 23.1533 18.0121 23.2891 18.3539 23.2891H22C22.7119 23.2891 23.2891 22.712 23.2891 22.0001V18.3541C23.2891 18.0122 23.1532 17.6844 22.9115 17.4426L21.1121 15.6433C23.082 15.3624 25.1135 15.9986 26.5574 17.4426C28.4683 19.3535 28.9647 22.2932 27.7929 24.7577C27.5586 25.2503 27.6598 25.8371 28.0455 26.2228C28.3815 26.5587 40.0264 38.2037 40.8831 39.0604L39.0602 40.8832ZM32.4711 27.002L30.4764 25.0074C31.6329 21.754 30.8419 18.0808 28.3805 15.6195C25.7001 12.9391 21.5829 12.2394 18.1353 13.8787C17.3312 14.261 17.1487 15.3257 17.7774 15.9544L20.7109 18.8879V20.7109H18.8879L15.9544 17.7774C15.3262 17.1492 14.2613 17.3307 13.8787 18.1353C12.2395 21.5829 12.939 25.7 15.6195 28.3805C18.0809 30.8419 21.754 31.6329 25.0074 30.4764L27.002 32.4711C22.6341 34.5566 17.2996 33.7067 13.7964 30.2036C9.273 25.6801 9.273 18.32 13.7964 13.7965C18.3198 9.27309 25.6799 9.27309 30.2035 13.7965C33.7068 17.2996 34.5566 22.6341 32.4711 27.002ZM38.3029 25.8185C37.8918 27.5799 37.2026 29.2433 36.2509 30.7819L34.3825 28.9134C35.7751 26.4173 36.3885 23.5229 36.1159 20.6522C35.8053 17.3821 34.3531 14.2999 32.0266 11.9735C26.498 6.4448 17.5021 6.4448 11.9735 11.9735C6.44488 17.5021 6.44488 26.498 11.9735 32.0266C16.4936 36.5468 23.4273 37.4437 28.9138 34.3828L30.782 36.251C29.2433 37.2028 27.58 37.8919 25.8186 38.303C25.4405 38.3913 25.1223 38.6453 24.9525 38.9945L23.7717 41.4219H20.2284L19.0477 38.9944C18.8779 38.6452 18.5597 38.3911 18.1815 38.3029C16.4141 37.8904 14.7304 37.1918 13.1771 36.2264C12.8515 36.0241 12.4529 35.977 12.089 36.0982L9.5871 36.9322L7.06784 34.4128L7.90178 31.911C8.02304 31.5473 7.97612 31.1484 7.77365 30.8229C6.80823 29.2697 6.10955 27.5859 5.69705 25.8185C5.6088 25.4404 5.35477 25.1221 5.0056 24.9523L2.57812 23.7717V20.2284L5.0056 19.0477C5.35477 18.8779 5.60888 18.5597 5.69705 18.1815C6.10955 16.4141 6.80831 14.7304 7.77365 13.1773C7.97603 12.8517 8.02304 12.4529 7.90178 12.0891L7.06776 9.5871L9.58702 7.06784L12.0889 7.90187C12.4527 8.02312 12.8514 7.9762 13.1771 7.77373C14.7302 6.80831 16.414 6.10964 18.1814 5.69714C18.5595 5.60888 18.8778 5.35485 19.0476 5.00569L20.2283 2.57812H23.7716L24.9523 5.0056C25.1221 5.35477 25.4403 5.60888 25.8185 5.69705C27.5859 6.10955 29.2697 6.80823 30.8229 7.77365C31.1485 7.97612 31.5473 8.02295 31.911 7.90178L34.4129 7.06776L36.9322 9.58702L36.0981 12.089C35.9769 12.4528 36.0239 12.8516 36.2263 13.1772C37.1916 14.7303 37.8904 16.414 38.3029 18.1815C38.3911 18.5596 38.6451 18.8778 38.9943 19.0476L41.4219 20.2283V23.7716L38.9944 24.9523C38.6452 25.1222 38.3912 25.4404 38.3029 25.8185Z"  />

					</symbol>


					<symbol id="arrow" viewBox="0 0 44 44">
					<path d="M33.537 10.8821L23.4191 0.764271C22.8018 0.146956 21.8007 0.146956 21.1833 0.764271C20.5659 1.38171 20.5659 2.38262 21.1833 3.00006L28.6024 10.4191H1.58091C0.70787 10.4191 0 11.127 0 12C0 12.8729 0.70787 13.5809 1.58091 13.5809H28.6024L21.1836 21C20.5662 21.6174 20.5662 22.6183 21.1836 23.2357C21.4922 23.5442 21.8969 23.6988 22.3015 23.6988C22.7061 23.6988 23.1107 23.5442 23.4194 23.2357L33.537 13.1179C34.1544 12.5005 34.1544 11.4996 33.537 10.8821Z"/>

					</symbol>

					</svg>
