<svg width="24" height="24" viewBox="0 0 24 24" fill="none" xmlns="http://www.w3.org/2000/svg">
<path d="M12.277 23.0947C16.32 23.0947 19.5975 22.4853 19.5975 21.7336C19.5975 20.9819 16.32 20.3726 12.277 20.3726C8.23404 20.3726 4.95654 20.9819 4.95654 21.7336C4.95654 22.4853 8.23404 23.0947 12.277 23.0947Z" fill="white"/>
<path d="M8.12642 8.61397L0.776367 0.0136719L3.86274 20.6106L8.12642 8.61397Z" fill="white"/>
<path d="M16.5078 8.61397L20.7711 20.5926L23.8579 0.0136719L16.5078 8.61397Z" fill="white"/>
<path d="M12.2774 19.2315C15.9611 19.2315 19.0087 19.7373 19.5215 20.3956L12.2774 0.0136719L5.03223 20.3974C5.54152 19.7383 8.59093 19.2319 12.2774 19.2319V19.2315Z" fill="white"/>
</svg>
