<svg xmlns="http://www.w3.org/2000/svg" xmlns:xlink="http://www.w3.org/1999/xlink" width="132" height="123" viewBox="0 0 132 123"><defs><path id="odrva" d="M465.77 173.98c-16.39 0-31.34-6.55-42.98-19.28l12.79-9.33c10.66 12.73 24.8 18.5 38.53 18.47 28.3-.07 50.46-22.97 50.85-51.32-15.5 13.41-25.66 4.43-29.61-.58l-31.7 23.13V98.03L477.37 88v31.31l29.5-21.54c3.8 6.6 9.77 14.38 18.08 14.75.44-31.93-15.77-63.52-52.3-45.26 10.11-11.15 20.74-15.97 30.43-15.97 20.55.02 36.9 21.74 35.48 51.02-1.95 39.82-32.37 71.69-72.8 71.67zM441.85 93.3l13.75-10.03v41.77l-35.83 26.14c-8.08-10.12-12.63-21.5-12.68-34.57-.1-26.55 20.02-58.42 44.33-58.03 10.52.16 18.8 14.66 31.21 14.62 4.78-.02 10.17-2.19 16.55-8.21-5.01 11.82-14.1 19.37-27.44 19.44-14.02.08-26.49-14.8-32.5-14.82-3.56 0-11.66 11.9-13.22 14.8-9.4 17.39-5.73 37.1 4.18 53.43l11.65-8.5z"/></defs><g><g transform="translate(-407 -51)"><use fill="#d6b46d" xlink:href="#odrva"/></g></g></svg>