<svg xmlns="http://www.w3.org/2000/svg" xmlns:xlink="http://www.w3.org/1999/xlink" width="21" height="20" viewBox="0 0 21 20"><defs><path id="zlq6a" d="M1529.41 256.16c.42.42.4 1.09-.03 1.5-.2.18-.47.29-.75.29-.3 0-.57-.12-.78-.33l-4.93-5a8.36 8.36 0 0 1-4.76 1.47 8.21 8.21 0 0 1-8.31-8.09 8.2 8.2 0 0 1 8.3-8.09 8.21 8.21 0 0 1 8.32 8.1c0 1.9-.7 3.74-1.95 5.2zm-11.25-16.13a6.07 6.07 0 0 0-6.14 5.97c0 3.3 2.75 5.98 6.14 5.98a6.07 6.07 0 0 0 6.14-5.98c0-3.3-2.76-5.97-6.14-5.97z"/></defs><g><g transform="translate(-1509 -238)"><use fill="#fff" xlink:href="#zlq6a"/></g></g></svg>