<svg width="28" height="28" viewBox="0 0 28 28" fill="none" xmlns="http://www.w3.org/2000/svg">
<g clip-path="url(#clip0)">
<path d="M28 5.63088C26.2387 5.71206 26.2771 5.70544 26.078 5.7221L27.1211 2.74313C27.1211 2.74313 23.8651 3.94091 23.0397 4.15518C20.8718 2.20672 17.6495 2.12063 15.3458 3.53652C13.4593 4.69628 12.4467 6.68789 12.7845 9.01574C9.11294 8.50625 6.01947 6.76586 3.57712 3.83197L2.80466 2.9042L2.22745 3.9642C1.49792 5.30361 1.25568 6.83508 1.54514 8.27639C1.66391 8.8677 1.86578 9.43167 2.14542 9.95974L1.48276 9.70297L1.40414 10.8102C1.32446 11.9349 1.69894 13.2478 2.40604 14.3219C2.60513 14.6244 2.86148 14.9566 3.1864 15.2843L2.84396 15.2317L3.26181 16.5005C3.81103 18.1674 4.95178 19.457 6.43219 20.1739C4.9537 20.8013 3.75934 21.2017 1.79614 21.8474L0 22.4379L1.659 23.3449C2.29153 23.6908 4.52667 24.8458 6.73511 25.1923C11.6442 25.9622 17.1712 25.3353 20.8921 21.9842C24.0262 19.1616 25.0546 15.1465 24.8409 10.9683C24.8087 10.3357 24.9819 9.73202 25.3289 9.26867C26.0238 8.34091 27.9957 5.63708 28 5.63088ZM24.017 8.28601C23.4409 9.05526 23.1522 10.0377 23.2039 11.052C23.4195 15.2666 22.2728 18.535 19.7954 20.7661C16.9014 23.3725 12.2335 24.3955 6.9891 23.5729C6.03934 23.424 5.05774 23.0905 4.24533 22.7575C5.89129 22.1912 7.16235 21.6864 9.21506 20.7148L12.0806 19.3585L8.91684 19.156C7.4014 19.059 6.13952 18.3246 5.36386 17.1321C5.77573 17.1082 6.17285 17.0416 6.56827 16.9313L9.58569 16.0909L6.54306 15.3458C5.06457 14.9837 4.22183 14.0991 3.77515 13.4206C3.48184 12.9748 3.29022 12.5181 3.17529 12.097C3.48035 12.1789 3.83603 12.2372 4.40961 12.294L7.2258 12.5726L4.99451 10.832C3.38678 9.578 2.74249 7.69406 3.21481 5.88296C8.23239 11.0872 14.1237 10.6961 14.7167 10.8337C14.5862 9.56582 14.5828 9.56283 14.5486 9.44213C13.7892 6.75753 15.4535 5.3944 16.2042 4.93298C17.7722 3.96932 20.2611 3.82406 21.985 5.41171C22.3574 5.75436 22.8609 5.88915 23.3321 5.77209C23.7551 5.66699 24.1022 5.55569 24.4421 5.43457L23.7346 7.45501L24.6378 7.45565C24.4673 7.68423 24.2629 7.95788 24.017 8.28601Z" fill="url(#paint0_linear)"/>
</g>
<defs>
<linearGradient id="paint0_linear" x1="14" y1="2.57033" x2="29.75" y2="2.57033" gradientUnits="userSpaceOnUse">
<stop stop-color="#0060B8"/>
<stop offset="1" stop-color="#3823CF"/>
</linearGradient>
<clipPath id="clip0">
<rect width="28" height="28" fill="white"/>
</clipPath>
</defs>
</svg>
