<svg width="178" height="126" viewBox="0 0 178 126" fill="none" xmlns="http://www.w3.org/2000/svg">
<g filter="url(#filter0_d)">
<path d="M79.1016 50.6641H98.8984C101.16 50.6641 103 48.8241 103 46.5625V33.4375C103 31.1759 101.16 29.3359 98.8984 29.3359H79.1016C76.8399 29.3359 75 31.1759 75 33.4375V46.5625C75 48.8241 76.8399 50.6641 79.1016 50.6641ZM76.6406 33.4375C76.6406 32.0806 77.7446 30.9766 79.1016 30.9766H98.8984C100.255 30.9766 101.359 32.0806 101.359 33.4375V46.5625C101.359 47.9194 100.255 49.0234 98.8984 49.0234H79.1016C77.7446 49.0234 76.6406 47.9194 76.6406 46.5625V33.4375Z" fill="#C4C4C4"/>
<path d="M84.8984 34.5043V45.655L94.7695 39.9883L84.8984 34.5043ZM86.5391 37.2926L91.4336 40.0118L86.5391 42.8215V37.2926Z" fill="#C4C4C4"/>
</g>
<defs>
<filter id="filter0_d" x="0" y="-49" width="178" height="178" filterUnits="userSpaceOnUse" color-interpolation-filters="sRGB">
<feFlood flood-opacity="0" result="BackgroundImageFix"/>
<feColorMatrix in="SourceAlpha" type="matrix" values="0 0 0 0 0 0 0 0 0 0 0 0 0 0 0 0 0 0 127 0"/>
<feOffset/>
<feGaussianBlur stdDeviation="37.5"/>
<feColorMatrix type="matrix" values="0 0 0 0 0.0541485 0 0 0 0 0 0 0 0 0 0.676856 0 0 0 0.25 0"/>
<feBlend mode="normal" in2="BackgroundImageFix" result="effect1_dropShadow"/>
<feBlend mode="normal" in="SourceGraphic" in2="effect1_dropShadow" result="shape"/>
</filter>
</defs>
</svg>
