<svg width="28" height="28" viewBox="0 0 28 28" fill="none" xmlns="http://www.w3.org/2000/svg">
<path d="M4.10156 28H23.8984C26.1601 28 28 26.1601 28 23.8984V4.10156C28 1.83994 26.1601 0 23.8984 0H4.10156C1.83994 0 0 1.83994 0 4.10156V23.8984C0 26.1601 1.83994 28 4.10156 28ZM1.64062 4.10156C1.64062 2.74463 2.74463 1.64062 4.10156 1.64062H23.8984C25.2554 1.64062 26.3594 2.74463 26.3594 4.10156V23.8984C26.3594 25.2554 25.2554 26.3594 23.8984 26.3594H4.10156C2.74463 26.3594 1.64062 25.2554 1.64062 23.8984V4.10156Z" fill="url(#paint0_linear)"/>
<path d="M14 21.3828C18.0708 21.3828 21.3828 18.0708 21.3828 14C21.3828 9.9292 18.0708 6.61719 14 6.61719C9.9292 6.61719 6.61719 9.9292 6.61719 14C6.61719 18.0708 9.9292 21.3828 14 21.3828ZM14 8.25781C17.1663 8.25781 19.7422 10.8337 19.7422 14C19.7422 17.1663 17.1663 19.7422 14 19.7422C10.8337 19.7422 8.25781 17.1663 8.25781 14C8.25781 10.8337 10.8337 8.25781 14 8.25781Z" fill="url(#paint1_linear)"/>
<path d="M22.2031 8.25781C23.5601 8.25781 24.6641 7.15381 24.6641 5.79688C24.6641 4.43994 23.5601 3.33594 22.2031 3.33594C20.8462 3.33594 19.7422 4.43994 19.7422 5.79688C19.7422 7.15381 20.8462 8.25781 22.2031 8.25781ZM22.2031 4.97656C22.6554 4.97656 23.0234 5.34464 23.0234 5.79688C23.0234 6.24911 22.6554 6.61719 22.2031 6.61719C21.7509 6.61719 21.3828 6.24911 21.3828 5.79688C21.3828 5.34464 21.7509 4.97656 22.2031 4.97656Z" fill="url(#paint2_linear)"/>
<defs>
<linearGradient id="paint0_linear" x1="14" y1="0" x2="29.75" y2="0" gradientUnits="userSpaceOnUse">
<stop stop-color="#0060B8"/>
<stop offset="1" stop-color="#3823CF"/>
</linearGradient>
<linearGradient id="paint1_linear" x1="14" y1="6.61719" x2="22.3057" y2="6.61719" gradientUnits="userSpaceOnUse">
<stop stop-color="#0060B8"/>
<stop offset="1" stop-color="#3823CF"/>
</linearGradient>
<linearGradient id="paint2_linear" x1="22.2031" y1="3.33594" x2="24.9717" y2="3.33594" gradientUnits="userSpaceOnUse">
<stop stop-color="#0060B8"/>
<stop offset="1" stop-color="#3823CF"/>
</linearGradient>
</defs>
</svg>
