<svg width="28" height="28" viewBox="0 0 28 28" fill="none" xmlns="http://www.w3.org/2000/svg">
<g clip-path="url(#clip0)">
<path d="M6.77206 26.002C8.93542 27.3038 11.409 27.99 13.9504 27.99C21.6518 27.99 28 21.7056 28 13.9949C28 6.29312 21.6607 0 13.9504 0C6.26364 0 0.0100403 6.27817 0.0100403 13.9949C0.0100403 16.5703 0.696411 19.0627 1.99802 21.2277L0 28L6.77206 26.002ZM1.65024 13.9949C1.65024 7.18243 7.16812 1.63998 13.9504 1.63998C20.793 1.63998 26.36 7.18243 26.36 13.9949C26.36 20.8075 20.793 26.3498 13.9504 26.3498C11.5959 26.3498 9.30777 25.6828 7.33411 24.4207L7.0188 24.2193L2.42569 25.5745L3.7807 20.9812L3.57925 20.6661C2.31717 18.692 1.65024 16.3853 1.65024 13.9949V13.9949Z" fill="url(#paint0_linear)"/>
<path d="M6.81551 11.4162C7.08638 12.8387 7.89046 15.5748 10.2316 17.9159C12.5726 20.257 15.3087 21.0613 16.7315 21.3322C18.3606 21.6424 20.7512 21.6891 21.9195 20.5208L22.5708 19.8695C22.8996 19.5407 23.0808 19.1035 23.0808 18.6384C23.0808 18.1733 22.8996 17.7363 22.5708 17.4075L19.9661 14.8028C19.6372 14.4738 19.2001 14.2929 18.735 14.2929C18.27 14.2929 17.8329 14.4738 17.5039 14.8028L16.8528 15.4539C16.455 15.8517 15.7041 15.8534 15.3034 15.4588L12.7053 12.7518C12.7015 12.7477 12.6976 12.7437 12.6936 12.7398C12.2952 12.3414 12.2952 11.6931 12.6936 11.2947L13.3447 10.6436C14.0253 9.96295 14.0253 8.86173 13.3447 8.18134L10.74 5.57663C10.0613 4.89795 8.95686 4.89795 8.27797 5.57663L7.62685 6.22797V6.22775C6.69438 7.16043 6.38356 9.14841 6.81551 11.4162V11.4162ZM8.78661 7.38773C9.4702 6.71973 9.43367 6.70691 9.50908 6.70691C9.53493 6.70691 9.56078 6.71674 9.58043 6.73639C12.3251 9.49576 12.2148 9.33362 12.2148 9.41266C12.2148 9.44022 12.2048 9.46436 12.1853 9.48401L11.534 10.1351C10.4969 11.1723 10.4928 12.8511 11.5274 13.893L14.127 16.6017C14.131 16.6056 14.1349 16.6096 14.1389 16.6137C15.1759 17.6506 16.9722 17.654 18.0126 16.6137L18.6637 15.9626C18.703 15.9232 18.7671 15.9232 18.8064 15.9626C21.551 18.7217 21.4408 18.5596 21.4408 18.6386C21.4408 18.6664 21.4307 18.6903 21.4113 18.71L20.76 19.3611C20.3137 19.8073 18.8923 20.0744 17.0382 19.7213C15.8009 19.4854 13.4218 18.7869 11.3913 16.7564C9.36082 14.7259 8.66228 12.3468 8.42665 11.1095C8.07332 9.25543 8.34035 7.83377 8.78661 7.38773V7.38773Z" fill="url(#paint1_linear)"/>
</g>
<defs>
<linearGradient id="paint0_linear" x1="14" y1="0" x2="29.75" y2="0" gradientUnits="userSpaceOnUse">
<stop stop-color="#0060B8"/>
<stop offset="1" stop-color="#3823CF"/>
</linearGradient>
<linearGradient id="paint1_linear" x1="14.8524" y1="5.06762" x2="24.1093" y2="5.06762" gradientUnits="userSpaceOnUse">
<stop stop-color="#0060B8"/>
<stop offset="1" stop-color="#3823CF"/>
</linearGradient>
<clipPath id="clip0">
<rect width="28" height="28" fill="white"/>
</clipPath>
</defs>
</svg>
