<svg width="24" height="24" viewBox="0 0 24 24" fill="none" xmlns="http://www.w3.org/2000/svg">
<g clip-path="url(#clip0)">
<path d="M7.77614 15.6723L7.57552 19.6531L3.87717 22.463L0 15.6281L8.09072 1.53705L11.8788 4.1372L12.0037 8.35197L11.9679 8.37255L7.77614 15.6723Z" fill="#28B446"/>
<path d="M8.09082 1.53705L10.3931 11.1152L12.0037 8.35197L11.8789 2.8038L8.09082 1.53705Z" fill="#219B38"/>
<path d="M15.9088 1.53705L24.0001 15.6281L19.6368 17.8349L16.1815 15.6493V15.6281L12.0038 8.35197L8.09082 1.53705H15.9088Z" fill="#FFD837"/>
<path d="M23.9998 15.6281L20.125 22.4187L3.87695 22.4629L7.77592 15.6723L16.1812 15.6492L23.9998 15.6281Z" fill="#518EF8"/>
<path d="M3.87695 22.463L10.6755 15.6644L7.77592 15.6723L3.87695 22.463Z" fill="#3A5BBC"/>
<path d="M24.0005 15.6281L15.1299 13.7958L16.1819 15.6493L24.0005 15.6281Z" fill="#FBBB00"/>
</g>
<defs>
<clipPath id="clip0">
<rect width="24" height="24" fill="white"/>
</clipPath>
</defs>
</svg>
