<svg width="18" height="18" viewBox="0 0 18 18" fill="none" xmlns="http://www.w3.org/2000/svg">
<g clip-path="url(#clip0)">
<path d="M16.3926 16.0715C16.7973 16.0715 17.1479 15.9379 17.4459 15.6741L12.3462 10.5742C12.2239 10.6618 12.1053 10.747 11.9932 10.828C11.6116 11.1092 11.3018 11.3286 11.064 11.4858C10.8262 11.6434 10.5098 11.804 10.1148 11.968C9.71958 12.1322 9.35137 12.214 9.0098 12.214H8.9998H8.9898C8.6482 12.214 8.27999 12.1322 7.88479 11.968C7.48959 11.804 7.17318 11.6434 6.9356 11.4858C6.69779 11.3286 6.38821 11.1092 6.00638 10.828C5.89997 10.75 5.78196 10.6644 5.65438 10.5728L0.553711 15.6741C0.85172 15.9379 1.20254 16.0715 1.60712 16.0715H16.3926Z" fill="#337DBA"/>
<path d="M1.01462 7.3628C0.633012 7.10838 0.294611 6.81701 0 6.4888V14.2479L4.49485 9.75301C3.59562 9.12523 2.43702 8.32941 1.01462 7.3628Z" fill="#337DBA"/>
<path d="M16.9954 7.3628C15.6273 8.28882 14.4645 9.08601 13.5068 9.75481L17.9999 14.2481V6.4888C17.7118 6.8104 17.377 7.10158 16.9954 7.3628Z" fill="#337DBA"/>
<path d="M16.3925 1.92856H1.60704C1.09122 1.92856 0.694647 2.10274 0.416834 2.45075C0.138792 2.79893 0 3.23435 0 3.75655C0 4.17835 0.184185 4.63538 0.552391 5.12777C0.920597 5.61996 1.3124 6.00657 1.7276 6.28778C1.95521 6.4486 2.64163 6.92579 3.78683 7.7192C4.40504 8.1476 4.94266 8.521 5.40466 8.84323C5.79845 9.11761 6.13806 9.35523 6.41846 9.55242C6.45065 9.575 6.50127 9.61121 6.56846 9.65925C6.64084 9.71124 6.73245 9.77723 6.84545 9.85883C7.06307 10.0162 7.24386 10.1434 7.38785 10.2406C7.53164 10.3379 7.70585 10.4464 7.91024 10.567C8.11445 10.6875 8.30707 10.778 8.48785 10.8382C8.66867 10.8984 8.83606 10.9286 8.99005 10.9286H9.00005H9.01005C9.164 10.9286 9.33142 10.8984 9.51228 10.8382C9.69303 10.778 9.88548 10.6877 10.0899 10.567C10.294 10.4464 10.468 10.3376 10.6123 10.2406C10.7563 10.1434 10.9371 10.0162 11.1547 9.85883C11.2675 9.77723 11.3591 9.71121 11.4315 9.65941C11.4987 9.61118 11.5493 9.5752 11.5817 9.55242C11.8001 9.40042 12.1405 9.16379 12.5982 8.84601C13.4309 8.26741 14.6573 7.4158 16.2826 6.28778C16.7714 5.94637 17.1797 5.53438 17.5079 5.05238C17.8356 4.57038 17.9998 4.06479 17.9998 3.53576C17.9998 3.09377 17.8406 2.71556 17.5227 2.40056C17.2046 2.08595 16.8278 1.92856 16.3925 1.92856Z" fill="#337DBA"/>
</g>
<defs>
<clipPath id="clip0">
<rect width="18" height="18" fill="white"/>
</clipPath>
</defs>
</svg>
