<svg width="18" height="18" viewBox="0 0 18 18" fill="none" xmlns="http://www.w3.org/2000/svg">
<path d="M17.9914 14.2031C18.0295 14.4953 17.9405 14.7493 17.7246 14.9653L15.1903 17.4805C15.0759 17.6075 14.9267 17.7156 14.7425 17.8044C14.5583 17.8934 14.3773 17.9505 14.1995 17.9759C14.1868 17.9759 14.1486 17.9792 14.0851 17.9855C14.0216 17.9919 13.9391 17.9951 13.8374 17.9951C13.596 17.9951 13.2053 17.9538 12.6654 17.8712C12.1255 17.7886 11.465 17.5853 10.6838 17.2614C9.90239 16.9375 9.01635 16.4515 8.0255 15.8037C7.03465 15.1559 5.98023 14.2666 4.86232 13.136C3.97307 12.2594 3.23626 11.421 2.6519 10.6207C2.06753 9.82032 1.5975 9.08034 1.2418 8.4007C0.886073 7.72106 0.619298 7.10494 0.441448 6.55233C0.263599 5.99973 0.142915 5.52334 0.0793972 5.12318C0.0158794 4.72302 -0.00952766 4.4086 0.00317589 4.17994C0.0158794 3.95128 0.0222312 3.82424 0.0222312 3.79883C0.0476383 3.62098 0.104804 3.43996 0.193729 3.25576C0.282654 3.07155 0.390634 2.92229 0.51767 2.80796L3.05203 0.273595C3.22988 0.0957456 3.43314 0.00682068 3.6618 0.00682068C3.82695 0.00682068 3.97304 0.054459 4.10007 0.149736C4.22711 0.245012 4.33509 0.36252 4.42401 0.50226L6.46293 4.37049C6.57726 4.57375 6.60902 4.79606 6.55821 5.03743C6.50739 5.2788 6.39941 5.48206 6.23427 5.6472L5.30056 6.58091C5.27515 6.60632 5.25292 6.64761 5.23386 6.70477C5.21481 6.76194 5.20528 6.80958 5.20528 6.84769C5.25609 7.11446 5.37043 7.41935 5.54828 7.76234C5.70072 8.06723 5.93573 8.43881 6.25332 8.87708C6.57091 9.31536 7.02189 9.82029 7.60625 10.392C8.17791 10.9764 8.68605 11.4305 9.13068 11.7545C9.57521 12.0783 9.94691 12.3166 10.2454 12.469C10.544 12.6215 10.7726 12.7136 10.9314 12.7452L11.1695 12.7929C11.1949 12.7929 11.2363 12.7833 11.2934 12.7643C11.3506 12.7452 11.3919 12.723 11.4173 12.6976L12.5034 11.5924C12.7322 11.3891 12.9989 11.2875 13.3038 11.2875C13.5198 11.2875 13.6912 11.3256 13.8183 11.4019H13.8373L17.5149 13.5742C17.7818 13.7394 17.9406 13.949 17.9914 14.2031Z" fill="#337DBA"/>
</svg>
