										<svg display="none" xmlns="http://www.w3.org/2000/svg">

										<symbol id="facebook"  viewBox="0 0 96.124 96.123">
										<g>
										<path d="M72.089,0.02L59.624,0C45.62,0,36.57,9.285,36.57,23.656v10.907H24.037c-1.083,0-1.96,0.878-1.96,1.961v15.803
										c0,1.083,0.878,1.96,1.96,1.96h12.533v39.876c0,1.083,0.877,1.96,1.96,1.96h16.352c1.083,0,1.96-0.878,1.96-1.96V54.287h14.654
										c1.083,0,1.96-0.877,1.96-1.96l0.006-15.803c0-0.52-0.207-1.018-0.574-1.386c-0.367-0.368-0.867-0.575-1.387-0.575H56.842v-9.246
										c0-4.444,1.059-6.7,6.848-6.7l8.397-0.003c1.082,0,1.959-0.878,1.959-1.96V1.98C74.046,0.899,73.17,0.022,72.089,0.02z"/>
										</g>
										</symbol>


										<symbol id="twitter"  viewBox="0 0 612 612">
										<g>
										<path d="M612,116.258c-22.525,9.981-46.694,16.75-72.088,19.772c25.929-15.527,45.777-40.155,55.184-69.411
										c-24.322,14.379-51.169,24.82-79.775,30.48c-22.907-24.437-55.49-39.658-91.63-39.658c-69.334,0-125.551,56.217-125.551,125.513
										c0,9.828,1.109,19.427,3.251,28.606C197.065,206.32,104.556,156.337,42.641,80.386c-10.823,18.51-16.98,40.078-16.98,63.101
										c0,43.559,22.181,81.993,55.835,104.479c-20.575-0.688-39.926-6.348-56.867-15.756v1.568c0,60.806,43.291,111.554,100.693,123.104
										c-10.517,2.83-21.607,4.398-33.08,4.398c-8.107,0-15.947-0.803-23.634-2.333c15.985,49.907,62.336,86.199,117.253,87.194
										c-42.947,33.654-97.099,53.655-155.916,53.655c-10.134,0-20.116-0.612-29.944-1.721c55.567,35.681,121.536,56.485,192.438,56.485
										c230.948,0,357.188-191.291,357.188-357.188l-0.421-16.253C573.872,163.526,595.211,141.422,612,116.258z"/>
										</g>
										</symbol>


										<symbol id="rss"  viewBox="0 0 402.041 402.04">
										<g>
										<path d="M54.816,292.382c-15.229,0-28.169,5.331-38.831,15.988C5.33,319.026,0,331.969,0,347.197
										c0,15.232,5.325,28.172,15.985,38.828c10.662,10.657,23.606,15.988,38.831,15.988c15.227,0,28.168-5.331,38.828-15.988
										c10.656-10.656,15.986-23.596,15.986-38.828c0-15.229-5.33-28.171-15.986-38.827C82.987,297.713,70.046,292.382,54.816,292.382z"
										/>
										<path d="M181.01,221.002c-21.51-21.698-46.158-38.97-73.948-51.816c-27.79-12.85-56.914-20.511-87.366-22.985h-1.425
										c-4.949,0-9.042,1.619-12.275,4.854C1.997,154.477,0,158.953,0,164.472v38.543c0,4.757,1.569,8.85,4.708,12.279
										c3.14,3.429,7.089,5.332,11.848,5.708c43.586,4.189,80.845,21.752,111.773,52.678c30.93,30.926,48.49,68.187,52.677,111.771
										c0.382,4.764,2.284,8.712,5.712,11.847c3.427,3.148,7.517,4.72,12.275,4.72h38.545c5.517,0,9.989-1.995,13.415-5.996
										c3.621-3.812,5.236-8.381,4.863-13.709c-2.478-30.447-10.14-59.573-22.987-87.361C219.983,267.16,202.708,242.514,181.01,221.002z
										"/>
										<path d="M367.728,239.701c-20.365-45.585-48.345-86.078-83.936-121.482c-35.405-35.594-75.896-63.572-121.485-83.939
										C116.723,13.917,68.996,2.494,19.126,0.02h-0.855c-4.949,0-9.136,1.713-12.563,5.14C1.903,8.583,0,12.964,0,18.294v40.825
										c0,4.76,1.667,8.897,4.996,12.419c3.33,3.523,7.373,5.376,12.132,5.57c40.924,2.478,79.799,12.188,116.63,29.127
										c36.83,16.94,68.806,38.972,95.93,66.09c27.118,27.123,49.149,59.101,66.089,95.931c16.94,36.836,26.557,75.705,28.839,116.627
										c0.195,4.764,2.046,8.809,5.564,12.139c3.524,3.329,7.762,4.999,12.71,4.999h40.823c5.331,0,9.701-1.902,13.134-5.715
										c3.809-3.806,5.517-8.274,5.144-13.415C399.52,333.017,388.093,285.291,367.728,239.701z"/>
										</g>
										</symbol>


										<symbol id="gplus"   viewBox="0 0 512 512">
										<g>
										<g>
										<polygon points="448,224 448,160 416,160 416,224 352,224 352,256 416,256 416,320 448,320 448,256 512,256 512,224 		"/>
										</g>
										</g>
									
										<g>
										<path d="M160,224v64h90.528c-13.216,37.248-48.8,64-90.528,64c-52.928,0-96-43.072-96-96c0-52.928,43.072-96,96-96
										c22.944,0,45.024,8.224,62.176,23.168l42.048-48.256C235.424,109.824,198.432,96,160,96C71.776,96,0,167.776,0,256
										s71.776,160,160,160s160-71.776,160-160v-32H160z"/>
										</g>
										</symbol>


										<symbol id="LinkedIn"   viewBox="0 0 430.117 430.117">
										<g>
										<path id="LinkedIn" d="M430.117,261.543V420.56h-92.188V272.193c0-37.271-13.334-62.707-46.703-62.707
										c-25.473,0-40.632,17.142-47.301,33.724c-2.432,5.928-3.058,14.179-3.058,22.477V420.56h-92.219c0,0,1.242-251.285,0-277.32h92.21
										v39.309c-0.187,0.294-0.43,0.611-0.606,0.896h0.606v-0.896c12.251-18.869,34.13-45.824,83.102-45.824
										C384.633,136.724,430.117,176.361,430.117,261.543z M52.183,9.558C20.635,9.558,0,30.251,0,57.463
										c0,26.619,20.038,47.94,50.959,47.94h0.616c32.159,0,52.159-21.317,52.159-47.94C103.128,30.251,83.734,9.558,52.183,9.558z
										M5.477,420.56h92.184v-277.32H5.477V420.56z"/>
										</g>
										</symbol>

										<symbol id="skype"   viewBox="0 0 512 512">
												<g>
													<path d="M487.654,288.97c1.406-10.4,2.215-20.973,2.215-31.736c0-129.153-105.27-233.872-235.102-233.872
														c-12.904,0-25.555,1.06-37.866,3.08c-22.072-14.384-48.342-22.767-76.612-22.767C62.766,3.675,0,66.483,0,143.981
														c0,28.198,8.299,54.394,22.59,76.389c-1.925,12.017-2.909,24.323-2.909,36.859c0,129.176,105.217,233.882,235.085,233.882
														c14.657,0,28.927-1.429,42.796-3.935c21.549,13.369,46.934,21.148,74.145,21.148C449.211,508.327,512,445.503,512,368.013
														C511.996,338.72,503.039,311.485,487.654,288.97z M276.74,429.597c-74.705,3.894-109.664-12.637-141.689-42.691
														c-35.765-33.565-21.398-71.854,7.74-73.801c29.122-1.942,46.607,33.015,62.15,42.736c15.524,9.688,74.594,31.76,105.793-3.908
														c33.977-38.828-22.594-58.92-64.06-65.002c-59.203-8.766-133.95-40.792-128.135-103.907c5.816-63.074,53.582-95.414,103.85-99.976
														c64.077-5.817,105.792,9.707,138.786,37.86c38.148,32.529,17.508,68.894-6.799,71.82c-24.213,2.909-51.404-53.504-104.792-54.352
														c-55.027-0.864-92.217,57.261-24.286,73.784c67.967,16.505,140.75,23.286,166.961,85.417
														C418.49,359.714,351.508,425.702,276.74,429.597z"/>
												</g>
										</symbol>

										<symbol id="vimeo"   viewBox="0 0 299.999 299.999">
										<g id="XMLID_518_">
											<path id="XMLID_3_" style="fill-rule:evenodd;clip-rule:evenodd;" d="M298.723,68.78c2.238-12.561,2.188-25.477-5.57-35.245
												c-10.824-13.696-33.863-14.2-49.646-11.783c-12.84,1.963-56.269,21.124-71.047,66.996c26.182-1.99,39.904,1.887,37.385,30.713
												c-1.055,12.061-7.148,25.274-13.947,37.941c-7.857,14.603-22.583,43.277-41.894,22.608c-17.394-18.602-16.088-54.179-20.065-77.871
												c-2.215-13.292-4.557-29.857-8.912-43.529c-3.753-11.757-12.359-25.932-22.884-29.004c-11.304-3.322-25.28,1.863-33.487,6.698
												C42.522,51.661,22.605,73.513,0,91.54l0,0c3.68,7.884,5.687,12.992,12.283,13.949c15.561,2.292,30.391-14.502,40.736,2.971
												c6.294,10.675,8.26,22.381,12.287,33.891c5.387,15.328,9.541,32.02,13.947,49.646c7.452,29.857,16.618,74.47,42.424,85.398
												c13.166,5.591,32.957-1.889,42.977-7.831c27.14-16.061,48.289-39.348,66.391-63.04C272.434,150.453,295.27,86.933,298.723,68.78z"
												/>
										</g>
										</symbol>

										<symbol id="tumblr"   viewBox="0 0 438.542 438.543">
<g>
	<path d="M288.078,367.164c-12.748,0-23.887-2.95-33.4-8.85c-7.427-4.381-12.368-10.089-14.842-17.132
		c-2.673-6.852-4.001-23.223-4.001-49.115V179.58h103.921v-68.806H235.834V0h-62.53c-2.856,22.458-7.992,41.109-15.415,55.963
		c-7.424,14.655-17.227,27.218-29.408,37.685c-12.183,10.282-26.934,18.276-44.255,23.984v61.955h48.535v153.889
		c0,20.365,2.096,35.69,6.28,45.967c3.999,10.283,11.519,20.272,22.557,29.981c11.419,9.514,24.554,16.652,39.399,21.406
		c15.418,5.14,33.12,7.713,53.105,7.713c18.274,0,34.735-1.813,49.392-5.428c14.466-3.237,31.409-9.424,50.823-18.562V345.46
		C332.425,359.933,310.349,367.164,288.078,367.164z"/>
</g>
										</symbol>




										</svg>